<svg width="16" height="16" viewBox="0 0 16 16" fill="none" xmlns="http://www.w3.org/2000/svg">
<path d="M3.5 1.5C2.39543 1.5 1.5 2.39543 1.5 3.5V12.5C1.5 13.6046 2.39543 14.5 3.5 14.5H12.5C13.471 14.5 14.2804 13.808 14.4619 12.8903C14.0168 12.6449 13.5747 12.3969 13.1343 12.1498C11.9075 11.4615 10.6931 10.7802 9.45928 10.1809C8.75561 10.9864 7.71281 11.7918 6.53435 12.1394C5.79676 12.3598 5.12699 12.4446 4.43178 12.3005C3.73658 12.1563 3.2279 11.8342 2.93117 11.512C2.70114 11.2564 2.46021 10.9529 2.37161 10.6133C2.36949 10.6049 2.36736 10.5964 2.36522 10.588C2.34263 10.4985 2.31995 10.4088 2.31227 10.3166C2.28786 10.1212 2.30171 9.89817 2.3377 9.70617C2.40553 9.36704 2.54965 8.97705 2.92269 8.62097C3.73658 7.82403 4.82178 7.78164 5.38981 7.79012C6.22067 7.7986 7.67889 8.16316 8.89974 8.59554C9.23885 7.8749 9.45928 7.1034 9.59494 6.58624H4.50808V6.03515H7.11934V4.933H3.96549V4.37346H7.11934V3.2713C7.11934 3.1187 7.15325 3 7.39063 3H8.62844V4.37346H12.0621V4.92452H8.62844V6.02668H11.3753C11.3753 6.02668 11.0956 7.56121 10.2393 9.07878C11.0831 9.37883 12.2832 9.77246 13.4288 10.1482C13.796 10.2687 14.1575 10.3873 14.5 10.5004V3.5C14.5 2.39543 13.6046 1.5 12.5 1.5H3.5ZM3.27085 9.11993C3.06273 9.27075 2.84596 9.49299 2.78527 9.7708C2.69854 10.1518 2.76792 10.628 3.16679 11.009C3.65239 11.4615 4.39812 11.5885 4.71895 11.6123C5.58608 11.6678 6.5139 11.271 7.21627 10.8265C7.49375 10.6519 7.962 10.2947 8.40423 9.74699C7.39837 9.27075 6.14104 8.74687 4.80567 8.79449C4.12063 8.81831 3.62638 8.94531 3.27085 9.11993Z" fill="#1E2226"/>
</svg>
