<svg width="16" height="16" viewBox="0 0 16 16" fill="none" xmlns="http://www.w3.org/2000/svg">
<path d="M3.43835 8.37711C4.98678 8.05037 4.7755 6.2307 4.72824 5.83286C4.65179 5.21901 3.91928 4.14717 2.92406 4.23193C1.6717 4.34267 1.48822 6.12269 1.48822 6.12269C1.32003 6.94571 1.89409 8.70386 3.43835 8.37711ZM5.02153 12.2803C5.19388 12.9188 5.75821 12.9475 5.75821 12.9475H6.56856V10.9993H5.70122C5.31203 11.1141 5.12299 11.4135 5.08129 11.5407C5.03543 11.6692 4.93535 11.9959 5.02153 12.2803ZM7.85568 3.16282C7.85568 1.96794 7.16625 1 6.31003 1C5.45659 1 4.76438 1.96794 4.76438 3.16282C4.76438 4.35907 5.45659 5.32701 6.31003 5.32701C7.16625 5.32701 7.85568 4.35907 7.85568 3.16282ZM12.0145 3.50598C12.1632 2.59956 11.4265 1.54412 10.6175 1.36366C9.80719 1.18046 8.7953 2.45738 8.70356 3.28997C8.59375 4.30849 8.85089 5.32428 9.99206 5.4692C11.1346 5.61548 11.8699 4.41513 12.0145 3.50598ZM12.7915 10.812C12.7915 10.812 11.0234 9.46673 9.99206 8.01345C8.59375 5.86977 6.60609 6.74201 5.94169 7.83162C5.28006 8.92124 4.2487 9.61164 4.10276 9.79348C3.95403 9.97394 1.96776 11.028 2.40838 12.9543C2.849 14.8793 4.39882 14.8437 4.39882 14.8437C4.39882 14.8437 5.53998 14.9544 6.86463 14.6632C8.18927 14.3734 9.32905 14.7357 9.32905 14.7357C9.32905 14.7357 12.4231 15.7542 13.2696 13.7924C14.1147 11.8292 12.7915 10.812 12.7915 10.812ZM5.48578 13.7322C4.61704 13.5613 4.27094 12.9789 4.22646 12.8791C4.18337 12.778 3.93735 12.309 4.06801 11.512C4.4433 10.3171 5.51358 10.231 5.51358 10.231H6.58385V8.93628L7.49567 8.94995L7.49706 13.7322H5.48578ZM8.92873 13.7185C8.03081 13.4916 7.98911 12.8641 7.98911 12.8641V10.3458L8.92873 10.3308V12.5934C8.98572 12.834 9.29152 12.8791 9.29152 12.8791H10.245V10.3458H11.2444V13.7185H8.92873ZM14.5206 6.99493C14.5206 6.56018 14.1536 5.25045 12.7915 5.25045C11.4265 5.25045 11.2444 6.48635 11.2444 7.35996C11.2444 8.19392 11.3167 9.35872 13.0111 9.32044C14.7068 9.2849 14.5206 7.43242 14.5206 6.99493Z" fill="#1E2226"/>
</svg>
