<svg width="16" height="16" viewBox="0 0 16 16" fill="none" xmlns="http://www.w3.org/2000/svg">
<path d="M1.82548 2.6362C1.99241 1.96845 2.59239 1.5 3.28069 1.5H12.7191C13.4074 1.5 14.0074 1.96845 14.1744 2.6362L14.7424 4.90859C14.9012 5.54345 14.5581 6.1627 13.9999 6.39928V6.41465C13.8435 6.46992 13.6752 6.5 13.4999 6.5H2.49992C2.3246 6.5 2.1563 6.46992 1.99991 6.41465V6.39928C1.44171 6.1627 1.09866 5.54345 1.25738 4.90859L1.82548 2.6362ZM1.99991 7.44999V13C1.99991 13.8284 2.67149 14.5 3.49991 14.5H12.4999C13.3283 14.5 13.9999 13.8284 13.9999 13V7.44999C13.8384 7.48279 13.6711 7.5 13.4999 7.5H2.49992C2.32868 7.5 2.16147 7.48278 1.99991 7.44999ZM8.99993 12.1V10.9H11.9999V12.1H8.99993Z" fill="#1E2226"/>
</svg>
