<svg width="16" height="16" viewBox="0 0 16 16" fill="none" xmlns="http://www.w3.org/2000/svg">
<path d="M4.8999 1.25V2.15H2.7499C1.86625 2.15 1.1499 2.86634 1.1499 3.75V12.75C1.1499 13.6337 1.86625 14.35 2.7499 14.35H13.2499C14.1336 14.35 14.8499 13.6337 14.8499 12.75V3.75C14.8499 2.86634 14.1336 2.15 13.2499 2.15H11.0999V1.25H9.8999V2.15H6.0999V1.25H4.8999ZM11.6742 6.92427L7.67417 10.9243C7.43985 11.1586 7.05995 11.1586 6.82564 10.9243L4.32564 8.42427L5.17417 7.57574L7.2499 9.65147L10.8256 6.07574L11.6742 6.92427Z" fill="#1E2226"/>
</svg>
