<svg width="16" height="16" viewBox="0 0 16 16" fill="none" xmlns="http://www.w3.org/2000/svg">
<path d="M6.33852 1.75C5.92961 1.75 5.5619 1.99895 5.41004 2.37861L5.16148 3H2.75C1.92157 3 1.25 3.67157 1.25 4.5V12.75C1.25 13.5784 1.92157 14.25 2.75 14.25H13.25C14.0784 14.25 14.75 13.5784 14.75 12.75V4.5C14.75 3.67157 14.0784 3 13.25 3L10.8385 3L10.59 2.37861C10.4381 1.99895 10.0704 1.75 9.66148 1.75H6.33852ZM12.5 6.1H11V4.9H12.5V6.1ZM8 6.6C6.95066 6.6 6.1 7.45066 6.1 8.5C6.1 9.54934 6.95066 10.4 8 10.4C9.04934 10.4 9.9 9.54934 9.9 8.5C9.9 7.45066 9.04934 6.6 8 6.6ZM4.9 8.5C4.9 6.78792 6.28792 5.4 8 5.4C9.71208 5.4 11.1 6.78792 11.1 8.5C11.1 10.2121 9.71208 11.6 8 11.6C6.28792 11.6 4.9 10.2121 4.9 8.5Z" fill="#1E2226"/>
</svg>
