<?xml version="1.0" encoding="UTF-8"?>
<svg width="40px" height="40px" viewBox="0 0 40 40" version="1.1" xmlns="http://www.w3.org/2000/svg" xmlns:xlink="http://www.w3.org/1999/xlink">
    <title>8.1 BackTop返回顶部/圆形</title>
    <g id="--------🎈8.2-BackTop/-返回顶部" stroke="none" stroke-width="1" fill="none" fill-rule="evenodd">
        <g id="8.2-BackTop/-返回顶部" transform="translate(-120.000000, -404.000000)">
            <g id="编组" transform="translate(120.000000, 404.000000)">
                <circle id="Oval" fill="#000000" opacity="0.45" cx="20" cy="20" r="20"></circle>
                <path d="M20.0839286,23.8411023 C20.3136724,24.0529462 20.6862357,24.0529857 20.9160224,23.8411023 L26.7353536,18.4754835 C27.1952492,18.0514204 27.040426,17.7079618 26.3899327,17.7079618 L22.8558639,17.7079618 L22.8558639,12.0840133 C22.8558639,11.4852278 22.3286493,11 21.6783063,11 L19.3216234,11 C18.6713662,11 18.1440227,11.4853068 18.1440227,12.0839738 L18.1440227,17.7079618 L14.6100399,17.7079618 C13.9594606,17.7079618 13.8048522,18.0516179 14.2645975,18.4754835 L20.0839501,23.841122 L20.0839286,23.8411023 Z M26.8573542,27 L13.1426458,27 C12.5119583,27 12,27.4477267 12,28 C12,28.5524009 12.5115625,29 13.1426458,29 L26.8573542,29 C27.488,29 28,28.5522733 28,28 C28,27.4475991 27.4884375,27 26.8573542,27 Z" id="Shape" fill="#FFFFFF" transform="translate(20.000000, 20.000000) scale(1, -1) translate(-20.000000, -20.000000) "></path>
            </g>
        </g>
    </g>
</svg>