<svg width="16" height="16" viewBox="0 0 16 16" fill="none" xmlns="http://www.w3.org/2000/svg">
<path d="M3.57568 0.575684L0.575684 3.57568L1.42421 4.42421L4.42421 1.42421L3.57568 0.575684ZM11.5757 1.42421L14.5757 4.42421L15.4242 3.57568L12.4242 0.575684L11.5757 1.42421ZM7.99995 1.39995C4.35487 1.39995 1.39995 4.35487 1.39995 7.99995C1.39995 9.86101 2.17024 11.5422 3.40939 12.742L2.07568 14.0757L2.92421 14.9242L4.34923 13.4992C5.3948 14.1947 6.65005 14.5999 7.99995 14.5999C9.34985 14.5999 10.6051 14.1947 11.6507 13.4992L13.0757 14.9242L13.9242 14.0757L12.5905 12.742C13.8297 11.5422 14.5999 9.86101 14.5999 7.99995C14.5999 4.35487 11.645 1.39995 7.99995 1.39995ZM7.39995 7.99995V4.99995H8.59995V7.75142L10.4242 9.57568L9.57568 10.4242L7.57568 8.42421C7.46316 8.31169 7.39995 8.15908 7.39995 7.99995Z" fill="#1E2226"/>
</svg>
