<svg width="16" height="16" viewBox="0 0 16 16" fill="none" xmlns="http://www.w3.org/2000/svg">
<path d="M8 1C4.13401 1 1 4.13401 1 8C1 11.866 4.13401 15 8 15C11.866 15 15 11.866 15 8C15 4.13401 11.866 1 8 1ZM11.3485 5.5L10.9243 5.92426L8.84853 8L10.9243 10.0757L11.3485 10.5L10.5 11.3485L10.0757 10.9243L8 8.84853L5.92426 10.9243L5.5 11.3485L4.65147 10.5L5.07574 10.0757L7.15147 8L5.07574 5.92426L4.65147 5.5L5.5 4.65147L5.92426 5.07574L8 7.15147L10.0757 5.07574L10.5 4.65147L11.3485 5.5Z" fill="#1E2226"/>
</svg>
