<svg width="16" height="16" viewBox="0 0 16 16" fill="none" xmlns="http://www.w3.org/2000/svg">
<path d="M3.45932 1.40002C2.60158 1.40002 1.89642 2.07641 1.86071 2.93342L1.44404 12.9334C1.40617 13.8424 2.13287 14.6 3.04266 14.6H12.9576C13.8674 14.6 14.5941 13.8424 14.5562 12.9334L14.1395 2.93342C14.1038 2.07641 13.3987 1.40002 12.5409 1.40002H3.45932ZM8.00013 7.60002C6.28804 7.60002 4.90013 6.21211 4.90013 4.50002H6.10013C6.10013 5.54937 6.95079 6.40002 8.00013 6.40002C9.04947 6.40002 9.90013 5.54937 9.90013 4.50002H11.1001C11.1001 6.21211 9.71221 7.60002 8.00013 7.60002Z" fill="#1E2226"/>
</svg>
