<svg width="16" height="16" viewBox="0 0 16 16" fill="none" xmlns="http://www.w3.org/2000/svg">
<path d="M2.4999 1.90002C1.61638 1.90002 0.899902 2.61607 0.899902 3.49985V6.61366L1.19947 6.78695C1.61949 7.02992 1.8999 7.48258 1.8999 8.00002C1.8999 8.51747 1.61949 8.97012 1.19947 9.2131L0.899902 9.38638V12.5007C0.899902 13.3849 1.61679 14.1 2.4999 14.1H13.4999C14.383 14.1 15.0999 13.3849 15.0999 12.5007V9.38639L14.8003 9.2131C14.3803 8.97012 14.0999 8.51747 14.0999 8.00002C14.0999 7.48258 14.3803 7.02992 14.8003 6.78695L15.0999 6.61366V3.49985C15.0999 2.61606 14.3834 1.90002 13.4999 1.90002H2.4999ZM11.6741 6.17429L7.67414 10.1743C7.43983 10.4086 7.05993 10.4086 6.82561 10.1743L4.32561 7.67429L5.17414 6.82577L7.24988 8.9015L10.8256 5.32577L11.6741 6.17429Z" fill="#1E2226"/>
</svg>
