<svg width="16" height="16" viewBox="0 0 16 16" fill="none" xmlns="http://www.w3.org/2000/svg">
<path d="M8.52086 1.20234C8.41403 1.0154 8.21523 0.900024 7.99991 0.900024C7.7846 0.900024 7.58579 1.0154 7.47897 1.20234L4.76057 5.95953L1.76824 4.46337C1.57164 4.36507 1.33703 4.38214 1.15673 4.50786C0.976432 4.63358 0.879308 4.84782 0.903582 5.06628L1.90358 14.0663C1.93734 14.3701 2.19418 14.6 2.49991 14.6H13.4999C13.8056 14.6 14.0625 14.3701 14.0962 14.0663L15.0962 5.06628C15.1205 4.84782 15.0234 4.63358 14.8431 4.50786C14.6628 4.38214 14.4282 4.36507 14.2316 4.46337L11.2393 5.95953L8.52086 1.20234ZM7.6251 11.4685L5.1251 9.46855L5.87474 8.5315L7.99992 10.2316L10.1251 8.5315L10.8747 9.46855L8.37474 11.4685C8.15561 11.6439 7.84423 11.6439 7.6251 11.4685Z" fill="#1E2226"/>
</svg>
