<svg width="16" height="16" viewBox="0 0 16 16" fill="none" xmlns="http://www.w3.org/2000/svg">
<path d="M7.9999 0.900024C4.64138 0.900024 1.8999 3.47612 1.8999 7.00002V10.5C1.8999 11.1075 2.39239 11.6 2.9999 11.6H3.4999C4.6597 11.6 5.5999 10.6598 5.5999 9.50002V8.00002C5.5999 6.84023 4.6597 5.90002 3.4999 5.90002H3.21424C3.6965 3.64306 5.64845 2.10002 7.9999 2.10002C10.3514 2.10002 12.3033 3.64306 12.7856 5.90002H12.4999C11.3401 5.90002 10.3999 6.84023 10.3999 8.00002V9.50002C10.3999 10.6598 11.3401 11.6 12.4999 11.6H12.6572C12.584 11.7878 12.489 11.9853 12.3661 12.182C11.946 12.8541 11.1543 13.5903 9.58594 13.8243C9.5018 13.3003 9.04759 12.9 8.4999 12.9H7.4999C6.89239 12.9 6.3999 13.3925 6.3999 14C6.3999 14.6075 6.89239 15.1 7.4999 15.1H8.4999C11.1918 15.1 12.6413 14.0058 13.3837 12.818C13.7431 12.243 13.9207 11.6721 14.0092 11.2474C14.0536 11.0341 14.0762 10.8545 14.0878 10.7253C14.0944 10.6504 14.0998 10.5752 14.0999 10.5V7.00002C14.0999 3.47612 11.3584 0.900024 7.9999 0.900024Z" fill="#1E2226"/>
</svg>
