<svg width="16" height="16" viewBox="0 0 16 16" fill="none" xmlns="http://www.w3.org/2000/svg">
<path d="M5.9999 2.942C6.22637 2.3335 6.81251 1.90002 7.4999 1.90002H13.4999C14.3836 1.90002 15.0999 2.61637 15.0999 3.50002V11.5C15.0999 12.1132 14.7549 12.6459 14.2485 12.9145C14.2034 11.5734 13.102 10.5 11.7499 10.5C10.3692 10.5 9.2499 11.6193 9.2499 13C9.2499 13.0335 9.25056 13.0669 9.25187 13.1H6.99794C6.99924 13.0669 6.9999 13.0335 6.9999 13C6.9999 11.6193 5.88061 10.5 4.4999 10.5C3.11919 10.5 1.9999 11.6193 1.9999 13L1.99998 13.0204C1.36115 12.8104 0.899902 12.2091 0.899902 11.5V7.50002C0.899902 5.5118 2.51168 3.90002 4.4999 3.90002H4.9999V7.50002C4.9999 7.77617 4.77604 8.00002 4.4999 8.00002H3.4999V9.00002H4.4999C5.32833 9.00002 5.9999 8.32845 5.9999 7.50002V2.942ZM10.2499 13C10.2499 12.1716 10.9215 11.5 11.7499 11.5C12.5783 11.5 13.2499 12.1716 13.2499 13C13.2499 13.8285 12.5783 14.5 11.7499 14.5C10.9215 14.5 10.2499 13.8285 10.2499 13ZM4.4999 11.5C3.67148 11.5 2.9999 12.1716 2.9999 13C2.9999 13.8285 3.67148 14.5 4.4999 14.5C5.32833 14.5 5.9999 13.8285 5.9999 13C5.9999 12.1716 5.32833 11.5 4.4999 11.5Z" fill="#1E2226"/>
</svg>
