<?xml version="1.0" encoding="UTF-8"?>
<svg width="16px" height="16px" viewBox="0 0 16 16" version="1.1" xmlns="http://www.w3.org/2000/svg" xmlns:xlink="http://www.w3.org/1999/xlink">
    <title>画板备份 12</title>
    <g id="画板备份-12" stroke="none" stroke-width="1" fill="none" fill-rule="evenodd">
        <path d="M7.999998,0.9 C11.921198,0.9 15.099998,4.078776 15.099998,7.999996 C15.099998,11.921176 11.921198,15.099976 7.999998,15.099976 C4.078778,15.099976 0.9,11.921176 0.9,7.999996 C0.9,4.078776 4.078778,0.9 7.999998,0.9 Z M8.001958,8.397876 C7.026948,8.397876 6.269708,8.691046 5.683698,9.152586 C5.18138675,9.54819975 4.830363,10.047349 4.56970405,10.5274447 L4.463348,10.731676 L5.536658,11.268376 C5.766858,10.807976 6.046638,10.394276 6.426178,10.095276 C6.793778,9.805776 7.287518,9.597876 8.001958,9.597876 C8.716318,9.597876 9.208858,9.805726 9.575308,10.094976 C9.899788,10.3510046 10.1510704,10.6914495 10.3614609,11.0738664 L10.463398,11.268376 L11.536698,10.731676 C11.267198,10.192676 10.891798,9.605256 10.318698,9.152956 C9.733528,8.691096 8.977038,8.397876 8.001958,8.397876 Z M10.849998,5.000006 L9.650008,5.000006 L9.650008,7.000006 L10.849998,7.000006 L10.849998,5.000006 Z M6.350008,5.000006 L5.150008,5.000006 L5.150008,7.000006 L6.350008,7.000006 L6.350008,5.000006 Z" id="形状" fill="#1E2226" fill-rule="nonzero"></path>
    </g>
</svg>