<svg width="16" height="16" viewBox="0 0 16 16" fill="none" xmlns="http://www.w3.org/2000/svg">
<path d="M7.9999 0.900024C4.07868 0.900024 0.899902 4.0788 0.899902 8.00002C0.899902 11.9212 4.07868 15.1 7.9999 15.1C11.9211 15.1 15.0999 11.9212 15.0999 8.00002C15.0999 4.0788 11.9211 0.900024 7.9999 0.900024ZM5.1499 7.00002V5.00002H6.3499V7.00002H5.1499ZM9.6499 7.00002V5.00002H10.8499V7.00002H9.6499ZM11.9308 9.16868C11.4277 10.8631 9.85902 12.1 7.99991 12.1C6.14357 12.1 4.57683 10.8668 4.07129 9.17627L5.22099 8.83247C5.57878 10.029 6.6884 10.9 7.99991 10.9C9.31337 10.9 10.4243 10.0263 10.7804 8.82711L11.9308 9.16868Z" fill="#1E2226"/>
</svg>
