<?xml version="1.0" encoding="UTF-8"?>
<svg width="16px" height="16px" viewBox="0 0 16 16" version="1.1" xmlns="http://www.w3.org/2000/svg" xmlns:xlink="http://www.w3.org/1999/xlink">
    <title>画板备份 11</title>
    <g id="画板备份-11" stroke="none" stroke-width="1" fill="none" fill-rule="evenodd">
        <path d="M7.999998,0.9 C11.921198,0.9 15.099998,4.078776 15.099998,7.999996 C15.099998,11.921176 11.921198,15.099976 7.999998,15.099976 C4.078778,15.099976 0.9,11.921176 0.9,7.999996 C0.9,4.078776 4.078778,0.9 7.999998,0.9 Z M6.786728,5.050716 C6.479018,4.835306 6.0644155,5.02434059 6.00675652,5.37631791 L5.999998,5.460326 L5.999998,10.539676 C5.999998,10.9152831 6.39261259,11.1465505 6.71402977,10.9919201 L6.786728,10.949276 L10.414798,8.409616 C10.6733435,8.22866145 10.6968476,7.86416972 10.4853104,7.64984478 L10.414798,7.590386 L6.786728,5.050716 Z" id="形状" fill="#1E2226"></path>
    </g>
</svg>