<svg width="16" height="16" viewBox="0 0 16 16" fill="none" xmlns="http://www.w3.org/2000/svg">
<path d="M3.4999 0.900024C2.61625 0.900024 1.8999 1.61637 1.8999 2.50002V13.5C1.8999 14.3837 2.61625 15.1 3.4999 15.1H12.4999C13.3836 15.1 14.0999 14.3837 14.0999 13.5V4.91424C14.0999 4.48989 13.9313 4.08293 13.6313 3.78287L11.2171 1.36865C10.917 1.0686 10.51 0.900024 10.0857 0.900024H3.4999ZM5.4999 6.00002C4.94762 6.00002 4.4999 5.55231 4.4999 5.00002C4.4999 4.44774 4.94762 4.00002 5.4999 4.00002C6.05219 4.00002 6.4999 4.44774 6.4999 5.00002C6.4999 5.55231 6.05219 6.00002 5.4999 6.00002ZM10.4999 8.60002H4.4999V7.40002H10.4999V8.60002ZM7.9999 11.1H4.4999V9.90002H7.9999V11.1Z" fill="#1E2226"/>
</svg>
