<svg width="16" height="16" viewBox="0 0 16 16" fill="none" xmlns="http://www.w3.org/2000/svg">
<path d="M2.7499 1.65002C1.86625 1.65002 1.1499 2.36637 1.1499 3.25002V12.75C1.1499 13.6337 1.86625 14.35 2.7499 14.35H13.2499C14.1336 14.35 14.8499 13.6337 14.8499 12.75V3.25002C14.8499 2.36637 14.1336 1.65002 13.2499 1.65002H2.7499ZM4.9999 6.25002C4.44762 6.25002 3.9999 5.80231 3.9999 5.25002C3.9999 4.69774 4.44762 4.25002 4.9999 4.25002C5.55219 4.25002 5.9999 4.69774 5.9999 5.25002C5.9999 5.80231 5.55219 6.25002 4.9999 6.25002ZM10.1988 6.4526C10.6479 6.00353 11.3828 6.02696 11.8024 6.50373L13.2103 8.10365L13.6067 8.55408L12.7059 9.34683L12.3095 8.8964L10.972 7.3765L5.92417 12.4243L5.4999 12.8486L4.65137 12L5.07564 11.5758L10.1988 6.4526Z" fill="#1E2226"/>
</svg>
