<svg width="16" height="16" viewBox="0 0 16 16" fill="none" xmlns="http://www.w3.org/2000/svg">
<path d="M3.8999 3.25002C3.8999 2.09023 4.8401 1.15002 5.9999 1.15002H6.2499C6.94502 1.15002 7.56965 1.45183 7.9999 1.93155C8.43015 1.45183 9.05478 1.15002 9.7499 1.15002H9.9999C11.1597 1.15002 12.0999 2.09023 12.0999 3.25002C12.0999 3.5721 12.0274 3.87725 11.8978 4.15002H12.9999C13.8836 4.15002 14.5999 4.86637 14.5999 5.75002V6.75002H14.5999V7.25002C14.5999 7.49855 14.3984 7.70002 14.1499 7.70002H1.84988C1.60293 7.70002 1.40244 7.5011 1.3999 7.25476V5.75002C1.3999 4.86637 2.11625 4.15002 2.9999 4.15002H4.10199C3.97241 3.87725 3.8999 3.5721 3.8999 3.25002ZM7.3999 4.15002V3.50002C7.3999 2.8649 6.88503 2.35002 6.2499 2.35002H5.9999C5.50285 2.35002 5.0999 2.75297 5.0999 3.25002C5.0999 3.74708 5.50285 4.15002 5.9999 4.15002H7.3999ZM9.9999 4.15002C10.497 4.15002 10.8999 3.74708 10.8999 3.25002C10.8999 2.75297 10.497 2.35002 9.9999 2.35002H9.7499C9.11478 2.35002 8.5999 2.8649 8.5999 3.50002V4.15002H9.9999ZM2.1499 8.80002V13C2.1499 13.8837 2.86625 14.6 3.7499 14.6H12.2499C13.1336 14.6 13.8499 13.8837 13.8499 13V8.80002H2.1499Z" fill="#1E2226"/>
</svg>
