<svg width="16" height="16" viewBox="0 0 16 16" fill="none" xmlns="http://www.w3.org/2000/svg">
<path d="M8.98609 1.25982C8.40684 0.8065 7.59315 0.806499 7.0139 1.25982L2.2639 4.97721C1.8764 5.28047 1.64999 5.74516 1.64999 6.23722V13.7C1.64999 14.1971 2.05294 14.6 2.54999 14.6H5.94999C6.44705 14.6 6.84999 14.1971 6.84999 13.7V10.25C6.84999 10.0291 7.02908 9.85 7.24999 9.85H8.74999C8.97091 9.85 9.14999 10.0291 9.14999 10.25V13.7C9.14999 14.1971 9.55294 14.6 10.05 14.6H13.45C13.9471 14.6 14.35 14.1971 14.35 13.7V6.23722C14.35 5.74516 14.1236 5.28047 13.7361 4.97721L8.98609 1.25982Z" fill="#1E2226"/>
</svg>
