<svg width="16" height="16" viewBox="0 0 16 16" fill="none" xmlns="http://www.w3.org/2000/svg">
<path d="M2.50002 1.65C1.61637 1.65 0.900024 2.36635 0.900024 3.25V11.5C0.900024 12.3837 1.61637 13.1 2.50002 13.1H9.05123C9.01755 12.9051 9 12.7046 9 12.5C9 10.8653 10.1207 9.49232 11.6357 9.10753C11.8812 9.04519 12.137 9.00878 12.4 9.0014C12.4332 9.00047 12.4666 9 12.5 9C12.8843 9 13.2541 9.06193 13.6 9.17636V3.25C13.6 2.36635 12.8837 1.65 12 1.65H2.50002ZM2.13319 11.6597C2.11185 11.6108 2.10002 11.5568 2.10002 11.5V3.25C2.10002 3.02909 2.27911 2.85 2.50002 2.85H12C12.2209 2.85 12.4 3.02909 12.4 3.25V7.19288L11.7071 6.49999C11.3166 6.10946 10.6834 6.10946 10.2929 6.49999L7.50002 9.29288L6.70713 8.49999C6.31661 8.10946 5.68344 8.10946 5.29292 8.49999L2.13319 11.6597ZM5.50002 5.25C5.50002 5.80229 5.05231 6.25 4.50002 6.25C3.94774 6.25 3.50002 5.80229 3.50002 5.25C3.50002 4.69772 3.94774 4.25 4.50002 4.25C5.05231 4.25 5.50002 4.69772 5.50002 5.25ZM12.5 15C13.8807 15 15 13.8807 15 12.5C15 11.1193 13.8807 10 12.5 10C11.1193 10 10 11.1193 10 12.5C10 13.8807 11.1193 15 12.5 15ZM12.2 11H12.8V13H12.2V11ZM12.2 14V13.5H12.8V14H12.2Z" fill="#1E2226"/>
</svg>
