<svg width="16" height="16" viewBox="0 0 16 16" fill="none" xmlns="http://www.w3.org/2000/svg">
<path d="M7.9999 0.900024C4.44537 0.900024 1.8999 3.68368 1.8999 7.00002C1.8999 9.47878 3.28478 11.4982 4.6546 12.8626C5.34542 13.5507 6.05112 14.0916 6.61857 14.463C6.90201 14.6485 7.1569 14.7957 7.36375 14.899C7.46649 14.9504 7.56484 14.9947 7.65366 15.0277C7.71903 15.052 7.85419 15.1 7.9999 15.1C8.14562 15.1 8.28078 15.052 8.34615 15.0277C8.43497 14.9947 8.53331 14.9504 8.63605 14.899C8.84291 14.7957 9.0978 14.6485 9.38123 14.463C9.94868 14.0916 10.6544 13.5507 11.3452 12.8626C12.715 11.4982 14.0999 9.47878 14.0999 7.00002C14.0999 3.68368 11.5544 0.900024 7.9999 0.900024ZM10.4999 7.00002C10.4999 8.38074 9.38061 9.50002 7.9999 9.50002C6.61919 9.50002 5.4999 8.38074 5.4999 7.00002C5.4999 5.61931 6.61919 4.50002 7.9999 4.50002C9.38061 4.50002 10.4999 5.61931 10.4999 7.00002Z" fill="#1E2226"/>
</svg>
