<?xml version="1.0" encoding="UTF-8"?>
<svg width="16px" height="16px" viewBox="0 0 16 16" version="1.1" xmlns="http://www.w3.org/2000/svg" xmlns:xlink="http://www.w3.org/1999/xlink">
    <title>画板备份 9</title>
    <g id="画板备份-9" stroke="none" stroke-width="1" fill="none" fill-rule="evenodd">
        <path d="M12.2181062,9.70480625 C12.3080162,9.47689025 12.6073112,9.45409865 12.7390982,9.63643145 L12.7763062,9.70480625 L13.4393062,11.3860063 C13.4621812,11.4439813 13.502325,11.4929563 13.5535781,11.5266453 L13.6083062,11.5550063 L15.2896062,12.2181063 C15.5174862,12.3080163 15.5402742,12.6073112 15.3579702,12.7390983 L15.2896062,12.7763063 L13.6083062,13.4393063 C13.5503312,13.4621813 13.5014125,13.502325 13.4677094,13.5535781 L13.4393062,13.6083063 L12.7763062,15.2896063 C12.6863962,15.5174863 12.3871012,15.5402743 12.2553142,15.3579703 L12.2181062,15.2896063 L11.5550062,13.6083063 C11.5322062,13.5503312 11.492025,13.5014125 11.4407484,13.4677094 L11.3860062,13.4393063 L9.70480625,12.7763063 C9.47689025,12.6863963 9.45409865,12.3871013 9.63643145,12.2553143 L9.70480625,12.2181063 L11.3860062,11.5550063 C11.4439812,11.5322063 11.4929562,11.492025 11.5266453,11.4407484 L11.5550062,11.3860063 L12.2181062,9.70480625 Z M6.03206625,1.17655625 C6.18663625,0.784629464 6.71273033,0.756634694 6.9203752,1.09257194 L6.96232625,1.17655625 L8.25599625,4.45670625 C8.29666025,4.55979425 8.37007305,4.64569185 8.46378793,4.70195233 L8.53768625,4.73839625 L11.8178062,6.03206625 C12.2097562,6.18663625 12.2377527,6.71273033 11.9017955,6.9203752 L11.8178062,6.96232625 L8.53768625,8.25599625 C8.43459825,8.29666025 8.34870065,8.37007305 8.29244017,8.46378793 L8.25599625,8.53768625 L6.96232625,11.8178062 C6.80775625,12.2097562 6.28166217,12.2377527 6.0740173,11.9017955 L6.03206625,11.8178062 L4.73839625,8.53768625 C4.69773225,8.43459825 4.62431945,8.34870065 4.53060457,8.29244017 L4.45670625,8.25599625 L1.17655625,6.96232625 C0.784629464,6.80775625 0.756634694,6.28166217 1.09257194,6.0740173 L1.17655625,6.03206625 L4.45670625,4.73839625 C4.55979425,4.69773225 4.64569185,4.62431945 4.70195233,4.53060457 L4.73839625,4.45670625 L6.03206625,1.17655625 Z" id="形状" fill="#1E2226" fill-rule="nonzero"></path>
    </g>
</svg>