<?xml version="1.0" encoding="UTF-8"?>
<svg width="16px" height="16px" viewBox="0 0 16 16" version="1.1" xmlns="http://www.w3.org/2000/svg" xmlns:xlink="http://www.w3.org/1999/xlink">
    <title>画板备份 10</title>
    <g id="画板备份-10" stroke="none" stroke-width="1" fill="none" fill-rule="evenodd">
        <path d="M7.999998,0.9 C11.921198,0.9 15.099998,4.078776 15.099998,7.999996 C15.099998,11.921176 11.921198,15.0999913 7.999998,15.0999913 C7.02798911,15.0999913 6.10047998,14.9043446 5.25564936,14.5500155 L4.942788,14.409776 L2.668648,15.075776 C2.465878,15.135176 2.246828,15.083576 2.091938,14.939876 C1.96285467,14.820126 1.894188,14.6511399 1.90037087,14.4785774 L1.913178,14.374976 L2.354118,12.305676 C1.442108,11.111376 0.9,9.618326 0.9,7.999996 C0.9,4.078776 4.078778,0.9 7.999998,0.9 Z M4.599988,7.100016 C4.102928,7.100016 3.699988,7.502956 3.699988,8.000016 C3.699988,8.497066 4.102928,8.900016 4.599988,8.900016 C5.097048,8.900016 5.499988,8.497066 5.499988,8.000016 C5.499988,7.502956 5.097048,7.100016 4.599988,7.100016 Z M7.999988,7.100016 C7.502928,7.100016 7.099988,7.502956 7.099988,8.000016 C7.099988,8.497066 7.502928,8.900016 7.999988,8.900016 C8.497048,8.900016 8.899988,8.497066 8.899988,8.000016 C8.899988,7.502956 8.497048,7.100016 7.999988,7.100016 Z M11.399998,7.100016 C10.902998,7.100016 10.499998,7.502956 10.499998,8.000016 C10.499998,8.497066 10.902998,8.900016 11.399998,8.900016 C11.897098,8.900016 12.299998,8.497066 12.299998,8.000016 C12.299998,7.502956 11.897098,7.100016 11.399998,7.100016 Z" id="形状" fill="#1E2226" fill-rule="nonzero"></path>
    </g>
</svg>