<svg width="16" height="16" viewBox="0 0 16 16" fill="none" xmlns="http://www.w3.org/2000/svg">
<path d="M3.9999 1.9H3.4999C2.61625 1.9 1.8999 2.61634 1.8999 3.5V13.5C1.8999 14.3837 2.61625 15.1 3.4999 15.1H12.4999C13.3836 15.1 14.0999 14.3837 14.0999 13.5V3.5C14.0999 2.61634 13.3836 1.9 12.4999 1.9H11.9999V2.5C11.9999 3.32843 11.3283 4 10.4999 4H5.4999C4.67147 4 3.9999 3.32843 3.9999 2.5V1.9ZM4.9999 1.5C4.9999 1.22386 5.22376 1 5.4999 1H10.4999C10.776 1 10.9999 1.22386 10.9999 1.5V2.5C10.9999 2.77614 10.776 3 10.4999 3H5.4999C5.22376 3 4.9999 2.77614 4.9999 2.5V1.5ZM4.9999 7.1V5.9H10.9999V7.1H4.9999ZM4.9999 10.1V8.9H9.9999V10.1H4.9999Z" fill="#1E2226"/>
</svg>
