<svg width="16" height="16" viewBox="0 0 16 16" fill="none" xmlns="http://www.w3.org/2000/svg">
<path d="M7.9999 1.15002C6.01168 1.15002 4.3999 2.7618 4.3999 4.75002C4.3999 6.73825 6.01168 8.35002 7.9999 8.35002C9.98813 8.35002 11.5999 6.73825 11.5999 4.75002C11.5999 2.7618 9.98813 1.15002 7.9999 1.15002ZM5.4999 9.15002C3.51168 9.15002 1.8999 10.7618 1.8999 12.75V13.25C1.8999 14.1337 2.61625 14.85 3.4999 14.85L12.4999 14.85C13.3836 14.85 14.0999 14.1337 14.0999 13.25V12.75C14.0999 10.7618 12.4881 9.15002 10.4999 9.15002H5.4999ZM11.2499 12.6H9.2499V11.4H11.2499V12.6Z" fill="#1E2226"/>
</svg>
