<svg width="16" height="16" viewBox="0 0 16 16" fill="none" xmlns="http://www.w3.org/2000/svg">
<path d="M4.67786 1.42924C4.24828 0.999662 3.5518 0.999661 3.12223 1.42924L1.95838 2.59309C1.20661 3.34485 0.98828 4.47857 1.40708 5.45576L1.53458 5.75327C3.21366 9.67111 6.33548 12.7929 10.2533 14.472L10.5508 14.5995C11.528 15.0183 12.6617 14.8 13.4135 14.0482L14.5774 12.8844C15.0069 12.4548 15.0069 11.7583 14.5774 11.3287L12.456 9.20741C12.0265 8.77784 11.33 8.77784 10.9004 9.20741L10.1219 9.98596C8.28308 9.19036 6.81623 7.72351 6.02063 5.88474L6.79918 5.10619C7.22876 4.67662 7.22876 3.98014 6.79918 3.55056L4.67786 1.42924Z" fill="#1E2226"/>
</svg>
