<svg width="16" height="16" viewBox="0 0 16 16" fill="none" xmlns="http://www.w3.org/2000/svg">
<path d="M14.3499 7.75002V3.00002C14.3499 2.57082 13.9526 2.41711 13.61 2.2846C13.5776 2.27207 13.5457 2.25972 13.5147 2.24735C12.5925 1.87983 10.4686 1.15002 7.9999 1.15002C5.93841 1.15002 3.85621 1.56907 1.99103 2.45874C1.78258 2.55844 1.6499 2.76896 1.6499 3.00002V7.75002C1.6499 11.2023 4.52203 13.6606 7.55259 14.7335C7.84361 14.8366 7.93001 14.8846 8.01482 14.8819C8.09758 14.8794 8.17883 14.8285 8.44722 14.7335C11.4778 13.6606 14.3499 11.2023 14.3499 7.75002ZM7.67409 9.92427C7.43978 10.1586 7.05988 10.1586 6.82556 9.92427L4.32556 7.42427L5.17409 6.57574L7.24983 8.65148L10.8256 5.07574L11.6741 5.92427L7.67409 9.92427Z" fill="#1E2226"/>
</svg>
