<svg width="16" height="16" viewBox="0 0 16 16" fill="none" xmlns="http://www.w3.org/2000/svg">
<path d="M13.6279 12.0859C13.3207 12.1227 12.4323 10.6953 12.4323 10.6953C12.4323 11.5218 12.0022 12.6003 11.0717 13.3791C11.5205 13.516 12.5333 13.8845 12.2924 14.2867C12.0974 14.6121 8.94733 14.4945 8.03792 14.3931C7.1285 14.4945 3.97842 14.6121 3.78343 14.2867C3.54237 13.8846 4.55415 13.5164 5.00363 13.3793C4.07295 12.6004 3.64282 11.5218 3.64282 10.6953C3.64282 10.6953 2.7544 12.1227 2.44724 12.0859C2.30412 12.0688 2.11612 11.3043 2.69636 9.45703C2.96983 8.58628 3.28256 7.86239 3.76627 6.66794C3.68485 3.58564 4.9721 1.00016 8.03754 1C11.0688 1.00016 12.386 3.53475 12.3089 6.66796C12.7918 7.86036 13.1061 8.58881 13.3788 9.45703C13.9589 11.3043 13.771 12.0688 13.6279 12.0859Z" fill="#1E2226"/>
</svg>
