<?xml version="1.0" encoding="UTF-8"?>
<svg width="16px" height="16px" viewBox="0 0 16 16" version="1.1" xmlns="http://www.w3.org/2000/svg" xmlns:xlink="http://www.w3.org/1999/xlink">
    <title>画板</title>
    <g id="画板" stroke="none" stroke-width="1" fill="none" fill-rule="evenodd">
        <path d="M7.999996,0.9 C11.921176,0.9 15.099976,4.078776 15.099976,7.999996 C15.099976,11.921176 11.921176,15.099976 7.999996,15.099976 C4.078776,15.099976 0.9,11.921176 0.9,7.999996 C0.9,4.078776 4.078776,0.9 7.999996,0.9 Z M8.499998,10.9 L7.299998,10.9 L7.299998,11.9 L8.499998,11.9 L8.499998,10.9 Z M7.899998,3.8 C7.010248,3.8 6.288758,4.10021 5.788238,4.60074 C5.293358,5.09561 5.049998,5.75158 5.049998,6.4 L5.049998,6.4 L6.249998,6.4 C6.249998,6.04842 6.381638,5.70439 6.636768,5.44926 C6.886238,5.19979 7.289748,5 7.899998,5 C8.510248,5 8.913758,5.19979 9.163238,5.44926 C9.418358,5.70439 9.549998,6.04842 9.549998,6.4 C9.549998,6.68928 9.463868,6.86525 9.341448,7.00915 C9.197758,7.17804 8.993538,7.31705 8.702518,7.50253 L8.702518,7.50253 L8.5359413,7.6081979 L8.33380126,7.74197153 C7.84884547,8.07752398 7.299998,8.58854529 7.299998,9.51803 L7.299998,9.51803 L7.299998,9.9 L8.499998,9.9 L8.499998,9.51803 C8.499998,9.08193 8.737548,8.90321 9.347478,8.51448 L9.49267578,8.42124458 C9.73849522,8.26112861 10.0245647,8.05811333 10.255398,7.78673 C10.554898,7.43475 10.749998,6.98572 10.749998,6.4 C10.749998,5.75158 10.506598,5.09561 10.011798,4.60074 C9.511248,4.10021 8.789748,3.8 7.899998,3.8 Z" id="形状结合" fill="#1E2226"></path>
    </g>
</svg>