<svg width="16" height="16" viewBox="0 0 16 16" fill="none" xmlns="http://www.w3.org/2000/svg">
<path d="M1.8999 2.50002C1.8999 1.61637 2.61625 0.900024 3.4999 0.900024H12.4999C13.3836 0.900024 14.0999 1.61637 14.0999 2.50002V4.26185L13.7827 4.56886C13.1614 5.17003 12.0609 5.81383 10.4595 6.15491C10.1087 5.13384 9.14 4.40002 7.9999 4.40002C6.85981 4.40002 5.8911 5.13383 5.54034 6.15491C3.93892 5.81382 2.83837 5.17003 2.21716 4.56886L1.8999 4.26184V2.50002ZM7.9999 9.60002C6.68471 9.60002 5.5976 8.62351 5.42407 7.35598C3.90988 7.05251 2.73101 6.49746 1.8999 5.87139V13.5C1.8999 14.3837 2.61625 15.1 3.4999 15.1H12.4999C13.3836 15.1 14.0999 14.3837 14.0999 13.5V5.8714C13.2688 6.49746 12.0899 7.05251 10.5757 7.35598C10.4022 8.62351 9.31509 9.60002 7.9999 9.60002ZM7.9999 5.50002C7.17148 5.50002 6.4999 6.1716 6.4999 7.00002C6.4999 7.82845 7.17148 8.50002 7.9999 8.50002C8.82833 8.50002 9.4999 7.82845 9.4999 7.00002C9.4999 6.1716 8.82833 5.50002 7.9999 5.50002Z" fill="#1E2226"/>
</svg>
