<svg width="16" height="16" viewBox="0 0 16 16" fill="none" xmlns="http://www.w3.org/2000/svg">
<path d="M2.6499 6.50002C2.6499 3.5453 5.04518 1.15002 7.9999 1.15002C10.9546 1.15002 13.3499 3.5453 13.3499 6.50002V9.34069L14.2708 10.9523C14.377 11.138 14.3762 11.3662 14.2688 11.5512C14.2217 11.6324 14.1572 11.6999 14.0816 11.75H1.91824C1.84259 11.6999 1.77807 11.6324 1.73096 11.5512C1.6236 11.3662 1.62284 11.138 1.72896 10.9523L2.6499 9.34069V6.50002ZM5.44793 12.75C5.68105 13.9467 6.73499 14.85 7.9999 14.85C9.26482 14.85 10.3188 13.9467 10.5519 12.75H5.44793Z" fill="#1E2226"/>
</svg>
