<svg width="16" height="16" viewBox="0 0 16 16" fill="none" xmlns="http://www.w3.org/2000/svg">
<path d="M12.3076 13.8062L15.2243 8.80622C15.5149 8.30804 15.5149 7.69201 15.2243 7.19383L12.3076 2.19383C12.0209 1.70228 11.4946 1.40002 10.9255 1.40002H5.07428C4.50522 1.40002 3.97897 1.70228 3.69224 2.19383L0.775571 7.19383C0.484966 7.69201 0.484966 8.30804 0.775571 8.80622L3.69224 13.8062C3.97897 14.2978 4.50522 14.6 5.07428 14.6H10.9255C11.4946 14.6 12.0209 14.2978 12.3076 13.8062ZM10.4999 8.00002C10.4999 9.38074 9.38064 10.5 7.99993 10.5C6.61921 10.5 5.49993 9.38074 5.49993 8.00002C5.49993 6.61931 6.61921 5.50002 7.99993 5.50002C9.38064 5.50002 10.4999 6.61931 10.4999 8.00002Z" fill="#1E2226"/>
</svg>
