<svg width="16" height="16" viewBox="0 0 16 16" fill="none" xmlns="http://www.w3.org/2000/svg">
<path d="M6.70735 1.5229C6.59942 1.31126 6.35746 1.20479 6.1285 1.26819C5.02821 1.57288 3.83453 2.26822 3.02817 3.01826C2.86648 3.16866 2.8226 3.40732 2.92022 3.6054C2.9771 3.72082 3.07147 3.93191 3.15037 4.14735C3.23782 4.38616 3.275 4.54863 3.275 4.60354C3.275 4.99628 3.11897 5.28467 2.87615 5.48271C2.62385 5.68847 2.25017 5.8168 1.80477 5.81043C1.58372 5.80728 1.38683 5.94967 1.3206 6.16059C1.11996 6.79955 1 7.26566 1 8.01725C1 8.49312 1.00056 9.12309 1.46909 9.96681C1.56583 10.141 1.7568 10.2412 1.95512 10.2217C2.442 10.1738 2.76344 10.2698 2.95366 10.42C3.13087 10.56 3.275 10.8109 3.275 11.2684C3.275 11.6251 3.14698 11.9505 2.93386 12.2032C2.76878 12.3989 2.77822 12.6877 2.95573 12.8722C3.78188 13.731 4.82579 14.3797 5.99952 14.7293C6.26046 14.807 6.53563 14.6616 6.61851 14.4023C6.80561 13.8168 7.35418 13.3939 8 13.3939C8.64582 13.3939 9.19439 13.8168 9.38149 14.4023C9.46437 14.6616 9.73954 14.807 10.0005 14.7293C11.1742 14.3797 12.2181 13.731 13.0443 12.8722C13.2218 12.6877 13.2312 12.3989 13.0661 12.2032C12.853 11.9505 12.725 11.6251 12.725 11.2684C12.725 10.8109 12.8691 10.5599 13.0463 10.42C13.2365 10.2698 13.5579 10.1738 14.0448 10.2217C14.2431 10.2412 14.4341 10.141 14.5308 9.96685C14.9994 9.12312 15 8.49313 15 8.01725C15 7.26566 14.88 6.79954 14.6794 6.1606C14.6132 5.94967 14.4163 5.80728 14.1952 5.81043C13.7498 5.8168 13.3762 5.68847 13.1239 5.48271C12.881 5.28467 12.725 4.99627 12.725 4.60354C12.725 4.5486 12.7622 4.38612 12.8496 4.14731C12.9285 3.93187 13.0228 3.72079 13.0797 3.6054C13.1773 3.40732 13.1334 3.16866 12.9717 3.01826C12.1654 2.26823 10.9718 1.57288 9.8715 1.26819C9.64254 1.20479 9.40058 1.31126 9.29265 1.5229C9.05217 1.99443 8.56307 2.31545 8 2.31545C7.43693 2.31545 6.94783 1.99443 6.70735 1.5229ZM5.75 8.00006C5.75 6.75742 6.75736 5.75006 8 5.75006C9.24264 5.75006 10.25 6.75742 10.25 8.00006C10.25 9.2427 9.24264 10.2501 8 10.2501C6.75736 10.2501 5.75 9.2427 5.75 8.00006Z" fill="#1E2226"/>
</svg>
