<svg width="16" height="16" viewBox="0 0 16 16" fill="none" xmlns="http://www.w3.org/2000/svg">
<path d="M7.9999 15.2C11.9211 15.2 15.0999 12.0212 15.0999 8.1C15.0999 4.17878 11.9211 1 7.9999 1C4.07868 1 0.899902 4.17878 0.899902 8.1C0.899902 12.0212 4.07868 15.2 7.9999 15.2ZM9.22913 5.02559L11.9698 7.42371C12.1975 7.62292 12.1975 7.97708 11.9698 8.17629L9.22913 10.5744C8.90584 10.8573 8.39988 10.6277 8.39988 10.1981V9.23928C6.88234 8.92461 4.98722 9.42671 3.81127 10.1423C3.58641 10.2792 3.24738 10.0561 3.35458 9.81572C3.94879 8.48319 5.38919 6.27278 8.39988 6.30025V5.40188C8.39988 4.9723 8.90584 4.74271 9.22913 5.02559Z" fill="#1E2226"/>
</svg>
