<svg width="16" height="16" viewBox="0 0 16 16" fill="none" xmlns="http://www.w3.org/2000/svg">
<path d="M1.25 2.85002H1.92572C2.11719 2.85002 2.28181 2.98572 2.31836 3.17368L3.7537 10.5554C3.89989 11.3072 4.55838 11.85 5.32428 11.85H11.7533C12.4619 11.85 13.0861 11.384 13.2874 10.7046L14.6948 5.95456C14.9986 4.92912 14.2302 3.90002 13.1607 3.90002H3.68207L3.4963 2.94463C3.35011 2.19281 2.69162 1.65002 1.92572 1.65002H1.25V2.85002ZM5 13.25C5 13.8023 4.55228 14.25 4 14.25C3.44772 14.25 3 13.8023 3 13.25C3 12.6977 3.44772 12.25 4 12.25C4.55228 12.25 5 12.6977 5 13.25ZM13.5 13.25C13.5 13.8023 13.0523 14.25 12.5 14.25C11.9477 14.25 11.5 13.8023 11.5 13.25C11.5 12.6977 11.9477 12.25 12.5 12.25C13.0523 12.25 13.5 12.6977 13.5 13.25Z" fill="#1E2226"/>
</svg>
