<svg width="16" height="16" viewBox="0 0 16 16" fill="none" xmlns="http://www.w3.org/2000/svg">
<path d="M3.5 1.5C2.39543 1.5 1.5 2.39543 1.5 3.5V12.5C1.5 13.6046 2.39543 14.5 3.5 14.5H12.5C13.6046 14.5 14.5 13.6046 14.5 12.5V3.5C14.5 2.39543 13.6046 1.5 12.5 1.5H3.5ZM7.02047 3.5C7.81531 3.5 8.50809 3.93884 8.87174 4.58845C9.19288 4.29684 9.61884 4.11943 10.0861 4.11943C11.0879 4.11943 11.9 4.93511 11.9 5.9413C11.9 6.94748 11.0879 7.76316 10.0861 7.76316C9.48804 7.76316 8.95761 7.47251 8.62717 7.0242C8.2383 7.47665 7.6627 7.76316 7.02047 7.76316C5.84834 7.76316 4.89815 6.80882 4.89815 5.63158C4.89815 4.45434 5.84834 3.5 7.02047 3.5ZM7.02047 4.59312C6.44943 4.59312 5.98652 5.05805 5.98652 5.63158C5.98652 6.20511 6.44943 6.67004 7.02047 6.67004C7.59151 6.67004 8.05442 6.20511 8.05442 5.63158C8.05442 5.05805 7.59151 4.59312 7.02047 4.59312ZM10.0861 5.21255C9.68532 5.21255 9.36047 5.53882 9.36047 5.9413C9.36047 6.34377 9.68532 6.67004 10.0861 6.67004C10.4868 6.67004 10.8116 6.34377 10.8116 5.9413C10.8116 5.53882 10.4868 5.21255 10.0861 5.21255ZM10.2674 8.05466C11.1691 8.05466 11.9 8.78876 11.9 9.69433V10.8603C11.9 11.7659 11.1691 12.5 10.2674 12.5H8.12698C7.436 12.5 6.84529 12.0689 6.60698 11.4598L5.15008 12.1913C5.04933 12.2419 4.93823 12.2682 4.82559 12.2682C4.5148 12.2682 4.24964 12.072 4.14628 11.7961C4.12243 11.7325 4.10719 11.6646 4.102 11.5939L4.10001 9.07609C4.10001 8.99448 4.11365 8.91366 4.14019 8.83695C4.1497 8.80944 4.16088 8.78245 4.17367 8.75615C4.21556 8.67005 4.27211 8.59596 4.33881 8.53541C4.53894 8.35378 4.83053 8.29412 5.09223 8.3983L6.59295 9.13203C6.82143 8.50342 7.42203 8.05466 8.12698 8.05466H10.2674ZM10.3199 9.15028L8.12698 9.14777C7.84412 9.14777 7.61166 9.36453 7.58529 9.6417L7.5828 9.69433V10.8603C7.5828 11.1444 7.79862 11.3779 8.07457 11.4044L10.2674 11.4069C10.5503 11.4069 10.7828 11.1901 10.8091 10.913C10.8289 10.5074 10.8234 10.1001 10.8116 9.69433C10.8116 9.41023 10.5958 9.17676 10.3199 9.15028ZM5.00001 9.45379C5.00001 9.40606 5.04965 9.3747 5.09239 9.39597C5.38363 9.54089 6.27214 9.98297 6.42187 10.0571V10.5393C6.27234 10.6151 5.38582 11.0773 5.09347 11.2298C5.05067 11.2521 5.00001 11.2208 5.00001 11.1725V9.45379Z" fill="#1E2226"/>
</svg>
