<?xml version="1.0" encoding="UTF-8"?>
<svg width="40px" height="40px" viewBox="0 0 40 40" version="1.1" xmlns="http://www.w3.org/2000/svg" xmlns:xlink="http://www.w3.org/1999/xlink">
    <title>8.1 BackTop返回顶部/方形</title>
    <g id="--------🎈8.2-BackTop/-返回顶部" stroke="none" stroke-width="1" fill="none" fill-rule="evenodd">
        <g id="8.2-BackTop/-返回顶部" transform="translate(-220.000000, -404.000000)">
            <g id="编组" transform="translate(220.000000, 404.000000)">
                <path d="M2,0 L38,0 C39.1045695,-2.02906125e-16 40,0.8954305 40,2 L40,38 C40,39.1045695 39.1045695,40 38,40 L2,40 C0.8954305,40 1.3527075e-16,39.1045695 0,38 L0,2 C-1.3527075e-16,0.8954305 0.8954305,2.02906125e-16 2,0 Z" id="Rectangle" fill="#000000" opacity="0.45"></path>
                <path d="M19.5287891,24.8060137 C19.7795469,25.0502733 20.1861875,25.0503189 20.4369922,24.8060137 L26.7886016,18.6193622 C27.2905625,18.13041 27.1215781,17.7343964 26.4115859,17.7343964 L22.5542656,17.7343964 L22.5542656,11.2498861 C22.5542656,10.5594761 21.9788281,10 21.269,10 L18.6967578,10 C17.9870234,10 17.4114453,10.5595672 17.4114453,11.2498405 L17.4114453,17.7343964 L13.5542187,17.7343964 C12.8441328,17.7343964 12.6753828,18.1306378 13.1771797,18.6193622 L19.5288125,24.8060364 L19.5287891,24.8060137 Z M27.7145234,27.5 L12.2854766,27.5 C11.5759531,27.5 11,28.0596583 11,28.75 C11,29.4405011 11.5755078,30 12.2854766,30 L27.7145234,30 C28.424,30 29,29.4403417 29,28.75 C29,28.0594989 28.4244922,27.5 27.7145234,27.5 Z" id="Shape" fill="#FFFFFF" transform="translate(20.000000, 20.000000) scale(1, -1) translate(-20.000000, -20.000000) "></path>
            </g>
        </g>
    </g>
</svg>