<svg width="16" height="16" viewBox="0 0 16 16" fill="none" xmlns="http://www.w3.org/2000/svg">
<path d="M8.34052 1.25C7.96452 1.25 7.61197 1.43268 7.39515 1.73985L4.59152 5.71166C4.53197 5.79602 4.5 5.89674 4.5 6V14C4.5 14.2761 4.72386 14.5 5 14.5H11.3401C12.5432 14.5 13.5756 13.6432 13.7973 12.4607L14.5473 8.46072C14.8358 6.92219 13.6555 5.5 12.0901 5.5H9.6313L10.1066 3.47989C10.3746 2.34102 9.51049 1.25 8.34052 1.25ZM2.5 5.5C1.94772 5.5 1.5 5.94771 1.5 6.5V13.5C1.5 14.0523 1.94772 14.5 2.5 14.5H3C3.27614 14.5 3.5 14.2761 3.5 14V6C3.5 5.72386 3.27614 5.5 3 5.5H2.5Z" fill="#1E2226"/>
</svg>
