<svg width="16" height="16" viewBox="0 0 16 16" fill="none" xmlns="http://www.w3.org/2000/svg">
<path fill-rule="evenodd" clip-rule="evenodd" d="M13.3579 4.25958C11.8102 3.93129 10.7314 2.57116 10.708 1H8.31607V10.638C8.26917 11.7402 7.35461 12.6078 6.25246 12.5844C5.1503 12.5609 4.28264 11.6464 4.28264 10.5442C4.30611 9.44206 5.1972 8.55098 6.29935 8.55098C6.51042 8.55098 6.69802 8.5744 6.88562 8.64478V6.1825C6.69802 6.15902 6.48695 6.15902 6.29935 6.15902H6.20556C3.76675 6.2294 1.84383 8.22268 1.89073 10.6615C1.93763 13.1003 3.93087 15.0232 6.36973 14.9998C8.80853 14.9763 10.7549 12.9831 10.7549 10.5677V5.6666C11.7398 6.37009 12.8889 6.74529 14.1083 6.74529V4.32991C13.8269 4.32991 13.5924 4.30648 13.3579 4.25958Z" fill="#1E2226"/>
</svg>
