<svg width="16" height="16" viewBox="0 0 16 16" fill="none" xmlns="http://www.w3.org/2000/svg">
<path d="M2.4999 1.90002C1.61625 1.90002 0.899902 2.61637 0.899902 3.50002V12.5C0.899902 13.3837 1.61625 14.1 2.4999 14.1H13.4999C14.3836 14.1 15.0999 13.3837 15.0999 12.5V3.50002C15.0999 2.61637 14.3836 1.90002 13.4999 1.90002H2.4999ZM9.4999 7.10002V5.90002H12.4999V7.10002H9.4999ZM9.4999 10.1V8.90002H12.4999V10.1H9.4999ZM5.79269 5.00066C6.58177 5.02391 7.23929 5.68274 7.26281 6.49516L7.26338 6.53661V7.12198C7.26338 7.66181 6.99094 8.19198 6.57058 8.47656L6.54928 8.49195C6.33636 8.65611 6.34477 8.97459 6.56948 9.07951L8.11425 9.80814C8.37414 9.93715 8.52656 10.171 8.49604 10.456C8.46557 10.7406 8.24354 10.9775 7.96264 10.999L7.93129 11H3.56851C3.27905 11 3.03582 10.7555 3.00376 10.456C2.97325 10.171 3.12566 9.93715 3.3893 9.80632L4.93106 9.07917C5.16227 8.97121 5.16374 8.63534 4.92919 8.47656C4.50472 8.1892 4.23642 7.67191 4.23642 7.12198V6.53661C4.23642 5.69248 4.92748 5.00002 5.74989 5.00002L5.79269 5.00066Z" fill="#1E2226"/>
</svg>
