<svg width="16" height="16" viewBox="0 0 16 16" fill="none" xmlns="http://www.w3.org/2000/svg">
<path d="M7.99992 0.900024C5.59748 0.900024 3.64992 2.84759 3.64992 5.25002V7.25002C3.64992 9.65246 5.59748 11.6 7.99992 11.6C10.4024 11.6 12.3499 9.65246 12.3499 7.25002V5.25002C12.3499 2.84759 10.4024 0.900024 7.99992 0.900024ZM1.85156 9.90381C1.89799 10.0225 1.94774 10.1394 2.0007 10.2546C2.96459 12.3507 4.99593 13.8564 7.39995 14.0731L7.39992 15L8.59992 15L8.59995 14.0731C11.0057 13.8563 13.0383 12.3486 14.0013 10.2501C14.0532 10.1371 14.1019 10.0224 14.1475 9.90613L13.0301 9.46849C12.9929 9.56351 12.9531 9.65722 12.9107 9.74955C12.0569 11.61 10.1785 12.9 7.99997 12.9C5.82293 12.9 3.94554 11.6117 3.09095 9.75327C3.04766 9.65913 3.00701 9.56354 2.96908 9.4666L1.85156 9.90381Z" fill="#1E2226"/>
</svg>
