<svg width="16" height="16" viewBox="0 0 16 16" fill="none" xmlns="http://www.w3.org/2000/svg">
<path d="M8.5999 2.70706C8.5999 1.72707 7.41505 1.23628 6.72208 1.92925L3.75137 4.89996H2.4999C1.61625 4.89996 0.899902 5.6163 0.899902 6.49996V9.49996C0.899902 10.3836 1.61625 11.1 2.4999 11.1H3.75137L6.72209 14.0707C7.41505 14.7636 8.5999 14.2728 8.5999 13.2929V2.70706ZM15.0956 8.0034C15.0956 6.05004 14.3059 4.27995 13.0299 2.99686L12.179 3.84305C13.2406 4.91046 13.8956 6.37986 13.8956 8.0034C13.8956 9.63364 13.2352 11.1085 12.1658 12.177L13.014 13.0258C14.2994 11.7415 15.0956 9.96486 15.0956 8.0034ZM12.0981 7.99789C12.0981 6.86404 11.637 5.83674 10.8936 5.09517L10.0461 5.94474C10.5731 6.4704 10.8981 7.19563 10.8981 7.99789C10.8981 8.79602 10.5764 9.51788 10.0543 10.0429L10.9051 10.8891C11.6418 10.1484 12.0981 9.12586 12.0981 7.99789Z" fill="#1E2226"/>
</svg>
