<svg width="16" height="16" viewBox="0 0 16 16" fill="none" xmlns="http://www.w3.org/2000/svg">
<path d="M8.5999 2.70706C8.5999 1.72707 7.41505 1.23628 6.72208 1.92925L3.75137 4.89996H2.4999C1.61625 4.89996 0.899902 5.6163 0.899902 6.49996V9.49996C0.899902 10.3836 1.61625 11.1 2.4999 11.1H3.75137L6.72209 14.0707C7.41505 14.7636 8.5999 14.2728 8.5999 13.2929V2.70706ZM9.07564 5.92422L11.1514 7.99996L9.07564 10.0757L9.92417 10.9242L11.9999 8.84848L14.0756 10.9242L14.9242 10.0757L12.8484 7.99996L14.9242 5.92422L14.0756 5.07569L11.9999 7.15143L9.92417 5.07569L9.07564 5.92422Z" fill="#1E2226"/>
</svg>
