<svg width="16" height="16" viewBox="0 0 16 16" fill="none" xmlns="http://www.w3.org/2000/svg">
<path d="M2.4999 1.90002C1.61625 1.90002 0.899902 2.61637 0.899902 3.50002V12.5C0.899902 13.3837 1.61625 14.1 2.4999 14.1H13.4999C14.3836 14.1 15.0999 13.3837 15.0999 12.5V3.50002C15.0999 2.61637 14.3836 1.90002 13.4999 1.90002H2.4999ZM13.8999 10.6H10.9999C9.56396 10.6 8.3999 9.43597 8.3999 8.00002C8.3999 6.56408 9.56396 5.40002 10.9999 5.40002H13.8999V6.60002H10.9999C10.2267 6.60002 9.5999 7.22683 9.5999 8.00002C9.5999 8.77322 10.2267 9.40002 10.9999 9.40002H13.8999V10.6Z" fill="#1E2226"/>
</svg>
