<svg width="16" height="16" viewBox="0 0 16 16" fill="none" xmlns="http://www.w3.org/2000/svg">
<path d="M8 15C11.866 15 15 11.866 15 8C15 4.13401 11.866 1 8 1C4.13401 1 1 4.13401 1 8C1 11.866 4.13401 15 8 15ZM11 8.12081C10.63 8.36804 10.195 8.5 9.75 8.5C9.47386 8.5 9.25 8.27614 9.25 8C9.25 7.72386 9.47386 7.5 9.75 7.5C9.99698 7.5 10.2384 7.42551 10.4438 7.2883C10.6491 7.15108 10.8092 6.95606 10.9037 6.72788C10.9982 6.4997 11.0229 6.24862 10.9748 6.00638C10.9266 5.76415 10.8076 5.54164 10.633 5.367C10.4584 5.19236 10.2359 5.07343 9.99362 5.02525C9.75139 4.97706 9.50031 5.00179 9.27213 5.09631C9.04395 5.19082 8.84892 5.35088 8.7117 5.55623C8.57449 5.76159 8.50125 6.00302 8.50125 6.25L8.5 9.75C8.5 10.195 8.36804 10.63 8.12081 11C7.87357 11.37 7.52217 11.6584 7.11104 11.8287C6.69991 11.999 6.24751 12.0436 5.81105 11.9568C5.37459 11.87 4.97368 11.6557 4.65901 11.341C4.34434 11.0263 4.13005 10.6254 4.04323 10.189C3.95642 9.7525 4.00097 9.3001 4.17127 8.88896C4.34157 8.47783 4.62996 8.12643 4.99997 7.87919C5.36998 7.63196 5.80499 7.5 6.25 7.5C6.52614 7.5 6.75 7.72386 6.75 8C6.75 8.27614 6.52614 8.5 6.25 8.5C6.00302 8.5 5.76159 8.57449 5.55623 8.7117C5.35088 8.84892 5.19082 9.04395 5.09631 9.27213C5.00179 9.5003 4.97706 9.75139 5.02525 9.99362C5.07343 10.2359 5.19236 10.4584 5.367 10.633C5.54164 10.8076 5.76415 10.9266 6.00638 10.9748C6.24862 11.0229 6.4997 10.9982 6.72788 10.9037C6.95606 10.8092 7.15108 10.6491 7.2883 10.4438C7.42551 10.2384 7.49875 9.99698 7.49875 9.75L7.5 6.25C7.5 5.80499 7.63196 5.36998 7.87919 4.99997C8.12643 4.62996 8.47783 4.34157 8.88896 4.17127C9.3001 4.00097 9.7525 3.95642 10.189 4.04323C10.6254 4.13005 11.0263 4.34434 11.341 4.65901C11.6557 4.97368 11.87 5.37459 11.9568 5.81105C12.0436 6.24751 11.999 6.69991 11.8287 7.11104C11.6584 7.52217 11.37 7.87357 11 8.12081Z" fill="#1E2226"/>
</svg>
