<svg width="16" height="16" viewBox="0 0 16 16" fill="none" xmlns="http://www.w3.org/2000/svg">
<path d="M6.81053 10.5136C6.81053 10.1651 7.18964 9.9489 7.48977 10.1264L11.8949 12.7336C12.1761 12.8999 12.1907 13.2997 11.9252 13.49C10.8192 14.2827 9.46451 14.75 8.00005 14.75C7.73254 14.75 7.46885 14.7336 7.20944 14.7028C6.98207 14.6758 6.81076 14.4831 6.81053 14.2541V10.5136ZM5.25157 8.09452C5.55126 7.93725 5.91057 8.15459 5.91057 8.49298V13.7648C5.91057 14.0939 5.57128 14.3068 5.27047 14.1736C3.62687 13.4448 2.34063 12.0921 1.69538 10.414C1.61201 10.1994 1.70255 9.95646 1.90597 9.84878L5.25157 8.09452ZM14.0748 7.17858C14.3632 7.02716 14.712 7.22268 14.7342 7.54757C14.8466 9.17935 14.3595 10.796 13.3645 12.0942C13.2255 12.2762 12.9724 12.3256 12.7752 12.2092L9.57296 10.3138C9.26967 10.1345 9.28115 9.69174 9.59321 9.52817L14.0748 7.17858ZM2.63989 3.90068C2.77898 3.71898 3.03187 3.66981 3.22891 3.78615L6.4339 5.68306C6.73718 5.86238 6.72571 6.30516 6.41365 6.46873L1.92532 8.82214C1.63688 8.97356 1.28815 8.77805 1.26587 8.45316C1.15334 6.81887 1.642 5.19981 2.63989 3.90068ZM10.0965 2.23889C10.0965 1.90972 10.4362 1.69666 10.7371 1.8303C12.3774 2.55986 13.6608 3.91107 14.3049 5.58676C14.3883 5.8013 14.2978 6.04427 14.0944 6.15194L10.7555 7.9026C10.4558 8.05965 10.0965 7.8423 10.0965 7.50414V2.23889ZM4.08118 2.50618C5.44693 1.52766 7.12993 1.0968 8.79787 1.29865C9.02514 1.32575 9.19634 1.51839 9.19655 1.74728V5.48349C9.19655 5.832 8.81722 6.04822 8.51753 5.8707L4.11132 3.26282C3.82986 3.09633 3.81524 2.6963 4.08118 2.50618Z" fill="#1E2226"/>
</svg>
