<svg width="16" height="16" viewBox="0 0 16 16" fill="none" xmlns="http://www.w3.org/2000/svg">
<path d="M5.88419 9.64815C5.70536 9.64815 5.5595 9.5527 5.47791 9.40952L5.445 9.34647L4.16357 6.6067C4.14789 6.57439 4.14789 6.54364 4.14789 6.51133C4.14789 6.38357 4.24514 6.28812 4.37533 6.28812C4.42397 6.28812 4.47258 6.30352 4.52123 6.33583L6.03003 7.38711C6.14297 7.45016 6.27317 7.4979 6.41899 7.4979C6.50056 7.4979 6.58059 7.48248 6.66216 7.45016L13.7374 4.36106C12.4717 2.89577 10.3793 1.93994 8.00944 1.93994C4.14788 1.93994 1 4.50423 1 7.67186C1 9.39111 1.94108 10.9518 3.41702 12.0031C3.52989 12.0831 3.61147 12.2263 3.61147 12.3694C3.61147 12.4171 3.59577 12.4648 3.57856 12.5125C3.46566 12.942 3.26961 13.6438 3.26961 13.6747C3.25389 13.7223 3.23658 13.7855 3.23658 13.8501C3.23658 13.9778 3.33386 14.0733 3.46406 14.0733C3.51267 14.0733 3.56131 14.0579 3.59424 14.0255L5.11874 13.1498C5.2317 13.0866 5.36188 13.0389 5.49208 13.0389C5.55633 13.0389 5.63792 13.0543 5.70225 13.0712C6.41585 13.2775 7.19541 13.3899 7.99059 13.3899C11.8522 13.3899 15 10.8256 15 7.65796C15 6.70214 14.7083 5.79554 14.2048 4.99831L6.14297 9.5681L6.09436 9.60041C6.03003 9.63273 5.96416 9.64815 5.88419 9.64815Z" fill="#1E2226"/>
</svg>
