<svg width="16" height="16" viewBox="0 0 16 16" fill="none" xmlns="http://www.w3.org/2000/svg">
<path d="M11.1503 6.42878C13.5828 6.42878 15.75 8.19647 15.75 10.3669C15.75 11.5482 14.9951 12.5992 13.9642 13.4063L13.8527 13.4918L14.0392 14.1114C14.0635 14.1922 14.0543 14.2794 14.0138 14.3533C13.9378 14.4917 13.7729 14.5504 13.6291 14.4971L13.5868 14.4777L12.7761 14.0329C12.2346 14.1682 11.6902 14.305 11.1503 14.305C8.57357 14.305 6.54442 12.5404 6.54442 10.3669C6.54442 8.198 8.57357 6.42878 11.1503 6.42878ZM5.69361 2.18005C8.36993 2.18005 10.7148 3.80492 11.1865 5.99089C11.0139 5.9709 10.8397 5.95861 10.6624 5.95861C8.07702 5.95861 6.03432 7.88324 6.03432 10.2552C6.03432 10.6503 6.09598 11.03 6.20236 11.3928C6.03431 11.4066 5.86473 11.4143 5.69361 11.4143C5.24036 11.4143 4.84672 11.3528 4.43276 11.2722L3.78657 11.1422L2.85445 11.6084C2.74786 11.6618 2.62445 11.6705 2.51139 11.6328C2.29281 11.56 2.1675 11.3354 2.21354 11.1152L2.22725 11.0645L2.42837 10.4612C1.06554 9.51118 0.25 8.28754 0.25 6.79641C0.25 4.21383 2.70124 2.18005 5.69361 2.18005ZM9.7703 8.55315C9.42254 8.55315 9.14086 8.83482 9.14086 9.18259C9.14086 9.53036 9.42254 9.81203 9.7703 9.81203C10.1181 9.81203 10.3997 9.52878 10.3997 9.18259C10.3997 8.83482 10.1181 8.55315 9.7703 8.55315ZM12.7602 8.55315C12.4124 8.55315 12.1307 8.83482 12.1307 9.18259C12.1307 9.53036 12.4124 9.81203 12.7602 9.81203C13.1079 9.81203 13.3896 9.53036 13.3896 9.18259C13.3896 8.83482 13.1079 8.55315 12.7602 8.55315ZM3.90863 4.46178C3.49597 4.46178 3.16117 4.79658 3.16117 5.20924C3.16117 5.6219 3.49597 5.9567 3.90863 5.9567C4.32129 5.9567 4.65609 5.6219 4.65609 5.20924C4.65609 4.79658 4.32129 4.46178 3.90863 4.46178ZM7.68528 4.46178C7.27262 4.46178 6.93782 4.79658 6.93782 5.20924C6.93782 5.6219 7.27262 5.9567 7.68528 5.9567C8.09794 5.9567 8.43274 5.6219 8.43274 5.20924C8.43274 4.79658 8.09794 4.46178 7.68528 4.46178Z" fill="#1E2226"/>
</svg>
