<svg width="16" height="16" viewBox="0 0 16 16" fill="none" xmlns="http://www.w3.org/2000/svg">
<path d="M3.02929 5.83056C4.9122 4.08694 7.0773 3.33653 7.84108 4.14988C8.18478 4.51589 8.20377 5.10657 7.94034 5.84472C7.87122 6.02903 7.97255 6.06609 8.08375 6.05995L8.11166 6.05758L8.17089 6.04798L8.22376 6.03531L8.27874 6.01858L8.42151 5.96486C9.85274 5.43779 11.0968 5.46327 11.5349 6.12758C11.7599 6.48945 11.7421 7.00017 11.4841 7.58117C11.3911 7.75099 11.4506 7.82038 11.5659 7.87902L11.5987 7.89481L11.7092 7.94304C12.5303 8.24705 13.4578 8.90879 13.4194 10.0088C13.3453 12.1302 10.6657 14.0034 6.70963 13.8652C3.703 13.7603 0.668006 12.1989 0.751692 9.80244C0.795593 8.54528 1.6362 7.15861 3.02929 5.83056ZM10.8953 2.0425C13.2105 2.27716 15.0465 4.13333 15.2499 6.45758L15.25 6.49867C15.2416 6.62688 15.1546 6.88779 14.7663 6.88779C14.4066 6.88779 14.2934 6.69394 14.256 6.54747L14.2442 6.4883L14.2408 6.46221C14.0513 4.73181 12.7198 3.34485 11.0161 3.0712L10.8994 3.05428C10.7722 3.03781 10.3983 2.95658 10.3983 2.51978C10.3983 2.08298 10.7319 2.02594 10.8953 2.0425ZM11.015 4.07865C12.1144 4.24628 12.9892 5.09705 13.1927 6.18429L13.2124 6.30731L13.2149 6.35032L13.2119 6.4018C13.1966 6.51969 13.1162 6.66938 12.8007 6.66938C12.4667 6.66938 12.3802 6.52333 12.3466 6.40147L12.3342 6.34756L12.325 6.30081C12.184 5.64429 11.6742 5.12473 11.023 4.96966L10.9525 4.95453C10.8223 4.92413 10.6167 4.8451 10.6167 4.48538C10.6167 4.09711 10.8288 4.06209 10.9671 4.073L11.015 4.07865Z" fill="#1E2226"/>
</svg>
