<svg width="16" height="16" viewBox="0 0 16 16" fill="none" xmlns="http://www.w3.org/2000/svg">
<path d="M3.5 1.5C2.39543 1.5 1.5 2.39543 1.5 3.5V12.5C1.5 13.6046 2.39543 14.5 3.5 14.5H12.5C13.6046 14.5 14.5 13.6046 14.5 12.5V3.5C14.5 2.39543 13.6046 1.5 12.5 1.5H3.5ZM4.3745 5.87L4.37447 9.50762C4.30079 9.91329 4.12135 10.116 3.8361 10.1158C3.8361 10.1158 3.61302 10.1178 3.55164 10.116C3.23582 10.1192 3.06196 9.89682 3.03008 9.44867H3.55721V5.87H4.3745ZM3.0301 6.95811C3.04582 7.19049 3.02573 7.58462 2.96984 8.14054C2.91395 8.69644 2.73897 9.21309 2.44492 9.69048L2 8.87319C2.08336 8.60923 2.14129 8.30323 2.1738 7.95518C2.20629 7.60714 2.21284 7.27478 2.19344 6.95811H3.0301ZM5.76134 7.98741C5.79051 8.35612 5.84729 8.65138 5.9317 8.87319L5.4868 9.69048C5.19653 9.32145 5.01899 8.81499 4.95416 8.1711C4.92031 7.83486 4.9044 7.43053 4.90646 6.95811H5.73826C5.7245 7.2756 5.73219 7.6187 5.76134 7.98741ZM7.09378 6.96418C7.06466 7.02461 7.1077 7.05483 7.22293 7.05483L7.2713 6.9581H8.05473L7.37427 8.30376C7.35228 8.34799 7.38519 8.38735 7.41782 8.38735L7.89998 8.39442L7.53728 9.04728L6.5819 9.04153C6.44278 9.01596 6.3822 8.92588 6.38727 8.82374C6.39064 8.75565 6.42231 8.66959 6.48228 8.56556L6.90376 7.70769L6.31051 7.70247C6.16997 7.67807 6.13693 7.57694 6.14311 7.47301C6.14723 7.40373 6.16847 7.32483 6.20683 7.23631L6.88442 5.87H7.66785L7.09378 6.96418ZM10.0278 6.95811H9.51524V9.33745H10.2938V10.1209H7.54696L7.93384 9.33745H8.70761V6.95811H8.18532V6.12631H10.0278V6.95811ZM6.41739 9.30343L7.5518 9.30843L7.12139 10.1209L6.06331 10.1161C6.01077 10.116 5.96046 10.087 5.91237 10.029L6.3186 9.2504C6.35039 9.28575 6.38333 9.30343 6.41739 9.30343ZM11.8897 6.12631L12.278 6.12926C12.7151 6.16424 13.1133 6.47339 13.1131 7.01912L13.1133 7.57229L13.2809 7.57544C13.6546 7.60877 13.9536 7.90305 13.9976 8.27469L14 9.49986C13.9696 9.82254 13.7172 10.0772 13.4003 10.1158L13.0427 10.1178C12.6916 10.1199 12.4846 9.89198 12.4217 9.43417H13.181L13.1772 8.54047C13.1626 8.46723 13.1063 8.40856 13.0343 8.3905L11.8897 8.38475V10.1209H11.0918V8.38475H10.2938V7.57229H11.0918V6.93877H10.5888V6.12631H11.0918V5.87483H11.8897V6.12631ZM11.8897 7.57229V6.93877L12.1828 6.939C12.2364 6.94224 12.2826 6.9788 12.2965 7.03126L12.3008 7.57229H11.8897ZM13.9886 6.52287C13.9886 6.71866 13.8437 6.88313 13.6562 6.91416L13.1955 6.91942L13.1986 6.4734C13.2232 6.27878 13.3911 6.12631 13.592 6.12631C13.8096 6.12631 13.9886 6.30524 13.9886 6.52287Z" fill="#1E2226"/>
</svg>
