<svg width="16" height="16" viewBox="0 0 16 16" fill="none" xmlns="http://www.w3.org/2000/svg">
<path d="M8.80007 0.769047C8.30503 0.483234 7.69511 0.483234 7.20007 0.769047L2.13789 3.6917C1.64285 3.97751 1.33789 4.50571 1.33789 5.07734V10.9226C1.33789 11.4943 1.64285 12.0225 2.13789 12.3083L7.20007 15.2309C7.69511 15.5167 8.30503 15.5167 8.80007 15.2309L13.8622 12.3083C14.3573 12.0225 14.6622 11.4943 14.6622 10.9226V5.07734C14.6622 4.50571 14.3573 3.97751 13.8622 3.6917L8.80007 0.769047ZM7.80007 1.80828C7.92383 1.73682 8.07631 1.73682 8.20007 1.80828L13.2622 4.73093C13.386 4.80238 13.4622 4.93443 13.4622 5.07734V10.9226C13.4622 11.0655 13.386 11.1976 13.2622 11.269L8.20007 14.1917C8.07631 14.2632 7.92383 14.2632 7.80007 14.1917L2.73789 11.269C2.61413 11.1976 2.53789 11.0655 2.53789 10.9226V5.07734C2.53789 4.93443 2.61413 4.80238 2.73789 4.73093L7.80007 1.80828ZM4.17752 6.56435L7.35001 8.3772V12H8.65001V8.3772L11.8225 6.56435L11.1775 5.43563L8.00001 7.25135L4.8225 5.43563L4.17752 6.56435Z" fill="#1E2226"/>
</svg>
