<svg width="16" height="16" viewBox="0 0 16 16" fill="none" xmlns="http://www.w3.org/2000/svg">
<path d="M10.3512 2.33669C11.4935 1.19443 13.3455 1.19442 14.4878 2.3367L14.4878 2.33671C15.6301 3.47901 15.6301 5.33101 14.4878 6.47328L7.63769 13.3234C6.04144 14.9196 3.45337 14.9196 1.85711 13.3234C0.260845 11.7271 0.260845 9.13906 1.85711 7.5428L7.61121 1.7887L8.45974 2.63723L2.70564 8.39132L2.28614 7.97183L2.70564 8.39133C1.578 9.51896 1.578 11.3472 2.70564 12.4749C3.83327 13.6025 5.66154 13.6025 6.78917 12.4749L13.6393 5.62475C14.3129 4.95112 14.3129 3.8589 13.6393 3.18522C12.9656 2.51159 11.8734 2.51158 11.1997 3.18524L4.34968 10.0353L3.92542 9.61107L4.34968 10.0353C4.12999 10.255 4.13002 10.6112 4.34966 10.8308L4.3497 10.8308C4.56933 11.0505 4.92547 11.0505 5.14516 10.8308L10.8992 5.07675L11.7477 5.92528L5.99369 11.6793C5.3054 12.3676 4.18946 12.3677 3.50117 11.6794C2.81283 10.9911 2.81285 9.8751 3.50115 9.1868L10.3512 2.3367L10.3512 2.33669Z" fill="#1E2226"/>
</svg>
