<svg width="16" height="16" viewBox="0 0 16 16" fill="none" xmlns="http://www.w3.org/2000/svg">
<path d="M2.7499 1.64999C1.86625 1.64999 1.1499 2.36634 1.1499 3.24999V12.75C1.1499 13.6336 1.86625 14.35 2.7499 14.35H13.2499C14.1336 14.35 14.8499 13.6336 14.8499 12.75V3.24999C14.8499 2.36634 14.1336 1.64999 13.2499 1.64999H2.7499ZM2.3499 3.24999C2.3499 3.02908 2.52899 2.84999 2.7499 2.84999H13.2499C13.4708 2.84999 13.6499 3.02908 13.6499 3.24999V12.75C13.6499 12.9709 13.4708 13.15 13.2499 13.15H2.7499C2.52899 13.15 2.3499 12.9709 2.3499 12.75V3.24999ZM9.5999 4.49999V5.17888L10.8327 6.00076L10.1671 6.99922L9.5999 6.6211V9.99999C9.5999 11.2432 8.45767 12.1 7.2499 12.1C6.04214 12.1 4.8999 11.2432 4.8999 9.99999C4.8999 8.75676 6.04214 7.89999 7.2499 7.89999C7.65402 7.89999 8.05079 7.99591 8.3999 8.17013V5.49999V4.49999H9.5999ZM7.2499 9.09999C6.52467 9.09999 6.0999 9.58638 6.0999 9.99999C6.0999 10.4136 6.52467 10.9 7.2499 10.9C7.97513 10.9 8.3999 10.4136 8.3999 9.99999C8.3999 9.58638 7.97513 9.09999 7.2499 9.09999Z" fill="#1E2226"/>
</svg>
