<svg width="16" height="16" viewBox="0 0 16 16" fill="none" xmlns="http://www.w3.org/2000/svg">
<path d="M7.75201 0.953624C7.96639 0.856342 8.21786 0.893428 8.39504 1.04846L12.395 4.54846C12.5281 4.66491 12.6031 4.83414 12.5998 5.01096C12.5966 5.18777 12.5155 5.35416 12.3783 5.46567L9.25912 8L12.3783 10.5343C12.5155 10.6459 12.5966 10.8122 12.5998 10.9891C12.6031 11.1659 12.5281 11.3351 12.395 11.4515L8.39504 14.9515C8.21786 15.1066 7.96639 15.1437 7.75201 15.0464C7.53762 14.9491 7.39994 14.7354 7.39994 14.5V9.51059L4.37829 11.9657L3.62158 11.0343L7.35614 8L3.62158 4.96567L4.37829 4.03434L7.39994 6.48942V1.5C7.39994 1.26458 7.53762 1.05091 7.75201 0.953624ZM8.59994 9.01059V13.1777L11.0694 11.017L8.59994 9.01059ZM8.59994 6.98942L11.0694 4.98301L8.59994 2.82226V6.98942Z" fill="#1E2226"/>
</svg>
