<svg width="16" height="16" viewBox="0 0 16 16" fill="none" xmlns="http://www.w3.org/2000/svg">
<path d="M3.3999 1.40002L3.39993 14.6H9.04621C11.0176 14.6 12.5999 12.9794 12.5999 11C12.5999 9.50319 11.6951 8.21151 10.4013 7.67069C11.1366 7.01307 11.5999 6.06186 11.5999 5.00002C11.5999 3.00468 9.9639 1.40002 7.9618 1.40002H3.3999ZM4.59993 8.60002H9.04621C10.3374 8.60002 11.3999 9.66572 11.3999 11C11.3999 12.3343 10.3374 13.4 9.04621 13.4H4.59993V8.60002ZM7.96336 7.40002L4.5999 7.40002V2.60002H7.9618C9.31548 2.60002 10.3999 3.68166 10.3999 5.00002C10.3999 6.31787 9.31631 7.3992 7.96336 7.40002Z" fill="#1E2226"/>
</svg>
