<svg width="16" height="16" viewBox="0 0 16 16" fill="none" xmlns="http://www.w3.org/2000/svg">
<path d="M2.3999 2.99999C2.3999 2.11634 3.11625 1.39999 3.9999 1.39999H11.9999C12.8836 1.39999 13.5999 2.11634 13.5999 2.99999V13.8287C13.5999 14.7014 12.6322 15.2266 11.9004 14.7509L7.9999 12.2156L4.09939 14.7509C3.36761 15.2266 2.3999 14.7014 2.3999 13.8287V2.99999ZM3.9999 2.59999C3.77899 2.59999 3.5999 2.77908 3.5999 2.99999V13.6444L7.67291 10.9969C7.87175 10.8677 8.12806 10.8677 8.3269 10.9969L12.3999 13.6444V2.99999C12.3999 2.77908 12.2208 2.59999 11.9999 2.59999H3.9999Z" fill="#1E2226"/>
</svg>
