<svg width="16" height="16" viewBox="0 0 16 16" fill="none" xmlns="http://www.w3.org/2000/svg">
<path d="M1.3999 3.00002C1.3999 2.11637 2.11625 1.40002 2.9999 1.40002H12.9999C13.8836 1.40002 14.5999 2.11637 14.5999 3.00002V13C14.5999 13.8837 13.8836 14.6 12.9999 14.6H2.9999C2.11625 14.6 1.3999 13.8837 1.3999 13V3.00002ZM2.9999 2.60002C2.77899 2.60002 2.5999 2.77911 2.5999 3.00002V13C2.5999 13.2209 2.77899 13.4 2.9999 13.4H12.9999C13.2208 13.4 13.3999 13.2209 13.3999 13V3.00002C13.3999 2.77911 13.2208 2.60002 12.9999 2.60002H2.9999ZM6.00612 9.85002L5.24991 12H3.74991L7.09368 3.90002H8.90612L12.2499 12H10.7499L9.99368 9.85002H6.00612ZM9.51368 8.65002L8.09368 5.10002H7.90612L6.48612 8.65002H9.51368Z" fill="#1E2226"/>
</svg>
