<svg width="16" height="16" viewBox="0 0 16 16" fill="none" xmlns="http://www.w3.org/2000/svg">
<path d="M3.40419 1.65C2.69545 1.65 2.07116 2.11627 1.86999 2.79586L0.924579 5.9897L0.899902 6.07306V6.16V12.75C0.899902 13.6337 1.61625 14.35 2.4999 14.35H12.9999C13.8836 14.35 14.5999 13.6337 14.5999 12.75V6.16V6.07306L14.5752 5.9897L13.6298 2.79586C13.4286 2.11627 12.8044 1.65 12.0956 1.65H3.40419ZM3.02064 3.13647C3.07093 2.96657 3.227 2.85 3.40419 2.85H7.3999V5.65H2.2766L3.02064 3.13647ZM8.5999 5.65V2.85H12.0956C12.2728 2.85 12.4289 2.96657 12.4792 3.13647L13.2232 5.65H8.5999ZM2.0999 6.85H13.3999V12.75C13.3999 12.9709 13.2208 13.15 12.9999 13.15H2.4999C2.27899 13.15 2.0999 12.9709 2.0999 12.75V6.85ZM8.9999 11.6H11.9999V10.4H8.9999V11.6Z" fill="#1E2226"/>
</svg>
