<svg width="16" height="16" viewBox="0 0 16 16" fill="none" xmlns="http://www.w3.org/2000/svg">
<path d="M0.899902 3.25C0.899902 2.36635 1.61625 1.65 2.4999 1.65H5.7499H10.2499H12.9999C13.8836 1.65 14.5999 2.36635 14.5999 3.25V12.75C14.5999 13.6337 13.8836 14.35 12.9999 14.35H2.4999C1.61625 14.35 0.899902 13.6337 0.899902 12.75V3.25ZM2.4999 2.85C2.27899 2.85 2.0999 3.02909 2.0999 3.25V12.75C2.0999 12.9709 2.27899 13.15 2.4999 13.15H12.9999C13.2208 13.15 13.3999 12.9709 13.3999 12.75V3.25C13.3999 3.02909 13.2208 2.85 12.9999 2.85H10.8499V7.75C10.8499 7.96259 10.7374 8.15931 10.5542 8.26712C10.371 8.37494 10.1444 8.37774 9.95852 8.2745L7.9999 7.18638L6.04129 8.2745C5.85545 8.37774 5.62885 8.37494 5.44563 8.26712C5.2624 8.15931 5.1499 7.96259 5.1499 7.75V2.85H2.4999ZM6.3499 2.85V6.73029L7.70852 5.97551C7.88973 5.87483 8.11007 5.87483 8.29129 5.97551L9.6499 6.73029V2.85H6.3499ZM8.9999 11.6H11.9999V10.4H8.9999V11.6Z" fill="#1E2226"/>
</svg>
