<svg width="16" height="16" viewBox="0 0 16 16" fill="none" xmlns="http://www.w3.org/2000/svg">
<path d="M8.39999 2.20202V4.14943V13.7801H3.09999V3.89802L8.39999 2.20202ZM13 14.9801C13.6075 14.9801 14.1 14.4876 14.1 13.8801V5.70499C14.1 5.27028 13.844 4.87635 13.4467 4.6998L9.6 3C9.6 3 9.59999 2.63994 9.59999 2.06503C9.59999 1.31978 8.87453 0.790228 8.16474 1.01736L2.66474 2.77736C2.20914 2.92315 1.89999 3.34667 1.89999 3.82503V13.8801C1.89999 14.4876 2.39248 14.9801 2.99999 14.9801C6.33333 14.9801 9.66666 14.9801 13 14.9801ZM12.9 13.7801H9.59999V4.30331L12.9 5.76998V13.7801ZM4.49999 6.73005H7.49999V5.53005H4.49999V6.73005ZM7.49999 9.23005H4.49999V8.03005H7.49999V9.23005ZM4.49999 11.7301H7.49999V10.5301H4.49999V11.7301Z" fill="#1E2226"/>
</svg>
