<svg width="16" height="16" viewBox="0 0 16 16" fill="none" xmlns="http://www.w3.org/2000/svg">
<path d="M4.89992 2.15V1.25H6.09992V2.15H9.89992V1.25H11.0999V2.15H13.2499C14.1336 2.15 14.8499 2.86635 14.8499 3.75V12.75C14.8499 13.6337 14.1336 14.35 13.2499 14.35H2.7499C1.86625 14.35 1.1499 13.6337 1.1499 12.75L1.14992 3.75C1.14992 2.86634 1.86627 2.15 2.74992 2.15H4.89992ZM4.89992 3.35H2.74992C2.52901 3.35 2.34992 3.52909 2.34992 3.75L2.3499 12.75C2.3499 12.9709 2.52899 13.15 2.7499 13.15H13.2499C13.4708 13.15 13.6499 12.9709 13.6499 12.75V3.75C13.6499 3.52909 13.4708 3.35 13.2499 3.35H11.0999V4.25H9.89992V3.35H6.09992V4.25H4.89992V3.35ZM11.6742 6.92426L7.67419 10.9243C7.43988 11.1586 7.05998 11.1586 6.82567 10.9243L4.32567 8.42426L5.1742 7.57574L7.24993 9.65147L10.8257 6.07574L11.6742 6.92426Z" fill="#1E2226"/>
</svg>
