<svg width="16" height="16" viewBox="0 0 16 16" fill="none" xmlns="http://www.w3.org/2000/svg">
<path d="M6.40612 2.84999L5.90612 4.09999H2.7499C2.52899 4.09999 2.3499 4.27908 2.3499 4.49999V12.75C2.3499 12.9709 2.52899 13.15 2.7499 13.15H13.2499C13.4708 13.15 13.6499 12.9709 13.6499 12.75V4.49999C13.6499 4.27908 13.4708 4.09999 13.2499 4.09999H10.0937L9.59368 2.84999H6.40612ZM5.31709 2.34146C5.48414 1.92384 5.88862 1.64999 6.33842 1.64999H9.66139C10.1112 1.64999 10.5157 1.92384 10.6827 2.34146L10.9061 2.89999H13.2499C14.1336 2.89999 14.8499 3.61634 14.8499 4.49999V12.75C14.8499 13.6336 14.1336 14.35 13.2499 14.35H2.7499C1.86625 14.35 1.1499 13.6336 1.1499 12.75V4.49999C1.1499 3.61634 1.86625 2.89999 2.7499 2.89999H5.09368L5.31709 2.34146ZM12.4999 6.09999H10.9999V4.89999H12.4999V6.09999ZM7.9999 6.59999C6.95056 6.59999 6.0999 7.45065 6.0999 8.49999C6.0999 9.54934 6.95056 10.4 7.9999 10.4C9.04924 10.4 9.8999 9.54934 9.8999 8.49999C9.8999 7.45065 9.04924 6.59999 7.9999 6.59999ZM4.8999 8.49999C4.8999 6.78791 6.28782 5.39999 7.9999 5.39999C9.71199 5.39999 11.0999 6.78791 11.0999 8.49999C11.0999 10.2121 9.71199 11.6 7.9999 11.6C6.28782 11.6 4.8999 10.2121 4.8999 8.49999Z" fill="#1E2226"/>
</svg>
