<?xml version="1.0" encoding="UTF-8"?>
<svg width="16px" height="16px" viewBox="0 0 16 16" version="1.1" xmlns="http://www.w3.org/2000/svg" xmlns:xlink="http://www.w3.org/1999/xlink">
    <title>画板</title>
    <g id="画板" stroke="none" stroke-width="1" fill="none" fill-rule="evenodd">
        <path d="M7.999998,0.9 C11.921198,0.9 15.099998,4.078776 15.099998,7.999996 C15.099998,11.921206 11.921198,15.100006 7.999998,15.100006 C4.078778,15.100006 0.9,11.921206 0.9,7.999996 C0.9,4.078776 4.078778,0.9 7.999998,0.9 Z M7.999998,2.099996 C4.741518,2.099996 2.099998,4.741516 2.099998,7.999996 C2.099998,11.258506 4.741518,13.900006 7.999998,13.900006 C11.258498,13.900006 13.899998,11.258506 13.899998,7.999996 C13.899998,4.741516 11.258498,2.099996 7.999998,2.099996 Z M8.599998,3.999996 L8.599998,7.399996 L11.999998,7.399996 L11.999998,8.599996 L8.599998,8.599996 L8.599998,11.999996 L7.399998,11.999996 L7.399998,8.599996 L3.999998,8.599996 L3.999998,7.399996 L7.399998,7.399996 L7.399998,3.999996 L8.599998,3.999996 Z" id="形状" fill="#1E2226" fill-rule="nonzero"></path>
    </g>
</svg>