<svg width="16" height="16" viewBox="0 0 16 16" fill="none" xmlns="http://www.w3.org/2000/svg">
<path d="M11.8286 1.69671C12.2191 1.30618 12.8522 1.30618 13.2428 1.69671L14.3034 2.75737C14.694 3.14789 14.694 3.78106 14.3034 4.17158L12.0053 6.46968L14.4802 8.94455C14.8707 9.33507 14.8707 9.96824 14.4802 10.3588L13.066 11.773C12.8347 12.0043 12.5182 12.0986 12.2174 12.0559L9.4244 14.8489C8.79956 15.4737 7.78649 15.4737 7.16165 14.8489L1.15125 8.83848C0.526407 8.21365 0.526408 7.20058 1.15125 6.57574L3.94427 3.78272C3.90152 3.48197 3.99582 3.16548 4.22716 2.93414L5.64138 1.51993C6.0319 1.1294 6.66506 1.1294 7.05559 1.51993L9.53046 3.9948L11.8286 1.69671ZM13.7731 9.65166L10.5911 6.46968L13.5963 3.46447L12.5357 2.40381L9.53046 5.40902L6.34848 2.22704L5.00498 3.57054L12.4296 10.9952L13.7731 9.65166ZM4.58071 4.84333L1.99977 7.42427C1.84356 7.58048 1.84357 7.83375 1.99977 7.98996L2.81295 8.80313L4.68678 6.9293L5.53531 7.77782L3.66148 9.65166L4.58071 10.5709L6.45455 8.69706L7.30308 9.54559L5.42924 11.4194L6.34848 12.3387L8.22231 10.4648L9.07084 11.3134L7.19701 13.1872L8.01018 14.0004C8.16639 14.1566 8.41966 14.1566 8.57587 14.0004L11.1568 11.4194L4.58071 4.84333Z" fill="#1E2226"/>
</svg>
