<svg width="16" height="16" viewBox="0 0 16 16" fill="none" xmlns="http://www.w3.org/2000/svg">
<path d="M8.45141 1.66368C8.84177 1.27299 9.47493 1.27272 9.86562 1.66308L13.8236 5.61765C14.2143 6.00801 14.2145 6.64118 13.8242 7.03187L9.07186 11.7881C8.88374 11.9764 8.6283 12.0819 8.36212 12.0813L5.34618 12.0743C5.08189 12.0737 4.8286 11.9685 4.64165 11.7817L2.19648 9.33834C1.80582 8.94797 1.80557 8.31484 2.19591 7.92416L8.45141 1.66368ZM10.1493 9.01179L6.47456 5.33966L3.18616 8.63086L5.43148 10.8745L8.28173 10.8811L10.1493 9.01179ZM2.99989 14.65H12.9999V13.35H2.99989V14.65Z" fill="#1E2226"/>
</svg>
