<svg width="16" height="16" viewBox="0 0 16 16" fill="none" xmlns="http://www.w3.org/2000/svg">
<path d="M0.575684 3.57573L3.57568 0.575729L4.42421 1.42426L1.42421 4.42426L0.575684 3.57573ZM14.5757 4.42426L11.5757 1.42426L12.4242 0.575729L15.4242 3.57573L14.5757 4.42426ZM7.99995 2.59999C5.01761 2.59999 2.59995 5.01766 2.59995 7.99999C2.59995 10.9823 5.01761 13.4 7.99995 13.4C10.9823 13.4 13.3999 10.9823 13.3999 7.99999C13.3999 5.01766 10.9823 2.59999 7.99995 2.59999ZM1.39995 7.99999C1.39995 4.35491 4.35487 1.39999 7.99995 1.39999C11.645 1.39999 14.5999 4.35491 14.5999 7.99999C14.5999 9.86106 13.8297 11.5422 12.5905 12.742L13.9242 14.0757L13.0757 14.9243L11.6507 13.4992C10.6051 14.1947 9.34985 14.6 7.99995 14.6C6.65005 14.6 5.3948 14.1947 4.34923 13.4992L2.92421 14.9243L2.07568 14.0757L3.40939 12.742C2.17024 11.5422 1.39995 9.86106 1.39995 7.99999ZM7.39995 7.99999V4.99999H8.59995V7.75147L10.4242 9.57573L9.57568 10.4243L7.57568 8.42426C7.46316 8.31174 7.39995 8.15912 7.39995 7.99999Z" fill="#1E2226"/>
</svg>
