<svg width="16" height="16" viewBox="0 0 16 16" fill="none" xmlns="http://www.w3.org/2000/svg">
<path d="M1.1499 3.25C1.1499 2.36634 1.86625 1.65 2.7499 1.65H13.2499C14.1336 1.65 14.8499 2.36634 14.8499 3.25V12.75C14.8499 13.6337 14.1336 14.35 13.2499 14.35H2.7499C1.86625 14.35 1.1499 13.6337 1.1499 12.75V3.25ZM2.7499 2.85C2.52899 2.85 2.3499 3.02909 2.3499 3.25V4.9H13.6499V3.25C13.6499 3.02909 13.4708 2.85 13.2499 2.85H2.7499ZM13.6499 6.1H2.3499V12.75C2.3499 12.9709 2.52899 13.15 2.7499 13.15H13.2499C13.4708 13.15 13.6499 12.9709 13.6499 12.75V6.1ZM9.25885 7.62053L9.06911 8.18974L8.06911 11.1897L7.87938 11.7589L6.74096 11.3795L6.93069 10.8103L7.93069 7.81026L8.12043 7.24105L9.25885 7.62053ZM10.9242 7.57574L10.4999 7.15147L9.65137 8L10.0756 8.42426L11.1514 9.5L10.0756 10.5757L9.65137 11L10.4999 11.8485L10.9242 11.4243L12.4242 9.92426C12.5367 9.81174 12.5999 9.65913 12.5999 9.5C12.5999 9.34087 12.5367 9.18826 12.4242 9.07574L10.9242 7.57574ZM6.34843 8L5.92417 8.42426L4.84843 9.5L5.92417 10.5757L6.34843 11L5.4999 11.8485L5.07564 11.4243L3.57564 9.92426C3.34132 9.68995 3.34132 9.31005 3.57564 9.07574L5.07564 7.57574L5.4999 7.15147L6.34843 8Z" fill="#1E2226"/>
</svg>
