<svg width="16" height="16" viewBox="0 0 16 16" fill="none" xmlns="http://www.w3.org/2000/svg">
<path d="M6.1 3.99999V4.39999H9.9V3.99999C9.9 2.95065 9.04934 2.09999 8 2.09999C6.95066 2.09999 6.1 2.95065 6.1 3.99999ZM4.9 5.59999H3C2.77909 5.59999 2.6 5.77908 2.6 5.99999V13C2.6 13.2209 2.77909 13.4 3 13.4H13C13.2209 13.4 13.4 13.2209 13.4 13V5.99999C13.4 5.77908 13.2209 5.59999 13 5.59999H11.1V7.49999H9.9V5.59999H6.1V7.49999H4.9V5.59999ZM4.9 4.39999V3.99999C4.9 2.28791 6.28792 0.899994 8 0.899994C9.71208 0.899994 11.1 2.28791 11.1 3.99999V4.39999H13C13.8837 4.39999 14.6 5.11634 14.6 5.99999V13C14.6 13.8836 13.8837 14.6 13 14.6H3C2.11635 14.6 1.4 13.8836 1.4 13V5.99999C1.4 5.11634 2.11635 4.39999 3 4.39999H4.9Z" fill="#1E2226"/>
</svg>
