<svg width="16" height="16" viewBox="0 0 16 16" fill="none" xmlns="http://www.w3.org/2000/svg">
<path d="M1.86071 2.93339C1.89642 2.07638 2.60158 1.39999 3.45932 1.39999H12.5409C13.3987 1.39999 14.1038 2.07638 14.1395 2.93339L14.5562 12.9334C14.5941 13.8424 13.8674 14.6 12.9576 14.6H3.04266C2.13287 14.6 1.40617 13.8424 1.44404 12.9334L1.86071 2.93339ZM3.45932 2.59999C3.24489 2.59999 3.0686 2.76909 3.05967 2.98334L2.643 12.9833C2.63353 13.2106 2.81521 13.4 3.04266 13.4H12.9576C13.185 13.4 13.3667 13.2106 13.3572 12.9833L12.9406 2.98334C12.9316 2.76909 12.7554 2.59999 12.5409 2.59999H3.45932ZM8.00012 7.59999C6.28804 7.59999 4.90012 6.21208 4.90012 4.49999H6.10012C6.10012 5.54933 6.95078 6.39999 8.00012 6.39999C9.04946 6.39999 9.90012 5.54933 9.90012 4.49999H11.1001C11.1001 6.21208 9.7122 7.59999 8.00012 7.59999Z" fill="#1E2226"/>
</svg>
