<svg width="16" height="16" viewBox="0 0 16 16" fill="none" xmlns="http://www.w3.org/2000/svg">
<path fill-rule="evenodd" clip-rule="evenodd" d="M2.7499 2.84999C2.52899 2.84999 2.3499 3.02908 2.3499 3.24999V12.75C2.3499 12.9709 2.52899 13.15 2.7499 13.15H13.2499C13.4708 13.15 13.6499 12.9709 13.6499 12.75V4.49999C13.6499 4.27908 13.4708 4.09999 13.2499 4.09999H7.21153L6.21153 2.84999H2.7499ZM1.1499 3.24999C1.1499 2.36634 1.86625 1.64999 2.7499 1.64999H6.25959C6.59375 1.64999 6.9098 1.80189 7.11855 2.06283L7.78828 2.89999H13.2499C14.1336 2.89999 14.8499 3.61634 14.8499 4.49999V12.75C14.8499 13.6336 14.1336 14.35 13.2499 14.35H2.7499C1.86625 14.35 1.1499 13.6336 1.1499 12.75V3.24999ZM8.5999 9.09999V11H7.3999V9.09999H5.4999V7.89999H7.3999V5.99999H8.5999V7.89999H10.4999V9.09999H8.5999Z" fill="#1E2226"/>
</svg>
