<svg width="16" height="16" viewBox="0 0 16 16" fill="none" xmlns="http://www.w3.org/2000/svg">
<path d="M2.4999 1.89999C1.61638 1.89999 0.899902 2.61603 0.899902 3.49982V6.61363L1.19947 6.78692C1.61949 7.02989 1.8999 7.48255 1.8999 7.99999C1.8999 8.51744 1.61949 8.97009 1.19947 9.21307L0.899902 9.38635V12.5007C0.899902 13.3849 1.61679 14.1 2.4999 14.1H13.4999C14.383 14.1 15.0999 13.3849 15.0999 12.5007V9.38635L14.8003 9.21307C14.3803 8.97009 14.0999 8.51744 14.0999 7.99999C14.0999 7.48255 14.3803 7.02989 14.8003 6.78692L15.0999 6.61363V3.49982C15.0999 2.61603 14.3834 1.89999 13.4999 1.89999H2.4999ZM2.0999 3.49982C2.0999 3.27904 2.27886 3.09999 2.4999 3.09999H13.4999C13.7209 3.09999 13.8999 3.27904 13.8999 3.49982V5.95054C13.292 6.4258 12.8999 7.16684 12.8999 7.99999C12.8999 8.83315 13.292 9.57479 13.8999 10.05V12.5007C13.8999 12.7211 13.7214 12.9 13.4999 12.9H2.4999C2.27845 12.9 2.0999 12.7211 2.0999 12.5007L2.0999 10.0494C2.70779 9.57419 3.0999 8.83315 3.0999 7.99999C3.0999 7.16684 2.70779 6.4258 2.0999 5.95054L2.0999 3.49982ZM7.67415 10.1743L11.6742 6.17426L10.8256 5.32573L7.24989 8.90146L5.17415 6.82573L4.32562 7.67426L6.82562 10.1743C7.05994 10.4086 7.43984 10.4086 7.67415 10.1743Z" fill="#1E2226"/>
</svg>
