<svg width="16" height="16" viewBox="0 0 16 16" fill="none" xmlns="http://www.w3.org/2000/svg">
<path d="M7.99991 0.900002C8.21523 0.900002 8.41403 1.01537 8.52086 1.20232L11.2393 5.95951L14.2316 4.46335C14.4282 4.36505 14.6628 4.38212 14.8431 4.50784C15.0234 4.63356 15.1205 4.8478 15.0962 5.06626L14.0962 14.0663C14.0625 14.3701 13.8056 14.6 13.4999 14.6H2.49991C2.19418 14.6 1.93734 14.3701 1.90358 14.0663L0.903582 5.06626C0.879308 4.8478 0.976432 4.63356 1.15673 4.50784C1.33703 4.38212 1.57164 4.36505 1.76824 4.46335L4.76057 5.95951L7.47897 1.20232C7.58579 1.01537 7.7846 0.900002 7.99991 0.900002ZM7.99991 2.70934L5.52086 7.04768C5.36287 7.32417 5.01641 7.42907 4.73158 7.28666L2.21804 6.02988L3.03694 13.4H12.9629L13.7818 6.02988L11.2682 7.28666C10.9834 7.42907 10.637 7.32417 10.479 7.04768L7.99991 2.70934ZM7.62509 11.7185L5.12509 9.71852L5.87473 8.78148L7.99991 10.4816L10.1251 8.78148L10.8747 9.71852L8.37473 11.7185C8.1556 11.8938 7.84423 11.8938 7.62509 11.7185Z" fill="#1E2226"/>
</svg>
