<svg width="16" height="16" viewBox="0 0 16 16" fill="none" xmlns="http://www.w3.org/2000/svg">
<g clip-path="url(#clip0_1275_53239)">
<path d="M8.00002 2.1C4.74154 2.1 2.10002 4.74152 2.10002 8C2.10002 9.67922 2.80154 11.1946 3.9275 12.269C4.69355 11.6727 6.15404 10.9 8.00002 10.9C9.84601 10.9 11.3065 11.6727 12.0725 12.269C13.1985 11.1946 13.9 9.67922 13.9 8C13.9 4.74152 11.2585 2.1 8.00002 2.1ZM11.0812 13.0325C10.4402 12.6051 9.3467 12.1 8.00002 12.1C6.65335 12.1 5.55987 12.6051 4.9189 13.0325C5.81567 13.5828 6.8708 13.9 8.00002 13.9C9.12925 13.9 10.1844 13.5828 11.0812 13.0325ZM0.900024 8C0.900024 4.07878 4.0788 0.9 8.00002 0.9C11.9212 0.9 15.1 4.07878 15.1 8C15.1 11.9212 11.9212 15.1 8.00002 15.1C4.0788 15.1 0.900024 11.9212 0.900024 8ZM8.00002 5.1C6.95068 5.1 6.10002 5.95066 6.10002 7C6.10002 8.04934 6.95068 8.9 8.00002 8.9C9.04937 8.9 9.90002 8.04934 9.90002 7C9.90002 5.95066 9.04937 5.1 8.00002 5.1ZM4.90002 7C4.90002 5.28792 6.28794 3.9 8.00002 3.9C9.71211 3.9 11.1 5.28792 11.1 7C11.1 8.71208 9.71211 10.1 8.00002 10.1C6.28794 10.1 4.90002 8.71208 4.90002 7Z" fill="#1E2226"/>
</g>
<defs>
<clipPath id="clip0_1275_53239">
<rect width="16" height="16" fill="white"/>
</clipPath>
</defs>
</svg>
