<svg width="16" height="16" viewBox="0 0 16 16" fill="none" xmlns="http://www.w3.org/2000/svg">
<path d="M1.8999 7C1.8999 3.47609 4.64138 0.9 7.9999 0.9C11.3584 0.9 14.0999 3.47609 14.0999 7V10.5C14.0999 10.5493 14.098 10.6105 14.0878 10.7252C14.0762 10.8545 14.0536 11.0341 14.0092 11.2474C13.9207 11.672 13.7431 12.243 13.3837 12.818C12.6413 14.0058 11.1918 15.1 8.4999 15.1H7.4999C6.89239 15.1 6.3999 14.6075 6.3999 14C6.3999 13.3925 6.89239 12.9 7.4999 12.9H8.4999C9.04759 12.9 9.50179 13.3003 9.58593 13.8242C11.1543 13.5902 11.946 12.8541 12.3661 12.182C12.489 11.9853 12.584 11.7877 12.6572 11.6H12.4999C11.3401 11.6 10.3999 10.6598 10.3999 9.5V8C10.3999 6.8402 11.3401 5.9 12.4999 5.9H12.7856C12.3033 3.64303 10.3514 2.1 7.9999 2.1C5.64845 2.1 3.6965 3.64303 3.21424 5.9H3.4999C4.6597 5.9 5.5999 6.8402 5.5999 8V9.5C5.5999 10.6598 4.6597 11.6 3.4999 11.6H2.9999C2.39239 11.6 1.8999 11.1075 1.8999 10.5V7ZM3.0999 7.1V10.4H3.4999C3.99696 10.4 4.3999 9.99706 4.3999 9.5V8C4.3999 7.50294 3.99696 7.1 3.4999 7.1H3.0999ZM12.8999 7.1H12.4999C12.0028 7.1 11.5999 7.50294 11.5999 8V9.5C11.5999 9.99706 12.0028 10.4 12.4999 10.4H12.8999V7.1Z" fill="#1E2226"/>
</svg>
