<svg width="16" height="16" viewBox="0 0 16 16" fill="none" xmlns="http://www.w3.org/2000/svg">
<path d="M10.4 2.49999C10.4 2.16862 10.6686 1.89999 11 1.89999H13C13.3314 1.89999 13.6 2.16862 13.6 2.49999V12.9H14V14.1H2V12.9H2.4V7.99999C2.4 7.66862 2.66863 7.39999 3 7.39999H5C5.33137 7.39999 5.6 7.66862 5.6 7.99999V12.9H6.4V4.99999C6.4 4.66862 6.66863 4.39999 7 4.39999H9C9.33137 4.39999 9.6 4.66862 9.6 4.99999V12.9H10.4V2.49999ZM4.4 12.9V8.59999H3.6V12.9H4.4ZM11.6 3.09999V12.9H12.4V3.09999H11.6ZM8.4 12.9V5.59999H7.6V12.9H8.4Z" fill="#1E2226"/>
</svg>
