<svg width="16" height="16" viewBox="0 0 16 16" fill="none" xmlns="http://www.w3.org/2000/svg">
<path d="M1.15002 2.25V12.75C1.15002 13.6337 1.86637 14.35 2.75002 14.35H14.25V13.15H2.75002C2.52911 13.15 2.35002 12.9709 2.35002 12.75V2.25H1.15002ZM10.9785 8.29285L13.4247 5.49721C13.4496 5.49906 13.4747 5.5 13.5 5.5C14.0523 5.5 14.5 5.05228 14.5 4.5C14.5 3.94772 14.0523 3.5 13.5 3.5C12.9477 3.5 12.5 3.94772 12.5 4.5C12.5 4.57102 12.5074 4.64032 12.5215 4.70715L10.0753 7.50279C10.0505 7.50094 10.0254 7.5 10 7.5C9.95198 7.5 9.90473 7.50339 9.85849 7.50994L8.49009 6.14153C8.49664 6.0953 8.50002 6.04804 8.50002 6C8.50002 5.44772 8.05231 5 7.50002 5C6.94774 5 6.50002 5.44772 6.50002 6C6.50002 6.07102 6.50743 6.14032 6.52151 6.20715L4.07532 9.00279C4.05046 9.00094 4.02535 9 4.00002 9C3.44774 9 3.00002 9.44772 3.00002 10C3.00002 10.5523 3.44774 11 4.00002 11C4.55231 11 5.00002 10.5523 5.00002 10C5.00002 9.92898 4.99262 9.85968 4.97854 9.79285L7.42473 6.99721C7.44958 6.99906 7.47469 7 7.50002 7C7.54807 7 7.59532 6.99661 7.64156 6.99006L9.00996 8.35847C9.00341 8.4047 9.00002 8.45196 9.00002 8.5C9.00002 9.05228 9.44774 9.5 10 9.5C10.5523 9.5 11 9.05228 11 8.5C11 8.42898 10.9926 8.35968 10.9785 8.29285Z" fill="#1E2226"/>
</svg>
