<svg width="16" height="16" viewBox="0 0 16 16" fill="none" xmlns="http://www.w3.org/2000/svg">
<path d="M4.4 2.24999C4.4 1.64248 4.89249 1.14999 5.5 1.14999H10.5C11.1075 1.14999 11.6 1.64248 11.6 2.24999V3.64999H14.25V4.84999H13.6V13.25C13.6 14.1336 12.8837 14.85 12 14.85H4C3.11634 14.85 2.4 14.1336 2.4 13.25V4.84999H1.75V3.64999H4.4V2.24999ZM5.6 3.64999H10.4V2.34999H5.6V3.64999ZM3.6 4.84999V13.25C3.6 13.4709 3.77909 13.65 4 13.65H12C12.2209 13.65 12.4 13.4709 12.4 13.25V4.84999H3.6ZM5.65 12V6.49999H6.85V12H5.65ZM9.15 12V6.49999H10.35V12H9.15Z" fill="#1E2226"/>
</svg>
