<svg width="16" height="16" viewBox="0 0 16 16" fill="none" xmlns="http://www.w3.org/2000/svg">
<path d="M5.3999 3.5C5.3999 2.61635 6.11625 1.9 6.9999 1.9H13.4999C14.3836 1.9 15.0999 2.61635 15.0999 3.5V11.5C15.0999 12.3835 14.3838 13.0997 13.5004 13.1C13.2512 13.8272 12.5616 14.35 11.7499 14.35C10.9382 14.35 10.2486 13.8272 9.99937 13.1H6.50043C6.25123 13.8272 5.56162 14.35 4.7499 14.35C3.93819 14.35 3.24857 13.8272 2.99937 13.1H2.4999C1.61625 13.1 0.899902 12.3837 0.899902 11.5V7.5C0.899902 5.51178 2.51168 3.9 4.4999 3.9H5.3999V3.5ZM9.99937 11.9C10.2486 11.1728 10.9382 10.65 11.7499 10.65C12.5616 10.65 13.2512 11.1728 13.5004 11.9C13.7211 11.8997 13.8999 11.7207 13.8999 11.5V3.5C13.8999 3.27909 13.7208 3.1 13.4999 3.1H6.9999C6.77899 3.1 6.5999 3.27909 6.5999 3.5V7.5C6.5999 8.38366 5.88356 9.1 4.9999 9.1H3.9999V7.9H4.9999C5.22082 7.9 5.3999 7.72092 5.3999 7.5V5.1H4.4999C3.17442 5.1 2.0999 6.17452 2.0999 7.5V11.5C2.0999 11.7209 2.27899 11.9 2.4999 11.9H2.99937C3.24857 11.1728 3.93819 10.65 4.7499 10.65C5.56162 10.65 6.25123 11.1728 6.50043 11.9H9.99937ZM4.7499 11.85C4.39092 11.85 4.0999 12.141 4.0999 12.5C4.0999 12.859 4.39092 13.15 4.7499 13.15C5.10889 13.15 5.3999 12.859 5.3999 12.5C5.3999 12.141 5.10889 11.85 4.7499 11.85ZM11.0999 12.5C11.0999 12.859 11.3909 13.15 11.7499 13.15C12.1089 13.15 12.3999 12.859 12.3999 12.5C12.3999 12.141 12.1089 11.85 11.7499 11.85C11.3909 11.85 11.0999 12.141 11.0999 12.5Z" fill="#1E2226"/>
</svg>
