<svg width="16" height="16" viewBox="0 0 16 16" fill="none" xmlns="http://www.w3.org/2000/svg">
<path d="M0.899902 3.49999C0.899902 2.61634 1.61625 1.89999 2.4999 1.89999H13.4999C14.3836 1.89999 15.0999 2.61634 15.0999 3.49999V12.5C15.0999 13.3837 14.3836 14.1 13.4999 14.1H2.4999C1.61625 14.1 0.899902 13.3836 0.899902 12.5V3.49999ZM2.4999 3.09999C2.27899 3.09999 2.0999 3.27908 2.0999 3.49999V12.5C2.0999 12.7209 2.27899 12.9 2.4999 12.9H13.4999C13.7208 12.9 13.8999 12.7209 13.8999 12.5V3.49999C13.8999 3.27908 13.7208 3.09999 13.4999 3.09999H2.4999ZM5.4999 6.09999H3.9999V4.89999H5.4999V6.09999ZM8.7499 6.09999H7.2499V4.89999H8.7499V6.09999ZM11.9999 6.09999H10.4999V4.89999H11.9999V6.09999ZM5.4999 8.59999H3.9999V7.39999H5.4999V8.59999ZM8.7499 8.59999H7.2499V7.39999H8.7499V8.59999ZM11.9999 8.59999H10.4999V7.39999H11.9999V8.59999ZM9.9999 11.1H5.9999V9.89999H9.9999V11.1Z" fill="#1E2226"/>
</svg>
