<svg width="16" height="16" viewBox="0 0 16 16" fill="none" xmlns="http://www.w3.org/2000/svg">
<path d="M4.9999 0.9C3.8401 0.9 2.8999 1.8402 2.8999 3V13C2.8999 14.1598 3.8401 15.1 4.9999 15.1H10.9999C12.1597 15.1 13.0999 14.1598 13.0999 13V3C13.0999 1.8402 12.1597 0.9 10.9999 0.9H4.9999ZM4.0999 3C4.0999 2.50294 4.50285 2.1 4.9999 2.1H10.9999C11.497 2.1 11.8999 2.50294 11.8999 3V13C11.8999 13.4971 11.497 13.9 10.9999 13.9H4.9999C4.50285 13.9 4.0999 13.4971 4.0999 13V3ZM6.4999 4.1H9.4999V2.9H6.4999V4.1Z" fill="#1E2226"/>
</svg>
