<svg width="16" height="16" viewBox="0 0 16 16" fill="none" xmlns="http://www.w3.org/2000/svg">
<path d="M0.899902 3.5C0.899902 2.61634 1.61625 1.9 2.4999 1.9H13.4999C14.3836 1.9 15.0999 2.61634 15.0999 3.5V10C15.0999 10.8837 14.3836 11.6 13.4999 11.6H9.9129L10.0429 12.9H11.4999V14.1H10.1629H9.4999H6.4999H5.83691H4.4999V12.9H5.95691L6.08691 11.6H2.4999C1.61625 11.6 0.899902 10.8837 0.899902 10V3.5ZM6.20691 10.4H6.7499H9.2499H9.7929H13.4999C13.7208 10.4 13.8999 10.2209 13.8999 10V3.5C13.8999 3.27909 13.7208 3.1 13.4999 3.1H2.4999C2.27899 3.1 2.0999 3.27909 2.0999 3.5V10C2.0999 10.2209 2.27899 10.4 2.4999 10.4H6.20691ZM7.29289 11.6L7.16289 12.9H8.83691L8.70691 11.6H7.29289Z" fill="#1E2226"/>
</svg>
