<svg width="16" height="16" viewBox="0 0 16 16" fill="none" xmlns="http://www.w3.org/2000/svg">
<path d="M3.49995 1.65C2.61629 1.65 1.89995 2.36634 1.89995 3.25V8.75C1.89995 9.02084 1.96724 9.27596 2.08602 9.49956C1.96187 9.63252 1.86965 9.79734 1.82318 9.98321L1.07318 12.9832C0.899614 13.6775 1.42471 14.35 2.14034 14.35H13.8596C14.5752 14.35 15.1003 13.6775 14.9267 12.9832L14.1767 9.98321C14.1302 9.79734 14.038 9.63252 13.9139 9.49956C14.0327 9.27596 14.0999 9.02084 14.0999 8.75V3.25C14.0999 2.36634 13.3836 1.65 12.4999 1.65H3.49995ZM12.4999 9.15H3.49995C3.27903 9.15 3.09995 8.97091 3.09995 8.75V3.25C3.09995 3.02909 3.27903 2.85 3.49995 2.85H12.4999C12.7209 2.85 12.8999 3.02909 12.8999 3.25V8.75C12.8999 8.97091 12.7209 9.15 12.4999 9.15ZM3.49995 10.35H12.4999H13.0315L13.7315 13.15H10.7703L10.5939 11.9151C10.5517 11.6196 10.2985 11.4 9.99995 11.4H5.99995C5.70136 11.4 5.44821 11.6196 5.40598 11.9151L5.22957 13.15H2.26841L2.96841 10.35H3.49995ZM9.55814 13.15H6.44175L6.52033 12.6H9.47957L9.55814 13.15ZM8.99995 4.6H6.99995V3.4H8.99995V4.6Z" fill="#1E2226"/>
</svg>
