<svg width="16" height="16" viewBox="0 0 16 16" fill="none" xmlns="http://www.w3.org/2000/svg">
<path d="M3.08521 2.20425C3.28105 1.86152 3.64553 1.65 4.04027 1.65H11.96C12.3547 1.65 12.7192 1.86152 12.915 2.20425L15.5816 6.87074C15.8277 7.30143 15.7551 7.84355 15.4043 8.19431L8.77793 14.8207C8.34835 15.2503 7.65187 15.2503 7.22229 14.8207L0.59589 8.19431C0.245132 7.84355 0.172533 7.30143 0.41864 6.87074L3.08521 2.20425ZM4.09831 2.85L1.49843 7.39979L8.00011 13.9015L14.5018 7.39979L11.9019 2.85H4.09831ZM12.0001 7.6H4.00011V6.4H12.0001V7.6Z" fill="#1E2226"/>
</svg>
