<svg width="16" height="16" viewBox="0 0 16 16" fill="none" xmlns="http://www.w3.org/2000/svg">
<path d="M2.59999 2.99999C2.59999 2.77908 2.77908 2.59999 2.99999 2.59999H8.92307V1.39999H2.99999C2.11634 1.39999 1.39999 2.11634 1.39999 2.99999V13C1.39999 13.8837 2.11634 14.6 2.99999 14.6H13C13.8837 14.6 14.6 13.8836 14.6 13V7.07692H13.4V13C13.4 13.2209 13.2209 13.4 13 13.4H2.99999C2.77908 13.4 2.59999 13.2209 2.59999 13V2.99999ZM13.5757 1.57573L6.57573 8.57573L7.42426 9.42426L14.4243 2.42426L13.5757 1.57573Z" fill="#1E2226"/>
</svg>
