<svg width="16" height="16" viewBox="0 0 16 16" fill="none" xmlns="http://www.w3.org/2000/svg">
<path d="M2.09999 7.99999C2.09999 4.74151 4.74151 2.09999 7.99999 2.09999C11.2585 2.09999 13.9 4.74151 13.9 7.99999C13.9 11.2585 11.2585 13.9 7.99999 13.9C4.74151 13.9 2.09999 11.2585 2.09999 7.99999ZM7.99999 0.899994C4.07877 0.899994 0.899994 4.07877 0.899994 7.99999C0.899994 11.9212 4.07877 15.1 7.99999 15.1C11.9212 15.1 15.1 11.9212 15.1 7.99999C15.1 4.07877 11.9212 0.899994 7.99999 0.899994ZM5.14999 4.99999V6.99999H6.34999V4.99999H5.14999ZM9.64999 6.99999V4.99999H10.85V6.99999H9.64999ZM4.49999 8.99999C4.49999 9.31011 4.54274 9.65228 4.63264 9.99999C4.97759 11.3342 6.01685 12.75 7.99999 12.75C9.98314 12.75 11.0224 11.3342 11.3673 9.99999C11.4573 9.65228 11.5 9.31011 11.5 8.99999H10.5H5.49999H4.49999ZM6.11249 10.8375C5.92085 10.582 5.77636 10.2924 5.67599 9.99999H10.324C10.2236 10.2924 10.0791 10.582 9.88749 10.8375C9.49483 11.361 8.90483 11.75 7.99999 11.75C7.09515 11.75 6.50516 11.361 6.11249 10.8375Z" fill="#1E2226"/>
</svg>
