<?xml version="1.0" encoding="UTF-8"?>
<svg width="16px" height="16px" viewBox="0 0 16 16" version="1.1" xmlns="http://www.w3.org/2000/svg" xmlns:xlink="http://www.w3.org/1999/xlink">
    <title>画板备份 7</title>
    <g id="画板备份-7" stroke="none" stroke-width="1" fill="none" fill-rule="evenodd">
        <path d="M7.999998,0.9 C11.921198,0.9 15.099998,4.078776 15.099998,7.999996 C15.099998,11.921176 11.921198,15.099976 7.999998,15.099976 C4.078778,15.099976 0.9,11.921176 0.9,7.999996 C0.9,4.078776 4.078778,0.9 7.999998,0.9 Z M7.999998,2.099996 C4.741518,2.099996 2.099998,4.741516 2.099998,7.999996 C2.099998,11.258476 4.741518,13.899976 7.999998,13.899976 C11.258498,13.899976 13.899998,11.258476 13.899998,7.999996 C13.899998,4.741516 11.258498,2.099996 7.999998,2.099996 Z M8.001948,8.397876 C8.977028,8.397876 9.733518,8.691096 10.318698,9.152946 C10.8201605,9.54871725 11.1702589,10.0479321 11.4304921,10.5276398 L11.536698,10.731676 L10.463298,11.268376 C10.232798,10.807276 9.953868,10.393676 9.575308,10.094976 C9.208848,9.805716 8.716318,9.597876 8.001948,9.597876 C7.287508,9.597876 6.793778,9.805776 6.426178,10.095276 C6.10084943,10.3515617 5.84882861,10.6921168 5.63849643,11.0741191 L5.536658,11.268376 L4.463348,10.731676 C4.733148,10.192076 5.109618,9.604716 5.683688,9.152586 C6.269698,8.691036 7.026938,8.397876 8.001948,8.397876 Z M10.849998,5.000006 L10.849998,7.000006 L9.649998,7.000006 L9.649998,5.000006 L10.849998,5.000006 Z M6.349998,5.000006 L6.349998,7.000006 L5.149998,7.000006 L5.149998,5.000006 L6.349998,5.000006 Z" id="形状" fill="#1E2226" fill-rule="nonzero"></path>
    </g>
</svg>