<?xml version="1.0" encoding="UTF-8"?>
<svg width="16px" height="16px" viewBox="0 0 16 16" version="1.1" xmlns="http://www.w3.org/2000/svg" xmlns:xlink="http://www.w3.org/1999/xlink">
    <title>画板备份 8</title>
    <g id="画板备份-8" stroke="none" stroke-width="1" fill="none" fill-rule="evenodd">
        <path d="M7.999998,0.9 C11.921198,0.9 15.099998,4.078776 15.099998,7.999996 C15.099998,11.921176 11.921198,15.099976 7.999998,15.099976 C4.078778,15.099976 0.9,11.921176 0.9,7.999996 C0.9,4.078776 4.078778,0.9 7.999998,0.9 Z M7.999998,2.099996 C4.741518,2.099996 2.099998,4.741516 2.099998,7.999996 C2.099998,11.258476 4.741518,13.899976 7.999998,13.899976 C11.258498,13.899976 13.899998,11.258476 13.899998,7.999996 C13.899998,4.741516 11.258498,2.099996 7.999998,2.099996 Z M10.499998,9.399996 L10.499998,10.599976 L5.499998,10.599976 L5.499998,9.399996 L10.499998,9.399996 Z M6.349998,4.999996 L6.349998,6.999996 L5.149998,6.999996 L5.149998,4.999996 L6.349998,4.999996 Z M10.849998,4.999996 L10.849998,6.999996 L9.649998,6.999996 L9.649998,4.999996 L10.849998,4.999996 Z" id="形状" fill="#1E2226" fill-rule="nonzero"></path>
    </g>
</svg>