<?xml version="1.0" encoding="UTF-8"?>
<svg width="16px" height="16px" viewBox="0 0 16 16" version="1.1" xmlns="http://www.w3.org/2000/svg" xmlns:xlink="http://www.w3.org/1999/xlink">
    <title>画板</title>
    <g id="画板" stroke="none" stroke-width="1" fill="none" fill-rule="evenodd">
        <path d="M7.999998,0.9 C11.921198,0.9 15.099998,4.078776 15.099998,7.999996 C15.099998,11.921206 11.921198,15.100006 7.999998,15.100006 C4.078778,15.100006 0.9,11.921206 0.9,7.999996 C0.9,4.078776 4.078778,0.9 7.999998,0.9 Z M7.999998,2.099996 C4.741518,2.099996 2.099998,4.741516 2.099998,7.999996 C2.099998,11.258506 4.741518,13.900006 7.999998,13.900006 C11.258498,13.900006 13.899998,11.258506 13.899998,7.999996 C13.899998,4.741516 11.258498,2.099996 7.999998,2.099996 Z M10.780498,8.827086 L11.930898,9.168656 C11.427798,10.863106 9.859118,12.100006 8.000008,12.100006 C6.143668,12.100006 4.576928,10.866806 4.071388,9.176246 L5.221088,8.832446 C5.578878,10.028906 6.688498,10.900006 8.000008,10.900006 C9.313468,10.900006 10.424398,10.026306 10.780498,8.827086 Z M6.349998,4.999996 L6.349998,6.999996 L5.149998,6.999996 L5.149998,4.999996 L6.349998,4.999996 Z M10.849998,4.999996 L10.849998,6.999996 L9.649998,6.999996 L9.649998,4.999996 L10.849998,4.999996 Z" id="形状" fill="#1E2226" fill-rule="nonzero"></path>
    </g>
</svg>