<?xml version="1.0" encoding="UTF-8"?>
<svg width="16px" height="16px" viewBox="0 0 16 16" version="1.1" xmlns="http://www.w3.org/2000/svg" xmlns:xlink="http://www.w3.org/1999/xlink">
    <title>画板</title>
    <g id="画板" stroke="none" stroke-width="1" fill="none" fill-rule="evenodd">
        <path d="M7.999998,0.9 C11.921198,0.9 15.099998,4.07878 15.099998,8 C15.099998,11.9212 11.921198,15.1 7.999998,15.1 C4.078778,15.1 0.9,11.9212 0.9,8 C0.9,4.07878 4.078778,0.9 7.999998,0.9 Z M7.999998,2.1 C4.741518,2.1 2.099998,4.74152 2.099998,8 C2.099998,11.2585 4.741518,13.9 7.999998,13.9 C11.258498,13.9 13.899998,11.2585 13.899998,8 C13.899998,4.74152 11.258498,2.1 7.999998,2.1 Z M10.075698,5.07574 L10.924298,5.92426 L8.848528,8 L10.924298,10.0757 L10.075698,10.9243 L7.999998,8.84853 L5.924268,10.9243 L5.075738,10.0757 L7.151468,8 L5.075738,5.92426 L5.924268,5.07574 L7.999998,7.15147 L10.075698,5.07574 Z" id="形状" fill="#1E2226" fill-rule="nonzero"></path>
    </g>
</svg>