<svg width="16" height="16" viewBox="0 0 16 16" fill="none" xmlns="http://www.w3.org/2000/svg">
<path d="M1.3999 1.99999C1.3999 1.66862 1.66853 1.39999 1.9999 1.39999H5.9999V2.59999H2.5999V5.99999H1.3999V1.99999ZM14.4242 2.42426L10.9484 5.89999H13.4999V7.09999H9.4999C9.16853 7.09999 8.8999 6.83136 8.8999 6.49999V2.49999H10.0999V5.05147L13.5756 1.57573L14.4242 2.42426ZM5.05137 10.1H2.4999V8.89999H6.4999C6.83127 8.89999 7.0999 9.16862 7.0999 9.49999V13.5H5.8999V10.9485L2.42417 14.4243L1.57564 13.5757L5.05137 10.1ZM14.5999 9.99999L14.5999 14C14.5999 14.1591 14.5367 14.3117 14.4242 14.4243C14.3116 14.5368 14.159 14.6 13.9999 14.6H9.9999V13.4H13.3999L13.3999 9.99999H14.5999Z" fill="#1E2226"/>
</svg>
