<svg width="16" height="16" viewBox="0 0 16 16" fill="none" xmlns="http://www.w3.org/2000/svg">
<path d="M3.4999 0.9C2.61625 0.9 1.8999 1.61634 1.8999 2.5V13.5C1.8999 14.3837 2.61625 15.1 3.4999 15.1H12.4999C13.3836 15.1 14.0999 14.3837 14.0999 13.5V4.91421C14.0999 4.48987 13.9313 4.0829 13.6313 3.78284L11.2171 1.36863C10.917 1.06857 10.51 0.9 10.0857 0.9H3.4999ZM3.0999 2.5C3.0999 2.27909 3.27899 2.1 3.4999 2.1H10.0857C10.1918 2.1 10.2935 2.14214 10.3685 2.21716L12.7827 4.63137C12.8578 4.70639 12.8999 4.80813 12.8999 4.91421V13.5C12.8999 13.7209 12.7208 13.9 12.4999 13.9H3.4999C3.27899 13.9 3.0999 13.7209 3.0999 13.5V2.5ZM4.4999 8.6H10.4999V7.4H4.4999V8.6ZM4.4999 11.1H7.9999V9.9H4.4999V11.1ZM5.4999 6C6.05219 6 6.4999 5.55228 6.4999 5C6.4999 4.44771 6.05219 4 5.4999 4C4.94762 4 4.4999 4.44771 4.4999 5C4.4999 5.55228 4.94762 6 5.4999 6Z" fill="#1E2226"/>
</svg>
