<svg width="16" height="16" viewBox="0 0 16 16" fill="none" xmlns="http://www.w3.org/2000/svg">
<path d="M1.8999 2.49999C1.8999 1.89248 2.39239 1.39999 2.9999 1.39999H12.9999C13.6074 1.39999 14.0999 1.89248 14.0999 2.49999V4.04289C14.0999 4.33462 13.984 4.61441 13.7777 4.8207L10.5999 7.99852V13.25C10.5999 13.5253 10.4125 13.7653 10.1454 13.8321L6.14542 14.8321C5.96618 14.8769 5.77628 14.8366 5.63065 14.7229C5.48503 14.6092 5.3999 14.4348 5.3999 14.25V7.99852L2.22208 4.8207C2.01579 4.61441 1.8999 4.33463 1.8999 4.04289V2.49999ZM3.0999 2.59999V4.00147L6.5999 7.50147V13.4815L9.3999 12.7815V7.50147L12.8999 4.00147V2.59999H3.0999Z" fill="#1E2226"/>
</svg>
