<svg width="16" height="16" viewBox="0 0 16 16" fill="none" xmlns="http://www.w3.org/2000/svg">
<path d="M1.14999 3.24999C1.14999 2.36634 1.86634 1.64999 2.74999 1.64999H6.20983C6.60458 1.64999 6.96905 1.86151 7.1649 2.20424L7.84819 3.39999H13.25C14.1336 3.39999 14.85 4.11634 14.85 4.99999V12.75C14.85 13.6336 14.1336 14.35 13.25 14.35H2.74999C1.86634 14.35 1.14999 13.6336 1.14999 12.75V3.24999ZM6.46609 3.39999L6.1518 2.84999H2.74999C2.52908 2.84999 2.34999 3.02908 2.34999 3.24999V3.39999H6.46609ZM2.34999 4.59999V12.75C2.34999 12.9709 2.52908 13.15 2.74999 13.15H13.25C13.4709 13.15 13.65 12.9709 13.65 12.75V4.99999C13.65 4.77908 13.4709 4.59999 13.25 4.59999H2.34999Z" fill="#1E2226"/>
</svg>
