<svg width="16" height="16" viewBox="0 0 16 16" fill="none" xmlns="http://www.w3.org/2000/svg">
<path d="M2.74999 1.65C1.86634 1.65 1.14999 2.36634 1.14999 3.25V4V12.75C1.14999 13.6337 1.86634 14.35 2.74999 14.35H3.01019H11H11.9817C12.7066 14.35 13.3409 13.8627 13.5277 13.1623L14.9944 7.66226C15.2652 6.64651 14.4996 5.65 13.4484 5.65H13.35V5C13.35 4.11634 12.6336 3.4 11.75 3.4H7.84819L7.1649 2.20425C6.96905 1.86151 6.60457 1.65 6.20983 1.65H2.74999ZM12.15 5.65H4.29352C3.54993 5.65 2.90434 6.16229 2.73538 6.88643L2.34999 8.53807V4V3.25C2.34999 3.02909 2.52908 2.85 2.74999 2.85H6.1518L6.97905 4.29768L7.1518 4.6H7.49999H11.75C11.9709 4.6 12.15 4.77909 12.15 5V5.65ZM3.01019 13.15C2.75255 13.15 2.56211 12.91 2.62065 12.6591L3.90399 7.15911C3.94623 6.97807 4.10762 6.85 4.29352 6.85H13.4484C13.7112 6.85 13.9026 7.09913 13.8349 7.35306L12.3682 12.8531C12.3215 13.0282 12.1629 13.15 11.9817 13.15H11H3.01019Z" fill="#1E2226"/>
</svg>
