<svg width="16" height="16" viewBox="0 0 16 16" fill="none" xmlns="http://www.w3.org/2000/svg">
<path d="M2.74999 1.64999C1.86634 1.64999 1.14999 2.36634 1.14999 3.24999V3.99999V12.75C1.14999 13.6336 1.86634 14.35 2.74999 14.35H7.99999V13.15H2.74999C2.52908 13.15 2.34999 12.9709 2.34999 12.75V4.59999H7.49999H13.25C13.4709 4.59999 13.65 4.77908 13.65 4.99999V7.99999H14.85V4.99999C14.85 4.11634 14.1336 3.39999 13.25 3.39999H7.84819L7.1649 2.20424C6.96905 1.86151 6.60458 1.64999 6.20983 1.64999H2.74999ZM6.46609 3.39999H2.34999V3.24999C2.34999 3.02908 2.52908 2.84999 2.74999 2.84999H6.1518L6.46609 3.39999ZM11.65 9.24999V11.4H9.49999V12.6H11.65V14.75H12.85V12.6H15V11.4H12.85V9.24999H11.65Z" fill="#1E2226"/>
</svg>
