<svg width="16" height="16" viewBox="0 0 16 16" fill="none" xmlns="http://www.w3.org/2000/svg">
<path d="M2.74999 1.64999C1.86634 1.64999 1.14999 2.36634 1.14999 3.24999V3.99999V12.75C1.14999 13.6336 1.86634 14.35 2.74999 14.35H7.99999V13.15H2.74999C2.52908 13.15 2.34999 12.9709 2.34999 12.75V4.59999H7.49999H13.25C13.4709 4.59999 13.65 4.77908 13.65 4.99999V7.99999H14.85V4.99999C14.85 4.11634 14.1336 3.39999 13.25 3.39999H7.84819L7.1649 2.20424C6.96905 1.86151 6.60458 1.64999 6.20983 1.64999H2.74999ZM6.46609 3.39999H2.34999V3.24999C2.34999 3.02908 2.52908 2.84999 2.74999 2.84999H6.1518L6.46609 3.39999ZM10.85 11.7187C10.85 10.9628 11.4628 10.35 12.2187 10.35C12.9747 10.35 13.5875 10.9628 13.5875 11.7187C13.5875 12.4747 12.9747 13.0875 12.2187 13.0875C11.4628 13.0875 10.85 12.4747 10.85 11.7187ZM12.2187 9.14999C10.8001 9.14999 9.64999 10.3001 9.64999 11.7187C9.64999 13.1374 10.8001 14.2875 12.2187 14.2875C12.7107 14.2875 13.1703 14.1492 13.5609 13.9094L14.3257 14.6743L15.1743 13.8257L14.4094 13.0609C14.6492 12.6703 14.7875 12.2107 14.7875 11.7187C14.7875 10.3001 13.6374 9.14999 12.2187 9.14999Z" fill="#1E2226"/>
</svg>
