<svg width="16" height="16" viewBox="0 0 16 16" fill="none" xmlns="http://www.w3.org/2000/svg">
<path d="M1.6499 2.25002C1.6499 1.64251 2.14239 1.15002 2.7499 1.15002H11.4999C12.1074 1.15002 12.5999 1.64251 12.5999 2.25002V3.65002H13.75C14.0813 3.65002 14.35 3.91865 14.35 4.25002V8.25002C14.35 8.53603 14.1481 8.78228 13.8676 8.83837L6.84998 10.2419V11H7.1999C7.36559 11 7.4999 11.1343 7.4999 11.3V13.7969C7.4999 13.9196 7.42522 14.0299 7.31132 14.0755L5.41132 14.8355C5.21426 14.9143 4.9999 14.7692 4.9999 14.5569V11.3C4.9999 11.1343 5.13422 11 5.2999 11H5.64998V9.75002C5.64998 9.46402 5.85185 9.21777 6.13231 9.16168L13.15 7.75814V4.85002H12.5999V6.25002C12.5999 6.85754 12.1074 7.35002 11.4999 7.35002H2.7499C2.14239 7.35002 1.6499 6.85754 1.6499 6.25002V2.25002ZM2.8499 2.35002V6.15002H11.3999V2.35002H2.8499Z" fill="#1E2226"/>
</svg>
