<svg width="16" height="16" viewBox="0 0 16 16" fill="none" xmlns="http://www.w3.org/2000/svg">
<path d="M2.7501 1.59998C1.83883 1.59998 1.1001 2.33871 1.1001 3.24998V12.75C1.1001 13.6612 1.83883 14.4 2.7501 14.4H13.2501C14.1614 14.4 14.9001 13.6612 14.9001 12.75V3.24998C14.9001 2.33871 14.1614 1.59998 13.2501 1.59998H2.7501ZM2.4001 3.24998C2.4001 3.05668 2.5568 2.89998 2.7501 2.89998H13.2501C13.4434 2.89998 13.6001 3.05668 13.6001 3.24998V12.75C13.6001 12.9433 13.4434 13.1 13.2501 13.1H2.7501C2.5568 13.1 2.4001 12.9433 2.4001 12.75V3.24998ZM4.5001 5.59998H11.5001V6.89998H4.5001V5.59998ZM4.5001 9.09998H9.5001V10.4H4.5001V9.09998Z" fill="#1E2226"/>
</svg>
