<svg width="16" height="16" viewBox="0 0 16 16" fill="none" xmlns="http://www.w3.org/2000/svg">
<path d="M1.3999 1.99999C1.3999 1.66862 1.66853 1.39999 1.9999 1.39999H5.9999V2.59999H2.5999V5.99999H1.3999V1.99999ZM12.5514 2.59999H9.9999V1.39999H13.9999C14.3313 1.39999 14.5999 1.66862 14.5999 1.99999V5.99999H13.3999V3.44852L9.92417 6.92426L9.07564 6.07573L12.5514 2.59999ZM6.92417 9.92426L3.44843 13.4H5.9999V14.6H1.9999C1.66853 14.6 1.3999 14.3314 1.3999 14V9.99999H2.5999V12.5515L6.07564 9.07573L6.92417 9.92426ZM14.5999 9.99999L14.5999 14C14.5999 14.1591 14.5367 14.3117 14.4242 14.4243C14.3116 14.5368 14.159 14.6 13.9999 14.6H9.9999V13.4H13.3999L13.3999 9.99999H14.5999Z" fill="#1E2226"/>
</svg>
