<svg width="16" height="16" viewBox="0 0 16 16" fill="none" xmlns="http://www.w3.org/2000/svg">
<path d="M3.25 2.59999H12.75C12.9709 2.59999 13.15 2.77908 13.15 2.99999V10.4H2.85V2.99999C2.85 2.77908 3.02909 2.59999 3.25 2.59999ZM14.35 10.4V2.99999C14.35 2.11634 13.6337 1.39999 12.75 1.39999H3.25C2.36634 1.39999 1.65 2.11634 1.65 2.99999V10.4H1V11.6H7.4V12.0842L3.78933 13.4382L4.21067 14.5618L7.4 13.3658V14.5H8.6V13.3658L11.7893 14.5618L12.2107 13.4382L8.6 12.0842V11.6H15V10.4H14.35ZM9.19598 7.90137L11.446 5.40137L10.554 4.59861L8.72708 6.62855L7.67426 5.57573L7.22708 5.12855L6.80402 5.59861L4.55402 8.09861L5.44598 8.90137L7.27292 6.87144L8.32574 7.92426L8.77292 8.37144L9.19598 7.90137Z" fill="#1E2226"/>
</svg>
