<svg width="16" height="16" viewBox="0 0 16 16" fill="none" xmlns="http://www.w3.org/2000/svg">
<path d="M1.8999 2.5C1.8999 1.61634 2.61625 0.9 3.4999 0.9H9.9999C10.159 0.9 10.3116 0.963214 10.4242 1.07574L13.9242 4.57574C14.0367 4.68826 14.0999 4.84087 14.0999 5V13.5C14.0999 14.3837 13.3836 15.1 12.4999 15.1H3.4999C2.61625 15.1 1.8999 14.3837 1.8999 13.5V2.5ZM3.4999 2.1C3.27899 2.1 3.0999 2.27909 3.0999 2.5V13.5C3.0999 13.5164 3.10089 13.5326 3.10282 13.5486L9.17514 7.47623C9.643 7.00838 10.415 7.05645 10.8212 7.57872L12.8999 10.2513V5.6H10.4999C9.89239 5.6 9.3999 5.10751 9.3999 4.5V2.1H3.4999ZM12.4999 13.9C12.7208 13.9 12.8999 13.7209 12.8999 13.5V12.2059L9.94357 8.40486L4.44843 13.9H12.4999ZM10.5999 2.94853V4.4H12.0514L10.5999 2.94853ZM5.2499 6.25C5.80219 6.25 6.2499 5.80228 6.2499 5.25C6.2499 4.69771 5.80219 4.25 5.2499 4.25C4.69762 4.25 4.2499 4.69771 4.2499 5.25C4.2499 5.80228 4.69762 6.25 5.2499 6.25Z" fill="#1E2226"/>
</svg>
