<svg width="16" height="16" viewBox="0 0 16 16" fill="none" xmlns="http://www.w3.org/2000/svg">
<path d="M0.649902 5.93523C0.649902 3.56441 2.58485 1.64999 4.9624 1.64999C6.1468 1.64999 7.22047 2.12493 7.9999 2.89337C8.77933 2.12493 9.853 1.64999 11.0374 1.64999C13.4149 1.64999 15.3499 3.56441 15.3499 5.93523C15.3499 8.00998 14.1247 9.91345 12.6856 11.3561C11.2403 12.805 9.47466 13.8953 8.18786 14.3198C8.06579 14.3601 7.93401 14.3601 7.81194 14.3198C6.52515 13.8953 4.75953 12.805 3.31418 11.3561C1.87511 9.91345 0.649902 8.00998 0.649902 5.93523ZM4.9624 2.84999C3.23924 2.84999 1.8499 4.23547 1.8499 5.93523C1.8499 7.54571 2.81844 9.15995 4.16375 10.5086C5.42686 11.7748 6.93054 12.7137 7.9999 13.1139C9.06927 12.7137 10.5729 11.7748 11.8361 10.5086C13.1814 9.15995 14.1499 7.54571 14.1499 5.93523C14.1499 4.23547 12.7606 2.84999 11.0374 2.84999C9.98332 2.84999 9.05276 3.36866 8.48927 4.16298C8.37676 4.32158 8.19436 4.41582 7.9999 4.41582C7.80545 4.41582 7.62305 4.32158 7.51054 4.16298C6.94704 3.36866 6.01649 2.84999 4.9624 2.84999Z" fill="#1E2226"/>
</svg>
