<svg width="16" height="16" viewBox="0 0 16 16" fill="none" xmlns="http://www.w3.org/2000/svg">
<path d="M3.07971 6.34599C4.00906 7.36645 5.54266 8.39999 7.99995 8.39999C10.4572 8.39999 11.9908 7.36645 12.9202 6.34599C13.3898 5.8303 13.7081 5.31365 13.9083 4.9272C14.0081 4.73447 14.0777 4.57569 14.1214 4.46782C14.1433 4.41394 14.1586 4.37293 14.168 4.34694C14.1727 4.33394 14.1759 4.32472 14.1776 4.31953L14.1789 4.31584C14.1788 4.3161 14.1787 4.31638 14.7499 4.49999C15.3212 4.68359 15.3211 4.68391 15.321 4.68424L15.3201 4.68681L15.3185 4.69168L15.3136 4.70626C15.3096 4.7181 15.304 4.73415 15.2968 4.75411C15.2824 4.79403 15.2615 4.8497 15.2334 4.91887C15.1774 5.05709 15.0925 5.24987 14.9739 5.47902C14.7858 5.84217 14.5108 6.30059 14.1276 6.77909L15.9242 8.57572L15.0757 9.42425L13.3064 7.65496C12.68 8.22494 11.883 8.75504 10.8853 9.11741L11.3383 11.3823L10.1616 11.6177L9.72569 9.43812C9.1965 9.54184 8.62224 9.59999 7.99995 9.59999C7.37765 9.59999 6.80339 9.54184 6.2742 9.43812L5.8383 11.6177L4.6616 11.3823L5.11458 9.11741C4.11691 8.75504 3.31992 8.22494 2.6935 7.65496L0.924212 9.42425L0.0756836 8.57572L1.87232 6.77909C1.48914 6.30059 1.21408 5.84217 1.02602 5.47902C0.907357 5.24987 0.82252 5.05709 0.766454 4.91887C0.738399 4.8497 0.717483 4.79403 0.703083 4.75411C0.695881 4.73415 0.690302 4.7181 0.686271 4.70626L0.681372 4.69168L0.679773 4.68681L0.679182 4.68499C0.679075 4.68466 0.67873 4.68359 1.24995 4.49999C1.82116 4.31638 1.82107 4.3161 1.82099 4.31584L1.82066 4.31482L1.82225 4.31953C1.82401 4.32472 1.8272 4.33394 1.83189 4.34694C1.84127 4.37293 1.85661 4.41394 1.87846 4.46782C1.92221 4.57569 1.99181 4.73447 2.09162 4.9272C2.29175 5.31365 2.61007 5.8303 3.07971 6.34599ZM1.82066 4.31482C1.82058 4.31456 1.82057 4.31455 1.82066 4.31482ZM14.1792 4.3148C14.1793 4.31454 14.1793 4.31454 14.1792 4.3148Z" fill="#1E2226"/>
</svg>
