<svg width="16" height="16" viewBox="0 0 16 16" fill="none" xmlns="http://www.w3.org/2000/svg">
<path d="M3.47655 2.27277C3.59091 1.846 4.02958 1.59273 4.45635 1.70708L12.2803 3.80352C12.7071 3.91787 12.9604 4.35654 12.846 4.78331L12.3802 6.52198C12.3535 6.62151 12.3016 6.7125 12.2296 6.78617L9.02099 10.0675C8.89307 10.1984 8.71398 10.2623 8.53532 10.2454L8.11959 11.7955L8.00035 12.24L7.54006 12.24L4.43478 12.24L3.65287 12.2399L3.85524 11.4847L4.47858 9.15835C4.31544 9.0837 4.19239 8.93877 4.14703 8.76156L3.00897 4.31551C2.98342 4.21569 2.98401 4.11097 3.01068 4.01144L3.47655 2.27277ZM5.63552 9.47703L5.21673 11.04L7.07979 11.04L7.37405 9.94287L5.63552 9.47703ZM11.2617 6.05958L11.5834 4.8591L4.53214 2.96972L4.21047 4.1702L5.22253 8.12404L5.36655 8.16263L8.26432 8.93909L8.40833 8.97767L11.2617 6.05958ZM2.99995 14.6H13V13.4H2.99995V14.6Z" fill="#1E2226"/>
</svg>
