<svg width="16" height="16" viewBox="0 0 16 16" fill="none" xmlns="http://www.w3.org/2000/svg">
<path d="M8.24652 2.20483C8.10171 2.0915 7.89828 2.0915 7.75347 2.20483L3.00347 5.92222C2.9066 5.99803 2.84999 6.11421 2.84999 6.23722V13.4H5.89999V10.25C5.89999 9.64248 6.39248 9.15 6.99999 9.15H8.99999C9.60751 9.15 10.1 9.64248 10.1 10.25V13.4H13.15V6.23722C13.15 6.11421 13.0934 5.99803 12.9965 5.92222L8.24652 2.20483ZM7.0139 1.25982C7.59315 0.806499 8.40684 0.8065 8.98609 1.25982L13.7361 4.97721C14.1236 5.28047 14.35 5.74516 14.35 6.23722V13.7C14.35 14.1971 13.9471 14.6 13.45 14.6H9.79999C9.30294 14.6 8.89999 14.1971 8.89999 13.7V10.35H7.09999V13.7C7.09999 14.1971 6.69705 14.6 6.19999 14.6H2.54999C2.05294 14.6 1.64999 14.1971 1.64999 13.7V6.23722C1.64999 5.74516 1.8764 5.28047 2.2639 4.97721L7.0139 1.25982Z" fill="#1E2226"/>
</svg>
