<svg width="16" height="16" viewBox="0 0 16 16" fill="none" xmlns="http://www.w3.org/2000/svg">
<path d="M4.69767 1.48173C4.88449 1.37275 5.1155 1.37275 5.30232 1.48173L7.99999 3.05537L10.6977 1.48173C10.8845 1.37275 11.1155 1.37275 11.3023 1.48173L14.3023 3.23173C14.4866 3.33925 14.6 3.53659 14.6 3.74999V7.24999C14.6 7.46339 14.4866 7.66074 14.3023 7.76826L11.6 9.34461V12.5C11.6 12.7134 11.4866 12.9107 11.3023 13.0183L8.30232 14.7683C8.1155 14.8772 7.88449 14.8772 7.69767 14.7683L4.69767 13.0183C4.51334 12.9107 4.39999 12.7134 4.39999 12.5V9.34462L1.69767 7.76826C1.51334 7.66074 1.39999 7.46339 1.39999 7.24999V3.74999C1.39999 3.53659 1.51334 3.33925 1.69767 3.23173L4.69767 1.48173ZM4.99999 8.30537L7.39999 6.90537V4.09462L4.99999 2.69462L2.59999 4.09462V6.90537L4.99999 8.30537ZM8.59999 6.90537L11 8.30537L13.4 6.90537V4.09462L11 2.69462L8.59999 4.09462V6.90537ZM5.59999 9.34462V12.1554L7.99999 13.5554L10.4 12.1554V9.34462L7.99999 7.94462L5.59999 9.34462Z" fill="#1E2226"/>
</svg>
