<svg width="16" height="16" viewBox="0 0 16 16" fill="none" xmlns="http://www.w3.org/2000/svg">
<path d="M14 2.34998H2V3.64998H14V2.34998ZM14 5.68329H7V6.98329H14V5.68329ZM7 9.01666H14V10.3167H7V9.01666ZM14 12.35H2V13.65H14V12.35ZM5.05925 6.99998H2.44075C2.26892 6.99998 2.17709 6.79759 2.29024 6.66827L3.59948 5.17199C3.67917 5.08093 3.82083 5.08093 3.90052 5.17199L5.20976 6.66827C5.32291 6.79759 5.23108 6.99998 5.05925 6.99998ZM5.05925 8.99998H2.44075C2.26892 8.99998 2.17709 9.20236 2.29024 9.33168L3.59948 10.828C3.67917 10.919 3.82083 10.919 3.90052 10.828L5.20976 9.33168C5.32291 9.20236 5.23108 8.99998 5.05925 8.99998Z" fill="#1E2226"/>
</svg>
