<svg width="16" height="16" viewBox="0 0 16 16" fill="none" xmlns="http://www.w3.org/2000/svg">
<path d="M12.5254 3.47452C11.5882 2.53726 10.0686 2.53726 9.13131 3.47452L7.00999 5.59584L6.16146 4.74731L8.28278 2.62599C9.68867 1.2201 11.9681 1.2201 13.374 2.62599C14.7798 4.03187 14.7798 6.31127 13.374 7.71716L11.2526 9.83848L10.4041 8.98995L12.5254 6.86863C13.4627 5.93137 13.4627 4.41177 12.5254 3.47452ZM5.80791 9.3435L9.34344 5.80796L10.192 6.65649L6.65644 10.192L5.80791 9.3435ZM4.74725 6.16152L2.62593 8.28284C1.22004 9.68873 1.22004 11.9681 2.62593 13.374C4.03182 14.7799 6.31121 14.7799 7.7171 13.374L9.83842 11.2527L8.98989 10.4042L6.86857 12.5255C5.93131 13.4627 4.41172 13.4627 3.47446 12.5255C2.5372 11.5882 2.5372 10.0686 3.47446 9.13137L5.59578 7.01005L4.74725 6.16152Z" fill="#1E2226"/>
</svg>
