<svg width="16" height="16" viewBox="0 0 16 16" fill="none" xmlns="http://www.w3.org/2000/svg">
<path d="M12.5254 3.47445C11.5882 2.53719 10.0686 2.53719 9.13133 3.47445L7.71712 4.88866L6.86859 4.04013L8.2828 2.62592C9.68869 1.22003 11.9681 1.22003 13.374 2.62592C14.7799 4.03181 14.7799 6.3112 13.374 7.71709L11.9598 9.1313L11.1112 8.28277L12.5254 6.86856C13.4627 5.9313 13.4627 4.4117 12.5254 3.47445ZM11.4649 12.3134L3.68667 4.53518L4.5352 3.68665L12.3134 11.4648L11.4649 12.3134ZM4.04016 6.86856L2.62595 8.28277C1.22006 9.68866 1.22006 11.9681 2.62595 13.3739C4.03184 14.7798 6.31123 14.7798 7.71712 13.3739L9.13133 11.9597L8.2828 11.1112L6.86859 12.5254C5.93133 13.4627 4.41174 13.4627 3.47448 12.5254C2.53722 11.5882 2.53722 10.0686 3.47448 9.1313L4.88869 7.71709L4.04016 6.86856Z" fill="#1E2226"/>
</svg>
