<svg width="16" height="16" viewBox="0 0 16 16" fill="none" xmlns="http://www.w3.org/2000/svg">
<g clip-path="url(#clip0_1206_32024)">
<path d="M11.4679 3.22679C10.4599 2.49444 9.24595 2.09999 7.99999 2.09999V0.899994C9.49937 0.899994 10.9603 1.37466 12.1733 2.25597C13.3863 3.13728 14.2892 4.37999 14.7525 5.80597C15.2158 7.23196 15.2158 8.76803 14.7525 10.194C14.2892 11.62 13.3863 12.8627 12.1733 13.744C10.9603 14.6253 9.49937 15.1 7.99999 15.1C6.50062 15.1 5.03974 14.6253 3.82672 13.744C2.6137 12.8627 1.71082 11.62 1.24749 10.194C0.784161 8.76803 0.784161 7.23196 1.24749 5.80597L2.38876 6.17679C2.00374 7.36177 2.00374 8.63822 2.38876 9.82319C2.77378 11.0082 3.52406 12.0408 4.53206 12.7732C5.54006 13.5055 6.75404 13.9 7.99999 13.9C9.24595 13.9 10.4599 13.5056 11.4679 12.7732C12.4759 12.0408 13.2262 11.0082 13.6112 9.82319C13.9963 8.63822 13.9963 7.36177 13.6112 6.17679C13.2262 4.99182 12.4759 3.95915 11.4679 3.22679Z" fill="#1E2226"/>
</g>
<defs>
<clipPath id="clip0_1206_32024">
<rect width="16" height="16" fill="white"/>
</clipPath>
</defs>
</svg>
