<svg width="16" height="16" viewBox="0 0 16 16" fill="none" xmlns="http://www.w3.org/2000/svg">
<path d="M7.9999 2.1C5.13777 2.1 3.0999 4.31635 3.0999 7C3.0999 9.02124 4.23586 10.7518 5.50145 12.0124C6.12834 12.6368 6.76899 13.1272 7.27576 13.4589C7.52944 13.625 7.74362 13.7473 7.90021 13.8256C7.93864 13.8448 7.97185 13.8605 7.9999 13.873C8.02795 13.8605 8.06117 13.8448 8.09959 13.8256C8.25618 13.7473 8.47037 13.625 8.72404 13.4589C9.23081 13.1272 9.87146 12.6368 10.4984 12.0124C11.7639 10.7518 12.8999 9.02124 12.8999 7C12.8999 4.31635 10.862 2.1 7.9999 2.1ZM7.90098 13.9118C7.90107 13.9117 7.90371 13.9108 7.90861 13.9096C7.90334 13.9113 7.90089 13.9119 7.90098 13.9118ZM8.09119 13.9096C8.09605 13.9108 8.09869 13.9117 8.09882 13.9118C8.09895 13.9119 8.09651 13.9113 8.09119 13.9096ZM1.8999 7C1.8999 3.68365 4.44537 0.900002 7.9999 0.900002C11.5544 0.900002 14.0999 3.68365 14.0999 7C14.0999 9.47876 12.715 11.4982 11.3452 12.8626C10.6544 13.5507 9.94868 14.0915 9.38123 14.463C9.0978 14.6485 8.84291 14.7956 8.63605 14.899C8.53331 14.9504 8.43497 14.9947 8.34615 15.0277C8.28078 15.0519 8.14562 15.1 7.9999 15.1C7.85419 15.1 7.71903 15.0519 7.65366 15.0277C7.56484 14.9947 7.46649 14.9504 7.36375 14.899C7.1569 14.7956 6.90201 14.6485 6.61857 14.463C6.05112 14.0915 5.34542 13.5507 4.6546 12.8626C3.28478 11.4982 1.8999 9.47876 1.8999 7ZM7.9999 5.1C6.95056 5.1 6.0999 5.95066 6.0999 7C6.0999 8.04934 6.95056 8.9 7.9999 8.9C9.04924 8.9 9.8999 8.04934 9.8999 7C9.8999 5.95066 9.04924 5.1 7.9999 5.1ZM4.8999 7C4.8999 5.28792 6.28782 3.9 7.9999 3.9C9.71199 3.9 11.0999 5.28792 11.0999 7C11.0999 8.71208 9.71199 10.1 7.9999 10.1C6.28782 10.1 4.8999 8.71208 4.8999 7Z" fill="#1E2226"/>
</svg>
