<svg width="16" height="16" viewBox="0 0 16 16" fill="none" xmlns="http://www.w3.org/2000/svg">
<path d="M7.9999 2.1C9.87767 2.1 11.3999 3.62223 11.3999 5.5V6.9H4.5999V5.5C4.5999 3.62223 6.12213 2.1 7.9999 2.1ZM3.3999 5.5V6.90308C2.56283 6.9547 1.8999 7.64993 1.8999 8.5V13.5C1.8999 14.3837 2.61625 15.1 3.4999 15.1H12.4999C13.3836 15.1 14.0999 14.3837 14.0999 13.5V8.5C14.0999 7.64993 13.437 6.9547 12.5999 6.90308V5.5C12.5999 2.95949 10.5404 0.900002 7.9999 0.900002C5.45939 0.900002 3.3999 2.95949 3.3999 5.5ZM3.4999 8.1H12.4999C12.7208 8.1 12.8999 8.27909 12.8999 8.5V13.5C12.8999 13.7209 12.7208 13.9 12.4999 13.9H3.4999C3.27899 13.9 3.0999 13.7209 3.0999 13.5V8.5C3.0999 8.27909 3.27899 8.1 3.4999 8.1ZM7.3999 10V12.5H8.5999V10H7.3999Z" fill="#1E2226"/>
</svg>
