<svg width="16" height="16" viewBox="0 0 16 16" fill="none" xmlns="http://www.w3.org/2000/svg">
<path d="M3.8999 3.25C3.8999 2.0902 4.8401 1.15 5.9999 1.15H6.2499C6.94502 1.15 7.56965 1.45181 7.9999 1.93153C8.43015 1.45181 9.05478 1.15 9.7499 1.15H9.9999C11.1597 1.15 12.0999 2.0902 12.0999 3.25C12.0999 3.57208 12.0274 3.87722 11.8978 4.15H12.9999C13.8836 4.15 14.5999 4.86635 14.5999 5.75V7.75C14.5999 8.23515 14.2858 8.64695 13.8499 8.79315V13C13.8499 13.8837 13.1336 14.6 12.2499 14.6H3.7499C2.86625 14.6 2.1499 13.8837 2.1499 13V8.79315C1.71398 8.64695 1.3999 8.23515 1.3999 7.75V5.75C1.3999 4.86635 2.11625 4.15 2.9999 4.15H4.10199C3.97241 3.87722 3.8999 3.57208 3.8999 3.25ZM9.9999 5.35H8.5999H7.9999H7.3999H5.9999H2.9999C2.77899 5.35 2.5999 5.52909 2.5999 5.75V7.65H3.2499H12.7499H13.3999V5.75C13.3999 5.52909 13.2208 5.35 12.9999 5.35H9.9999ZM7.3999 4.15V3.5C7.3999 2.86487 6.88503 2.35 6.2499 2.35H5.9999C5.50285 2.35 5.0999 2.75295 5.0999 3.25C5.0999 3.74706 5.50285 4.15 5.9999 4.15H7.3999ZM9.9999 4.15C10.497 4.15 10.8999 3.74706 10.8999 3.25C10.8999 2.75295 10.497 2.35 9.9999 2.35H9.7499C9.11478 2.35 8.5999 2.86487 8.5999 3.5V4.15H9.9999ZM3.3499 8.85V13C3.3499 13.2209 3.52899 13.4 3.7499 13.4H12.2499C12.4708 13.4 12.6499 13.2209 12.6499 13V8.85H3.3499Z" fill="#1E2226"/>
</svg>
