<?xml version="1.0" encoding="UTF-8"?>
<svg width="16px" height="16px" viewBox="0 0 16 16" version="1.1" xmlns="http://www.w3.org/2000/svg" xmlns:xlink="http://www.w3.org/1999/xlink">
    <title>画板备份</title>
    <g id="画板备份" stroke="none" stroke-width="1" fill="none" fill-rule="evenodd">
        <path d="M7.999998,0.9 C11.921198,0.9 15.099998,4.078776 15.099998,7.999996 C15.099998,11.921206 11.921198,15.1000213 7.999998,15.1000213 C7.02798911,15.1000213 6.10047998,14.9043746 5.25564936,14.5499752 L4.942788,14.409706 L2.668648,15.075806 C2.465878,15.135206 2.246828,15.083606 2.091938,14.939906 C1.96285467,14.820156 1.894188,14.6511699 1.90037087,14.4785495 L1.913178,14.374906 L2.354118,12.305706 C1.442108,11.111406 0.9,9.618326 0.9,7.999996 C0.9,4.078776 4.078778,0.9 7.999998,0.9 Z M7.999998,2.099996 C4.741518,2.099996 2.099998,4.741516 2.099998,7.999996 C2.099998,9.434136 2.610928,10.747406 3.461318,11.769906 C3.555374,11.883026 3.6037916,12.02565 3.59977656,12.1702324 L3.586828,12.278606 L3.296398,13.641506 L4.831358,13.192006 C4.980078,13.148406 5.139888,13.164106 5.277308,13.235706 C6.091228,13.659906 7.016698,13.900006 7.999998,13.900006 C11.258498,13.900006 13.899998,11.258506 13.899998,7.999996 C13.899998,4.741516 11.258498,2.099996 7.999998,2.099996 Z M4.599998,7.100006 C5.097058,7.100006 5.499998,7.502946 5.499998,8.000006 C5.499998,8.497066 5.097058,8.900006 4.599998,8.900006 C4.102948,8.900006 3.699998,8.497066 3.699998,8.000006 C3.699998,7.502946 4.102948,7.100006 4.599998,7.100006 Z M7.999998,7.100006 C8.497058,7.100006 8.899998,7.502946 8.899998,8.000006 C8.899998,8.497066 8.497058,8.900006 7.999998,8.900006 C7.502948,8.900006 7.099998,8.497066 7.099998,8.000006 C7.099998,7.502946 7.502948,7.100006 7.999998,7.100006 Z M11.399998,7.100006 C11.897098,7.100006 12.299998,7.502946 12.299998,8.000006 C12.299998,8.497066 11.897098,8.900006 11.399998,8.900006 C10.902998,8.900006 10.499998,8.497066 10.499998,8.000006 C10.499998,7.502946 10.902998,7.100006 11.399998,7.100006 Z" id="形状" fill="#1E2226" fill-rule="nonzero"></path>
    </g>
</svg>