<?xml version="1.0" encoding="UTF-8"?>
<svg width="16px" height="16px" viewBox="0 0 16 16" version="1.1" xmlns="http://www.w3.org/2000/svg" xmlns:xlink="http://www.w3.org/1999/xlink">
    <title>画板备份 2</title>
    <g id="画板备份-2" stroke="none" stroke-width="1" fill="none" fill-rule="evenodd">
        <path d="M7.999998,0.9 C11.921198,0.9 15.099998,4.078778 15.099998,7.999998 C15.099998,11.921198 11.921198,15.099998 7.999998,15.099998 C4.078778,15.099998 0.9,11.921198 0.9,7.999998 C0.9,4.078778 4.078778,0.9 7.999998,0.9 Z M7.999998,2.099998 C4.741518,2.099998 2.099998,4.741518 2.099998,7.999998 C2.099998,11.258498 4.741518,13.899998 7.999998,13.899998 C11.258498,13.899998 13.899998,11.258498 13.899998,7.999998 C13.899998,4.741518 11.258498,2.099998 7.999998,2.099998 Z M9.575738,4.575738 L10.424298,5.424268 L8.948528,6.899998 L10.499998,6.899998 L10.499998,8.099998 L8.599998,8.099998 L8.599998,8.899998 L10.499998,8.899998 L10.499998,10.099998 L8.599998,10.099998 L8.599998,11.499998 L7.399998,11.499998 L7.399998,10.099998 L5.499998,10.099998 L5.499998,8.899998 L7.399998,8.899998 L7.399998,8.099998 L5.499998,8.099998 L5.499998,6.899998 L7.051468,6.899998 L5.575738,5.424268 L6.424268,4.575738 L7.999998,6.151468 L9.575738,4.575738 Z" id="形状" fill="#1E2226" fill-rule="nonzero"></path>
    </g>
</svg>