<?xml version="1.0" encoding="UTF-8"?>
<svg width="16px" height="16px" viewBox="0 0 16 16" version="1.1" xmlns="http://www.w3.org/2000/svg" xmlns:xlink="http://www.w3.org/1999/xlink">
    <title>画板</title>
    <g id="画板" stroke="none" stroke-width="1" fill="none" fill-rule="evenodd">
        <g id="ReturnLine" transform="translate(0.900000, 0.900000)" fill="#1E2226" fill-rule="nonzero">
            <path d="M1.479398,2.761516 C2.777378,1.082426 4.811938,0 7.099998,0 C11.021198,0 14.199998,3.178776 14.199998,7.099996 C14.199998,11.021176 11.021198,14.199976 7.099998,14.199976 C3.178778,14.199976 0,11.021176 0,7.099996 L1.199998,7.099996 C1.199998,10.358476 3.841518,12.999976 7.099998,12.999976 C10.358498,12.999976 13,10.358476 13,7.099996 C13,3.841516 10.358498,1.199996 7.099998,1.199996 C4.822958,1.199996 2.846168,2.489776 1.862148,4.381416 C1.752338,4.592506 1.528168,4.718756 1.290738,4.703246 C1.053308,4.687736 0.847468,4.533386 0.766068,4.309806 L0.036849,2.307036 L0.036485,2.306036 L1.163788,1.894726 L1.479398,2.761516 Z" id="路径"></path>
            <path d="M5.764298,4.805566 C5.304408,4.288526 4.791778,3.832666 4.251588,3.401246 L3.525558,4.090496 C4.070998,4.527486 4.580838,4.990926 5.012988,5.541946 L5.764298,4.805566 Z M5.469298,5.961456 L3.457678,5.961456 L3.457678,6.933206 L4.486188,6.933206 L4.486188,8.855126 C4.022888,9.135776 3.687918,9.677676 3.407228,10.129976 L4.174178,10.838276 C4.352648,10.524976 4.528648,10.202476 4.754988,9.921076 C4.871538,9.776176 4.961878,9.721976 4.968798,9.719576 C4.984628,9.721276 5.037278,9.738476 5.134618,9.856076 L5.138018,9.859876 C5.382778,10.135776 5.666448,10.337376 6.005518,10.438576 L6.013108,10.440476 C6.341978,10.520176 6.760588,10.566676 7.258858,10.574376 C8.349978,10.591376 9.440898,10.589676 10.532098,10.589676 L10.797098,9.557776 C9.530398,9.647776 8.257688,9.632876 6.988788,9.610376 C6.653508,9.598776 6.389498,9.556276 6.192438,9.493776 C7.004758,9.357676 7.811788,9.198276 8.609168,8.990136 L8.408288,8.181496 C9.000758,8.589286 9.545098,9.051316 10.048898,9.563776 L10.689198,8.795186 C10.390298,8.505716 10.080998,8.228946 9.750198,7.976056 C9.972998,7.760546 10.178598,7.529826 10.379598,7.294216 L9.854698,6.895046 L10.135998,6.895046 L10.135998,3.633206 L6.059658,3.633206 L6.059658,8.462596 C6.059658,8.577926 5.868258,8.617396 5.777828,8.650096 L5.963958,9.390576 C5.773608,9.266676 5.634108,9.096036 5.469298,8.939586 L5.469298,5.961456 Z M7.239798,7.459076 C7.585348,7.656176 7.927288,7.858786 8.258268,8.079796 C7.865088,8.194406 7.467508,8.292776 7.065798,8.372646 L7.065798,6.895046 L7.702218,6.895046 L7.239798,7.459076 Z M8.972788,7.415926 C8.708038,7.237936 8.429878,7.064306 8.135098,6.895046 L9.467498,6.895046 C9.323098,7.067296 9.156098,7.240866 8.972788,7.415926 Z M7.065778,4.816426 L7.065778,4.574446 L9.122098,4.574446 L9.122098,4.816426 L7.065778,4.816426 Z M7.065778,5.953836 L7.065778,5.711846 L9.122098,5.711846 L9.122098,5.953836 L7.065778,5.953836 Z" id="形状"></path>
        </g>
    </g>
</svg>