<?xml version="1.0" encoding="UTF-8"?>
<svg width="16px" height="16px" viewBox="0 0 16 16" version="1.1" xmlns="http://www.w3.org/2000/svg" xmlns:xlink="http://www.w3.org/1999/xlink">
    <title>画板</title>
    <g id="画板" stroke="none" stroke-width="1" fill="none" fill-rule="evenodd">
        <g id="ReplaceLine" transform="translate(0.000000, 0.900000)" fill="#1E2226" fill-rule="nonzero">
            <path d="M8,1.199996 C5.06116836,1.199996 2.62500461,3.364536 2.19001665,6.191566 C2.15080565,6.446416 1.95370438,6.647626 1.70046213,6.691326 C1.44720991,6.735026 1.1944659,6.611446 1.07267764,6.384366 L7.39838905e-16,4.384366 L1.05292765,3.815636 L1.41690734,4.494276 C2.452257,1.862156 5.00903318,-1.11022302e-16 8,-1.11022302e-16 C11.5378185,-1.11022302e-16 14.4681305,2.605286 14.9917742,6.008436 L13.8099637,6.191566 C13.3750057,3.364536 10.9388419,1.199996 8,1.199996 Z M14.2995282,7.508676 C14.5528302,7.464986 14.8055344,7.588566 14.9273027,7.815646 L16,9.815676 L14.9470328,10.384376 L14.5830232,9.705776 C13.5476935,12.337876 10.9909572,14.199976 8.00000015,14.199976 C4.46222164,14.199976 1.53188972,11.594676 1.00826199,8.191566 L2.19001665,8.008436 C2.62500461,10.835476 5.06116836,12.9999697 8.00000015,12.9999697 C10.9388419,12.9999697 13.3750057,10.835476 13.8099637,8.008436 C13.8492245,7.753586 14.0463258,7.552376 14.2995282,7.508676 Z M9.29356444,3.573166 L8.23914239,3.436096 C7.99687124,4.069416 7.59697887,4.585086 7.05101432,4.987996 L7.05101432,4.779786 L6.37790052,4.779786 L6.37790052,3.502306 L5.30967739,3.502306 L5.30967739,4.779786 L4.51081936,4.779786 L4.51081936,5.834326 L5.30967739,5.834326 L5.30967739,7.109476 C4.98857571,7.219846 4.66028949,7.303416 4.33010998,7.380966 L4.60743685,8.480586 C4.84206509,8.396956 5.07656379,8.312976 5.30967739,8.225166 L5.30967739,9.501776 C5.30967739,9.577276 5.29625498,9.628276 5.21505284,9.628276 C4.97460523,9.628276 4.73827303,9.591476 4.50146253,9.554676 L4.4797794,9.551276 L4.72631542,10.622976 L5.48133885,10.622976 C5.75411187,10.622976 5.98577063,10.550676 6.14791582,10.383276 C6.27073044,10.256476 6.33980557,10.089376 6.36581337,9.894776 L7.0532763,10.793276 C7.88376222,10.337376 8.68272986,9.761176 9.15036209,8.912636 C9.64425125,9.740976 10.3816173,10.336976 11.2060945,10.810876 L11.6868901,9.787976 C11.046859,9.489176 10.4504732,9.108476 10.0325547,8.523756 L11.58535,8.523756 L11.58535,7.506576 L11.1932401,7.506576 L11.1932401,5.482026 L10.1084855,5.482026 C10.254767,5.236406 10.3859021,4.982126 10.5127524,4.725936 L10.5127524,3.987896 L9.12781204,3.987896 C9.17166657,3.882306 9.21359792,3.775916 9.25552928,3.669526 C9.26819438,3.637396 9.28084951,3.605276 9.29356444,3.573166 Z M7.05101432,5.834326 L7.05101432,5.750596 L7.15150807,5.884036 L7.15150807,7.506576 L6.90734364,7.506576 C6.95316121,7.482196 6.99888911,7.457646 7.044617,7.433106 C7.05415319,7.427986 7.06367942,7.422876 7.07320565,7.417766 L7.07320565,6.281866 C6.84271275,6.409526 6.6120106,6.536556 6.37790052,6.657456 L6.37790052,5.834326 L7.05101432,5.834326 Z M6.37790052,7.774886 C6.48525993,7.724246 6.59253962,7.670736 6.70029762,7.615186 L6.70029762,8.523756 L8.14907169,8.523756 C7.72365978,9.168676 7.04897156,9.560976 6.36742765,9.882176 C6.3744926,9.824876 6.37790052,9.765176 6.37790052,9.703576 L6.37790052,7.774886 Z M8.08914413,5.482026 C8.26809973,5.311626 8.43212825,5.131586 8.57952572,4.945316 L9.30584092,4.945316 C9.19161585,5.141186 9.08122718,5.321376 8.97457526,5.482026 L8.08914413,5.482026 Z M8.13096587,7.506576 L8.13096587,6.461856 L8.6328467,6.461856 C8.61650463,6.848746 8.58196707,7.196826 8.52966249,7.506576 L8.13096587,7.506576 Z M9.56714459,7.506576 C9.60791008,7.200296 9.63539265,6.851896 9.64990122,6.461856 L10.2138121,6.461856 L10.2138121,7.506576 L9.56714459,7.506576 Z" id="形状"></path>
        </g>
    </g>
</svg>