<svg width="16" height="16" viewBox="0 0 16 16" fill="none" xmlns="http://www.w3.org/2000/svg">
<path d="M2.46764 6.25H3.5V2H2.74786L1.75 2.77995L2.05262 3.388L2.47081 3.23766C2.4775 4.24176 2.47712 5.24592 2.46764 6.25ZM14.5 3.60436H5V2.40436H14.5V3.60436ZM14.5 8.6123H5V7.4123H14.5V8.6123ZM5 13.6H14.5V12.4H5V13.6ZM1.52453 11.1183C1.5579 10.7247 1.66571 10.3749 1.97012 10.1008C2.22882 9.86781 2.53935 9.75 2.8933 9.75C3.49412 9.75 4.05051 10.0842 4.21114 10.6776C4.36831 11.2309 4.02592 11.6879 3.68738 12.0888L2.86866 13.0926H4.1977V14H1.5L1.50399 13.2841L3.20641 11.219C3.32056 11.0782 3.34417 10.9536 3.28658 10.8417C3.16241 10.6005 2.76916 10.6192 2.59147 10.7808C2.44602 10.9157 2.46836 11.0946 2.46836 11.2753L1.52453 11.1183Z" fill="#1E2226"/>
</svg>
