<?xml version="1.0" encoding="UTF-8"?>
<svg width="16px" height="16px" viewBox="0 0 16 16" version="1.1" xmlns="http://www.w3.org/2000/svg" xmlns:xlink="http://www.w3.org/1999/xlink">
    <title>画板</title>
    <g id="画板" stroke="none" stroke-width="1" fill="none" fill-rule="evenodd">
        <g id="ReturnIn15DaysLine" transform="translate(0.000000, 0.900000)" fill="#1E2226" fill-rule="nonzero">
            <path d="M2.20645198,6.191566 C2.64020341,3.364536 5.06949762,1.199996 8.00005237,1.199996 C10.9305574,1.199996 13.3598516,3.364536 13.7936826,6.191566 L14.9720612,6.008436 C14.4498941,2.605286 11.527845,-1.11022302e-16 8.00005237,-1.11022302e-16 C5.08297162,-1.11022302e-16 2.58004738,1.781326 1.50567492,4.322126 L1.09517508,3.362706 L3.30954479e-16,3.837296 L1.06964801,6.337296 C1.17478693,6.583016 1.42886519,6.728996 1.69257199,6.695196 C1.95627879,6.661386 2.16588093,6.455966 2.20645198,6.191566 Z M14.9304269,7.862726 C14.8252979,7.616996 14.5712197,7.471006 14.3075029,7.504806 C14.0437862,7.538616 13.8342238,7.744036 13.7936826,8.008436 C13.3598516,10.835476 10.9305574,12.9999716 8.00005237,12.9999716 C5.06950756,12.9999716 2.64020341,10.835476 2.20645198,8.008436 L1.02802667,8.191566 C1.55018085,11.594676 4.47224976,14.199976 8.00005237,14.199976 C10.917143,14.199976 13.4200673,12.418676 14.4944099,9.877876 L14.9048899,10.837276 L16,10.362676 L14.9304269,7.862726 Z M6.5271437,3.899996 L5.61924865,3.899996 C5.41732748,4.139556 5.18763358,4.341766 4.92745426,4.516236 C4.65758678,4.680076 4.37763368,4.795616 4.07506492,4.878456 L4.07506492,6.193656 C4.51288042,6.055636 4.93698344,5.900566 5.30933677,5.621216 L5.30933677,10.184576 L6.5271437,10.184576 L6.5271437,3.899996 Z M11.1873186,3.899996 L7.57064321,3.899996 L7.24151399,7.596696 L8.34989935,7.596696 C8.44765539,7.397886 8.55402644,7.209736 8.75978313,7.105736 L8.76551653,7.102596 C8.90919943,7.023926 9.07736605,6.986806 9.29520561,6.986806 C9.60944984,6.986806 9.82066171,7.084436 9.97189641,7.262786 C10.127384,7.446176 10.2178068,7.715646 10.2178068,8.097246 C10.2178068,8.431356 10.1205277,8.674546 9.93756553,8.862226 C9.74982386,9.046666 9.52194835,9.141776 9.24252188,9.141776 C9.03114109,9.141776 8.81293388,9.099956 8.64473745,8.963506 C8.40329851,8.767656 8.37396574,8.457996 8.347604,8.169226 L7.14796113,8.169226 C7.19195035,8.805146 7.35255523,9.397476 7.86724008,9.817876 C8.25065282,10.137076 8.70970278,10.299976 9.23498996,10.299976 C9.81631943,10.299976 10.3232339,10.110076 10.7449422,9.729776 L10.7489168,9.725976 C11.1968577,9.299076 11.4280818,8.751146 11.4280818,8.089006 C11.4280818,7.418856 11.2526019,6.873186 10.8971705,6.465356 C10.5408449,6.056576 10.0710436,5.853286 9.51346251,5.853286 C9.14415971,5.853286 8.79219624,5.953146 8.49814313,6.138576 L8.59564082,5.091206 L11.1873186,5.091206 L11.1873186,3.899996 Z" id="形状"></path>
        </g>
    </g>
</svg>