<?xml version="1.0" encoding="UTF-8"?>
<svg width="16px" height="16px" viewBox="0 0 16 16" version="1.1" xmlns="http://www.w3.org/2000/svg" xmlns:xlink="http://www.w3.org/1999/xlink">
    <title>画板</title>
    <g id="画板" stroke="none" stroke-width="1" fill="none" fill-rule="evenodd">
        <g id="RefundLine" transform="translate(0.900000, 0.900000)" fill="#1E2226" fill-rule="nonzero">
            <path d="M1.479398,2.761516 C2.777378,1.082426 4.811938,-1.11022302e-16 7.099998,-1.11022302e-16 C11.021198,-1.11022302e-16 14.199998,3.178776 14.199998,7.099996 C14.199998,11.021176 11.021198,14.199976 7.099998,14.199976 C3.178778,14.199976 0,11.021176 0,7.099996 L1.199998,7.099996 C1.199998,10.358476 3.841518,12.999976 7.099998,12.999976 C10.358498,12.999976 13,10.358476 13,7.099996 C13,3.841516 10.358498,1.199996 7.099998,1.199996 C4.822958,1.199996 2.846168,2.489776 1.862148,4.381416 C1.752338,4.592506 1.528168,4.718756 1.290738,4.703246 C1.053308,4.687736 0.847468,4.533386 0.766068,4.309806 L0.036849,2.307036 L1.163788,1.894726 L1.479398,2.761516 Z M6.151468,5.999996 L4.675738,4.524266 L5.524268,3.675736 L7.099998,5.251476 L8.675738,3.675736 L9.524298,4.524266 L8.048528,5.999996 L9.599998,5.999996 L9.599998,7.199996 L7.699998,7.199996 L7.699998,7.999996 L9.599998,7.999996 L9.599998,9.199976 L7.699998,9.199976 L7.699998,10.599976 L6.499998,10.599976 L6.499998,9.199976 L4.599998,9.199976 L4.599998,7.999996 L6.499998,7.999996 L6.499998,7.199996 L4.599998,7.199996 L4.599998,5.999996 L6.151468,5.999996 Z" id="形状"></path>
        </g>
    </g>
</svg>