<svg width="16" height="16" viewBox="0 0 16 16" fill="none" xmlns="http://www.w3.org/2000/svg">
<path d="M3.4999 3.09999H4.40439C4.45491 3.66064 4.9261 4.09999 5.4999 4.09999H10.4999C11.0737 4.09999 11.5449 3.66064 11.5954 3.09999H12.4999C12.7208 3.09999 12.8999 3.27908 12.8999 3.49999V13.5C12.8999 13.7209 12.7208 13.9 12.4999 13.9H3.4999C3.27899 13.9 3.0999 13.7209 3.0999 13.5V3.49999C3.0999 3.27908 3.27899 3.09999 3.4999 3.09999ZM12.4999 1.89999H11.5954C11.5449 1.33934 11.0737 0.899994 10.4999 0.899994H5.4999C4.9261 0.899994 4.45491 1.33934 4.40439 1.89999H3.4999C2.61625 1.89999 1.8999 2.61634 1.8999 3.49999V13.5C1.8999 14.3836 2.61625 15.1 3.4999 15.1H12.4999C13.3836 15.1 14.0999 14.3837 14.0999 13.5V3.49999C14.0999 2.61634 13.3836 1.89999 12.4999 1.89999ZM5.5999 2.09999H10.3999V2.89999H5.5999V2.09999ZM4.9999 7.09999H10.9999V5.89999H4.9999V7.09999ZM4.9999 10.1H9.9999V8.89999H4.9999V10.1Z" fill="#1E2226"/>
</svg>
