<?xml version="1.0" encoding="UTF-8"?>
<svg width="16px" height="16px" viewBox="0 0 16 16" version="1.1" xmlns="http://www.w3.org/2000/svg" xmlns:xlink="http://www.w3.org/1999/xlink">
    <title>画板备份</title>
    <g id="画板备份" stroke="none" stroke-width="1" fill="none" fill-rule="evenodd">
        <g id="ReturnIn7DaysLine" transform="translate(0.000000, 0.900000)" fill="#1E2226" fill-rule="nonzero">
            <path d="M8.00005237,1.199996 C5.06949762,1.199996 2.64020341,3.364536 2.20645198,6.191566 C2.16588093,6.455966 1.95627879,6.661386 1.69257199,6.695196 C1.42886519,6.728996 1.17478693,6.583016 1.06964801,6.337296 L0,3.837296 L1.09517508,3.362706 L1.50567492,4.322126 C2.58004738,1.781326 5.08297162,0 8.00005237,0 C11.527845,0 14.4498941,2.605286 14.9720612,6.008436 L13.7936826,6.191566 C13.3598516,3.364536 10.9305574,1.199996 8.00005237,1.199996 Z M14.3075029,7.504806 C14.5712197,7.471006 14.8252979,7.616996 14.9304269,7.862726 L16,10.362676 L14.9048899,10.837276 L14.4944099,9.877876 C13.4200673,12.418676 10.917143,14.199976 8.00005237,14.199976 C4.47224976,14.199976 1.55018085,11.594676 1.02802667,8.191566 L2.20645198,8.008436 C2.64020341,10.835476 5.06950756,12.9999716 8.00005237,12.9999716 C10.9305574,12.9999716 13.3598516,10.835476 13.7936826,8.008436 C13.8342238,7.744036 14.0437862,7.538616 14.3075029,7.504806 Z" id="形状"></path>
            <polygon id="路径" points="5.8139658 3.899996 10.1860098 3.899996 10.1860098 4.878076 8.02681157 10.299976 6.63346507 10.299976 8.77811611 5.131926 5.8139658 5.131926"></polygon>
        </g>
    </g>
</svg>