<svg width="16" height="16" viewBox="0 0 16 16" fill="none" xmlns="http://www.w3.org/2000/svg">
<path d="M0.899902 3.5C0.899902 2.61635 1.61625 1.9 2.4999 1.9H13.4999C14.3836 1.9 15.0999 2.61635 15.0999 3.5V12.5C15.0999 13.3837 14.3836 14.1 13.4999 14.1H2.4999C1.61625 14.1 0.899902 13.3837 0.899902 12.5V3.5ZM2.4999 3.1C2.27899 3.1 2.0999 3.27909 2.0999 3.5V5.4H13.8999V3.5C13.8999 3.27909 13.7208 3.1 13.4999 3.1H2.4999ZM13.8999 6.6H2.0999V12.5C2.0999 12.7209 2.27899 12.9 2.4999 12.9H13.4999C13.7208 12.9 13.8999 12.7209 13.8999 12.5V6.6ZM6.4999 11.6H3.4999V10.4H6.4999V11.6Z" fill="#1E2226"/>
</svg>
