<svg width="16" height="16" viewBox="0 0 16 16" fill="none" xmlns="http://www.w3.org/2000/svg">
<path d="M7.9999 2.35C6.67442 2.35 5.5999 3.42452 5.5999 4.75C5.5999 6.07548 6.67442 7.15 7.9999 7.15C9.32539 7.15 10.3999 6.07548 10.3999 4.75C10.3999 3.42452 9.32539 2.35 7.9999 2.35ZM4.3999 4.75C4.3999 2.76178 6.01168 1.15 7.9999 1.15C9.98813 1.15 11.5999 2.76178 11.5999 4.75C11.5999 6.73823 9.98813 8.35 7.9999 8.35C6.01168 8.35 4.3999 6.73823 4.3999 4.75ZM5.4999 10.35C4.17442 10.35 3.0999 11.4245 3.0999 12.75V13.25C3.0999 13.4709 3.27899 13.65 3.4999 13.65L12.4999 13.65C12.7208 13.65 12.8999 13.4709 12.8999 13.25V12.75C12.8999 11.4245 11.8254 10.35 10.4999 10.35H5.4999ZM1.8999 12.75C1.8999 10.7618 3.51168 9.15 5.4999 9.15H10.4999C12.4881 9.15 14.0999 10.7618 14.0999 12.75V13.25C14.0999 14.1337 13.3836 14.85 12.4999 14.85L3.4999 14.85C2.61625 14.85 1.8999 14.1337 1.8999 13.25V12.75ZM11.2499 12.6H9.2499V11.4H11.2499V12.6Z" fill="#1E2226"/>
</svg>
