<svg width="16" height="16" viewBox="0 0 16 16" fill="none" xmlns="http://www.w3.org/2000/svg">
<path d="M7.9999 2.34999C6.67442 2.34999 5.5999 3.42451 5.5999 4.74999C5.5999 6.07548 6.67442 7.14999 7.9999 7.14999C9.32539 7.14999 10.3999 6.07548 10.3999 4.74999C10.3999 3.42451 9.32539 2.34999 7.9999 2.34999ZM4.3999 4.74999C4.3999 2.76177 6.01168 1.14999 7.9999 1.14999C9.98813 1.14999 11.5999 2.76177 11.5999 4.74999C11.5999 6.73822 9.98813 8.34999 7.9999 8.34999C6.01168 8.34999 4.3999 6.73822 4.3999 4.74999ZM5.4999 10.35C4.17442 10.35 3.0999 11.4245 3.0999 12.75V13.25C3.0999 13.4709 3.27899 13.65 3.4999 13.65H8.9999V14.85H3.4999C2.61625 14.85 1.8999 14.1337 1.8999 13.25V12.75C1.8999 10.7618 3.51168 9.14999 5.4999 9.14999H8.9999V10.35H5.4999ZM11.6514 12L10.0756 10.4243L10.9242 9.57573L12.4999 11.1515L14.0756 9.57573L14.9242 10.4243L13.3484 12L14.9242 13.5757L14.0756 14.4243L12.4999 12.8485L10.9242 14.4243L10.0756 13.5757L11.6514 12Z" fill="#1E2226"/>
</svg>
