<svg width="16" height="16" viewBox="0 0 16 16" fill="none" xmlns="http://www.w3.org/2000/svg">
<path d="M3.90004 2.34852L2.8069 3.44166C2.40211 3.84646 2.28454 4.45692 2.51005 4.9831L2.63755 5.28061C4.19525 8.91524 7.0914 11.8114 10.726 13.3691L11.0235 13.4966C11.5497 13.7221 12.1602 13.6045 12.565 13.1997L13.6581 12.1066L11.6782 10.1267L10.8118 10.9931C10.5671 11.2378 10.2002 11.3131 9.87898 11.1846C7.57237 10.2619 5.74469 8.43427 4.82205 6.12766C4.69355 5.80642 4.76886 5.4395 5.01352 5.19485L5.87994 4.32842L3.90004 2.34852ZM3.12223 1.42928C3.5518 0.999707 4.24828 0.999707 4.67786 1.42928L6.79918 3.5506C7.22876 3.98018 7.22876 4.67666 6.79918 5.10624L6.02063 5.88479C6.81623 7.72356 8.28308 9.19041 10.1219 9.98601L10.9004 9.20746C11.33 8.77788 12.0265 8.77788 12.456 9.20746L14.5774 11.3288C15.0069 11.7584 15.0069 12.4548 14.5774 12.8844L13.4135 14.0483C12.6617 14.8 11.528 15.0184 10.5508 14.5996L10.2533 14.4721C6.33548 12.793 3.21366 9.67116 1.53458 5.75331L1.40708 5.4558C0.98828 4.47861 1.20661 3.3449 1.95838 2.59314L3.12223 1.42928Z" fill="#1E2226"/>
</svg>
