<svg width="16" height="16" viewBox="0 0 16 16" fill="none" xmlns="http://www.w3.org/2000/svg">
<path d="M2.7499 1.64999C1.86625 1.64999 1.1499 2.36634 1.1499 3.24999V12.75C1.1499 13.6336 1.86625 14.35 2.7499 14.35H13.2499C14.1336 14.35 14.8499 13.6336 14.8499 12.75V3.24999C14.8499 2.36634 14.1336 1.64999 13.2499 1.64999H2.7499ZM2.3499 3.24999C2.3499 3.02908 2.52899 2.84999 2.7499 2.84999H13.2499C13.4708 2.84999 13.6499 3.02908 13.6499 3.24999V8.81005L11.8214 6.55957C11.4052 6.04733 10.6348 6.01436 10.1763 6.48917L3.74519 13.15H2.7499C2.52899 13.15 2.3499 12.9709 2.3499 12.75V3.24999ZM10.9612 7.40387L13.6499 10.713V12.75C13.6499 12.9709 13.4708 13.15 13.2499 13.15H5.41324L10.9612 7.40387ZM4.9999 6.24999C5.55219 6.24999 5.9999 5.80228 5.9999 5.24999C5.9999 4.69771 5.55219 4.24999 4.9999 4.24999C4.44762 4.24999 3.9999 4.69771 3.9999 5.24999C3.9999 5.80228 4.44762 6.24999 4.9999 6.24999Z" fill="#1E2226"/>
</svg>
