<?xml version="1.0" encoding="UTF-8"?>
<svg width="16px" height="16px" viewBox="0 0 16 16" version="1.1" xmlns="http://www.w3.org/2000/svg" xmlns:xlink="http://www.w3.org/1999/xlink">
    <title>画板备份 15</title>
    <g id="画板备份-15" stroke="none" stroke-width="1" fill="none" fill-rule="evenodd">
        <path d="M7.999996,0.9 C11.921206,0.9 15.100006,4.078778 15.100006,7.999998 C15.100006,11.921198 11.921206,15.099998 7.999996,15.099998 C4.078776,15.099998 0.9,11.921198 0.9,7.999998 C0.9,4.078778 4.078776,0.9 7.999996,0.9 Z M7.999996,2.099998 C4.741516,2.099998 2.099996,4.741518 2.099996,7.999998 C2.099996,11.258498 4.741516,13.899998 7.999996,13.899998 C11.258506,13.899998 13.900006,11.258498 13.900006,7.999998 C13.900006,4.741518 11.258506,2.099998 7.999996,2.099998 Z M7.075796,4.575728 L7.924326,5.424258 L5.948586,7.399998 L12.000106,7.399998 L12.000106,8.599998 L5.948586,8.599998 L7.924326,10.575698 L7.075796,11.424298 L4.075796,8.424258 C3.86752044,8.21597356 3.84437872,7.89267084 4.00637081,7.65882678 L4.075796,7.575728 L7.075796,4.575728 Z" id="形状" fill="#1E2226" fill-rule="nonzero"></path>
    </g>
</svg>