<?xml version="1.0" encoding="UTF-8"?>
<svg width="16px" height="16px" viewBox="0 0 16 16" version="1.1" xmlns="http://www.w3.org/2000/svg" xmlns:xlink="http://www.w3.org/1999/xlink">
    <title>画板备份 16</title>
    <g id="画板备份-16" stroke="none" stroke-width="1" fill="none" fill-rule="evenodd">
        <path d="M7.999996,0.9 C11.921206,0.9 15.100006,4.078778 15.100006,7.999998 C15.100006,11.921198 11.921206,15.099998 7.999996,15.099998 C4.078776,15.099998 0.9,11.921198 0.9,7.999998 C0.9,4.078778 4.078776,0.9 7.999996,0.9 Z M7.999996,2.099998 C4.741516,2.099998 2.099996,4.741518 2.099996,7.999998 C2.099996,11.258498 4.741516,13.899998 7.999996,13.899998 C11.258506,13.899998 13.900006,11.258498 13.900006,7.999998 C13.900006,4.741518 11.258506,2.099998 7.999996,2.099998 Z M8.924266,4.575738 L11.924306,7.575738 C12.1325727,7.78402244 12.1557134,8.10733306 11.9937282,8.34117185 L11.924306,8.424268 L8.924266,11.424298 L8.075736,10.575698 L10.051506,8.600008 L3.999996,8.600008 L3.999996,7.400008 L10.051506,7.400008 L8.075736,5.424268 L8.924266,4.575738 Z" id="形状" fill="#1E2226" fill-rule="nonzero"></path>
    </g>
</svg>