<?xml version="1.0" encoding="UTF-8"?>
<svg width="16px" height="16px" viewBox="0 0 16 16" version="1.1" xmlns="http://www.w3.org/2000/svg" xmlns:xlink="http://www.w3.org/1999/xlink">
    <title>画板备份 14</title>
    <g id="画板备份-14" stroke="none" stroke-width="1" fill="none" fill-rule="evenodd">
        <path d="M7.999996,0.9 C11.921206,0.9 15.100006,4.078778 15.100006,7.999998 C15.100006,11.921198 11.921206,15.099998 7.999996,15.099998 C4.078776,15.099998 0.9,11.921198 0.9,7.999998 C0.9,4.078778 4.078776,0.9 7.999996,0.9 Z M7.999996,2.099998 C4.741516,2.099998 2.099996,4.741518 2.099996,7.999998 C2.099996,11.258498 4.741516,13.899998 7.999996,13.899998 C11.258506,13.899998 13.900006,11.258498 13.900006,7.999998 C13.900006,4.741518 11.258506,2.099998 7.999996,2.099998 Z M8.600026,3.999998 L8.600026,10.051498 L10.575806,8.075738 L11.424306,8.924268 L8.424286,11.924298 C8.21601044,12.1325647 7.89270081,12.1557054 7.65885511,11.9937202 L7.575756,11.924298 L4.575756,8.924268 L5.424286,8.075738 L7.400026,10.051498 L7.400026,3.999998 L8.600026,3.999998 Z" id="形状" fill="#1E2226" fill-rule="nonzero"></path>
    </g>
</svg>