<svg width="16" height="16" viewBox="0 0 16 16" fill="none" xmlns="http://www.w3.org/2000/svg">
<path d="M3.3999 2.5C3.3999 1.89249 3.89239 1.4 4.4999 1.4H11.4999C12.1074 1.4 12.5999 1.89249 12.5999 2.5V4.4H12.9999C13.8836 4.4 14.5999 5.11635 14.5999 6V10C14.5999 10.8837 13.8836 11.6 12.9999 11.6H12.5999V13.5C12.5999 14.1075 12.1074 14.6 11.4999 14.6H4.4999C3.89239 14.6 3.3999 14.1075 3.3999 13.5V11.6H2.9999C2.11625 11.6 1.3999 10.8837 1.3999 10V6C1.3999 5.11635 2.11625 4.4 2.9999 4.4H3.3999V2.5ZM2.9999 5.6C2.77899 5.6 2.5999 5.77909 2.5999 6V10C2.5999 10.2209 2.77899 10.4 2.9999 10.4H3.3999V9.5C3.3999 8.89249 3.89239 8.4 4.4999 8.4H11.4999C12.1074 8.4 12.5999 8.89249 12.5999 9.5V10.4H12.9999C13.2208 10.4 13.3999 10.2209 13.3999 10V6C13.3999 5.77909 13.2208 5.6 12.9999 5.6H2.9999ZM11.3999 4.4V2.6H4.5999V4.4H11.3999ZM4.5999 9.6V13.4H11.3999V9.6H4.5999Z" fill="#1E2226"/>
</svg>
