<svg width="16" height="16" viewBox="0 0 16 16" fill="none" xmlns="http://www.w3.org/2000/svg">
<path d="M3.5 12.5V4.75L2.5 5.25V4.25L3.51309 3.5H4.5V12.5H3.5ZM11.75 12.5V4.75L10.75 5.25V4.25L11.7631 3.5H12.75V12.5H11.75ZM8 7.5C8.41421 7.5 8.75 7.16421 8.75 6.75C8.75 6.33579 8.41421 6 8 6C7.58579 6 7.25 6.33579 7.25 6.75C7.25 7.16421 7.58579 7.5 8 7.5ZM8 10.5C8.41421 10.5 8.75 10.1642 8.75 9.75C8.75 9.33579 8.41421 9 8 9C7.58579 9 7.25 9.33579 7.25 9.75C7.25 10.1642 7.58579 10.5 8 10.5Z" fill="#1E2226"/>
</svg>
