<svg width="16" height="16" viewBox="0 0 16 16" fill="none" xmlns="http://www.w3.org/2000/svg">
<path d="M7.9999 1.14999C10.4686 1.14999 12.5925 1.8798 13.5147 2.24732C13.8738 2.39046 14.3499 2.53018 14.3499 2.99999V7.74999C14.3499 11.2023 11.4778 13.6606 8.44722 14.7335C7.90377 14.9259 8.12758 14.9371 7.55259 14.7335C4.52203 13.6606 1.6499 11.2023 1.6499 7.74999V2.99999C1.6499 2.76893 1.78258 2.55841 1.99103 2.45871C3.85621 1.56904 5.93841 1.14999 7.9999 1.14999ZM2.8499 3.39408V7.74999C2.8499 10.6922 5.43629 12.7305 7.9999 13.6187C10.5635 12.7305 13.1499 10.6922 13.1499 7.74999V3.39408C12.3605 3.0726 10.3096 2.34999 7.9999 2.34999C5.69017 2.34999 3.63928 3.07261 2.8499 3.39408ZM11.6742 5.92426L7.67417 9.92426C7.43985 10.1586 7.05995 10.1586 6.82564 9.92426L4.32564 7.42426L5.17417 6.57573L7.2499 8.65147L10.8256 5.07573L11.6742 5.92426Z" fill="#1E2226"/>
</svg>
