<svg width="16" height="16" viewBox="0 0 16 16" fill="none" xmlns="http://www.w3.org/2000/svg">
<path d="M1.6499 2.74999C1.6499 2.14248 2.14239 1.64999 2.7499 1.64999H6.2499C6.85742 1.64999 7.3499 2.14248 7.3499 2.74999V6.24999C7.3499 6.85751 6.85742 7.34999 6.2499 7.34999H2.7499C2.14239 7.34999 1.6499 6.85751 1.6499 6.24999V2.74999ZM2.8499 2.84999V6.14999H6.1499V2.84999H2.8499ZM8.6499 2.74999C8.6499 2.14248 9.14239 1.64999 9.7499 1.64999H13.2499C13.8574 1.64999 14.3499 2.14248 14.3499 2.74999V6.24999C14.3499 6.85751 13.8574 7.34999 13.2499 7.34999H9.7499C9.14239 7.34999 8.6499 6.85751 8.6499 6.24999V2.74999ZM9.8499 2.84999V6.14999H13.1499V2.84999H9.8499ZM2.7499 8.64999C2.14239 8.64999 1.6499 9.14248 1.6499 9.74999V13.25C1.6499 13.8575 2.14239 14.35 2.7499 14.35H6.2499C6.85742 14.35 7.3499 13.8575 7.3499 13.25V9.74999C7.3499 9.14248 6.85742 8.64999 6.2499 8.64999H2.7499ZM2.8499 13.15V9.84999H6.1499V13.15H2.8499ZM9.3999 13.75V9.49999H10.5999V13.75H9.3999ZM12.6499 9.49999V13.75H13.8499V9.49999H12.6499Z" fill="#1E2226"/>
</svg>
