<?xml version="1.0" encoding="UTF-8"?>
<svg width="16px" height="16px" viewBox="0 0 16 16" version="1.1" xmlns="http://www.w3.org/2000/svg" xmlns:xlink="http://www.w3.org/1999/xlink">
    <title>画板</title>
    <g id="画板" stroke="none" stroke-width="1" fill="none" fill-rule="evenodd">
        <path d="M8.099998,1 C12.021198,1 15.199998,4.178776 15.199998,8.099996 C15.199998,12.021206 12.021198,15.200006 8.099998,15.200006 C4.178778,15.200006 1,12.021206 1,8.099996 C1,4.178776 4.178778,1 8.099998,1 Z M8.099998,2.199996 C4.841518,2.199996 2.199998,4.841516 2.199998,8.099996 C2.199998,11.358506 4.841518,14.000006 8.099998,14.000006 C11.358498,14.000006 13.999998,11.358506 13.999998,8.099996 C13.999998,4.841516 11.358498,2.199996 8.099998,2.199996 Z M8.599998,11 L8.599998,12 L7.399998,12 L7.399998,11 L8.599998,11 Z M7.999998,3.9 C8.889748,3.9 9.611248,4.20021 10.111798,4.70074 C10.606598,5.19561 10.849998,5.85158 10.849998,6.5 C10.849998,7.08572 10.654898,7.53475 10.355398,7.88673 C10.1245647,8.15811333 9.83849522,8.36112861 9.59267578,8.52124458 L9.447478,8.61448 C8.837548,9.00321 8.599998,9.18193 8.599998,9.61803 L8.599998,10 L7.399998,10 L7.399998,9.61803 C7.399998,8.68854529 7.94884547,8.17752398 8.43380126,7.84197153 L8.6359413,7.7081979 L8.6359413,7.7081979 L8.802518,7.60253 C9.093538,7.41705 9.297758,7.27804 9.441448,7.10915 C9.563868,6.96525 9.649998,6.78928 9.649998,6.5 C9.649998,6.14842 9.518358,5.80439 9.263238,5.54926 C9.013758,5.29979 8.610248,5.1 7.999998,5.1 C7.389748,5.1 6.986238,5.29979 6.736768,5.54926 C6.481638,5.80439 6.349998,6.14842 6.349998,6.5 L5.149998,6.5 C5.149998,5.85158 5.393358,5.19561 5.888238,4.70074 C6.388758,4.20021 7.110248,3.9 7.999998,3.9 Z" id="形状" fill="#1E2226"></path>
    </g>
</svg>