<svg width="16" height="16" viewBox="0 0 16 16" fill="none" xmlns="http://www.w3.org/2000/svg">
<path d="M1.36616 8.65135C1.93132 6.23138 3.93212 4.31264 6 3L6.75 3.75C5.49995 4.54325 4.04273 6.25195 3.62809 7.1089C3.87309 7.0457 4.13017 7.01205 4.3952 7.01205C6.06809 7.01205 7.42424 8.3525 7.42424 10.006C7.42424 11.6596 6.08942 13 4.25119 13C2.46836 13 0.787476 11.1292 1.36616 8.65135Z" fill="#1E2226"/>
<path d="M8.69192 8.65135C9.25708 6.23138 11.4321 4.31264 13.5 3L14.25 3.75C13 4.54325 11.3685 6.25195 10.9538 7.1089C11.1988 7.0457 11.4559 7.01205 11.721 7.01205C13.3938 7.01205 14.75 8.3525 14.75 10.006C14.75 11.6596 13.4152 13 11.5769 13C9.79412 13 8.11323 11.1292 8.69192 8.65135Z" fill="#1E2226"/>
</svg>
