<svg width="16" height="16" viewBox="0 0 16 16" fill="none" xmlns="http://www.w3.org/2000/svg">
<path d="M3.4999 0.900002C2.61625 0.900002 1.8999 1.61635 1.8999 2.5V13.5C1.8999 14.3837 2.61625 15.1 3.4999 15.1H12.4999C13.3836 15.1 14.0999 14.3837 14.0999 13.5V2.5C14.0999 1.61635 13.3836 0.900002 12.4999 0.900002H3.4999ZM3.0999 2.5C3.0999 2.27909 3.27899 2.1 3.4999 2.1H12.4999C12.7208 2.1 12.8999 2.27909 12.8999 2.5V5.18049C12.4026 5.484 11.4662 5.91719 10.2019 6.17747C9.86852 5.28527 9.0084 4.65 7.9999 4.65C6.99141 4.65 6.13129 5.28527 5.79787 6.17747C4.53359 5.91719 3.59723 5.484 3.0999 5.18049V2.5ZM3.0999 6.54145C3.75111 6.85392 4.62863 7.17288 5.68009 7.37769C5.86076 8.496 6.8306 9.35 7.9999 9.35C9.1692 9.35 10.139 8.496 10.3197 7.37769C11.3712 7.17288 12.2487 6.85392 12.8999 6.54145V13.5C12.8999 13.7209 12.7208 13.9 12.4999 13.9H3.4999C3.27899 13.9 3.0999 13.7209 3.0999 13.5V6.54145ZM6.8499 7C6.8499 6.36487 7.36477 5.85 7.9999 5.85C8.63503 5.85 9.1499 6.36487 9.1499 7C9.1499 7.63513 8.63503 8.15 7.9999 8.15C7.36477 8.15 6.8499 7.63513 6.8499 7Z" fill="#1E2226"/>
</svg>
