<?xml version="1.0" encoding="UTF-8"?>
<svg width="16px" height="16px" viewBox="0 0 16 16" version="1.1" xmlns="http://www.w3.org/2000/svg" xmlns:xlink="http://www.w3.org/1999/xlink">
    <title>画板备份 6</title>
    <g id="画板备份-6" stroke="none" stroke-width="1" fill="none" fill-rule="evenodd">
        <path d="M10.4466978,2.63123654 C9.16837783,2.04866654 7.72413783,1.94134654 6.37375783,2.32855654 C5.02336783,2.71577654 3.85545783,3.57212654 3.08008783,4.74357654 C2.30471783,5.91502654 1.97278783,7.32469654 2.14399783,8.71903654 C2.31519783,10.1134065 2.97829783,11.4009065 4.01403783,12.3499065 C5.04976783,13.2990065 6.39015783,13.8474065 7.79410783,13.8964065 C9.19805783,13.9454065 10.5733978,13.4919065 11.6728978,12.6174065 C12.7722978,11.7429065 13.5235978,10.5048065 13.7915978,9.12577654 L14.9695978,9.35474654 C14.6469978,11.0142065 13.7428978,12.5041065 12.4198978,13.5565065 C11.0967978,14.6089065 9.44172783,15.1547065 7.75222783,15.0957065 C6.06272783,15.0367065 4.44971783,14.3768065 3.20332783,13.2347065 C1.95693783,12.0926065 1.15895783,10.5432065 0.952937828,8.86527654 C0.746912828,7.18734654 1.14635783,5.49096654 2.07942783,4.08125654 C3.01248783,2.67154654 4.41794783,1.64101654 6.04298783,1.17504654 C7.66802783,0.709072544 9.40601783,0.838227544 10.9442978,1.53927654 C12.1498978,2.08869654 13.1708978,2.96112654 13.9,4.05031654 L13.9,2.50000654 L15.0999978,2.50000654 L15.0999978,5.50000654 C15.0999978,5.83137654 14.8313978,6.10000654 14.4999978,6.10000654 L11.4999978,6.10000654 L11.4999978,4.9 L13.0199978,4.9 C12.4085978,3.90994654 11.5148978,3.11802654 10.4466978,2.63123654 Z" id="路径" fill="#1E2226" fill-rule="nonzero"></path>
    </g>
</svg>