<svg width="16" height="16" viewBox="0 0 16 16" fill="none" xmlns="http://www.w3.org/2000/svg">
<path d="M2.6499 6.5C2.6499 3.54528 5.04518 1.15 7.9999 1.15C10.9546 1.15 13.3499 3.54528 13.3499 6.5V9.84066L14.2708 11.4523C14.377 11.638 14.3762 11.8662 14.2688 12.0512C14.1615 12.2361 13.9638 12.35 13.7499 12.35H10.598C10.5455 13.7396 9.40236 14.85 7.9999 14.85C6.59745 14.85 5.45434 13.7396 5.40179 12.35H2.2499C2.03602 12.35 1.83831 12.2361 1.73096 12.0512C1.6236 11.8662 1.62284 11.638 1.72896 11.4523L2.6499 9.84066V6.5ZM6.60342 12.35C6.65469 13.0765 7.26033 13.65 7.9999 13.65C8.73948 13.65 9.34511 13.0765 9.39639 12.35H6.60342ZM7.9999 2.35C5.70792 2.35 3.8499 4.20802 3.8499 6.5V10C3.8499 10.1044 3.82265 10.207 3.77085 10.2977L3.28381 11.15H12.716L12.229 10.2977C12.1772 10.207 12.1499 10.1044 12.1499 10V6.5C12.1499 4.20802 10.2919 2.35 7.9999 2.35Z" fill="#1E2226"/>
</svg>
