<svg width="16" height="16" viewBox="0 0 16 16" fill="none" xmlns="http://www.w3.org/2000/svg">
<path d="M1.1499 3.25C1.1499 2.36634 1.86625 1.65 2.7499 1.65H13.2499C14.1336 1.65 14.8499 2.36634 14.8499 3.25V13.5429C14.8499 14.5229 13.665 15.0137 12.9721 14.3207L11.5014 12.85H2.7499C1.86625 12.85 1.1499 12.1337 1.1499 11.25V3.25ZM2.7499 2.85C2.52899 2.85 2.3499 3.02909 2.3499 3.25V11.25C2.3499 11.4709 2.52899 11.65 2.7499 11.65H11.9984L13.6499 13.3015V3.25C13.6499 3.02909 13.4708 2.85 13.2499 2.85H2.7499ZM10.9999 6.35H4.9999V5.15H10.9999V6.35ZM8.9999 9.35H4.9999V8.15H8.9999V9.35Z" fill="#1E2226"/>
</svg>
