<svg width="16" height="16" viewBox="0 0 16 16" fill="none" xmlns="http://www.w3.org/2000/svg">
<path d="M8.3316 1.04023L9.82788 2.34948C9.91895 2.42916 9.91895 2.57083 9.82788 2.65051L8.3316 3.95975C8.20229 4.07291 7.9999 3.98107 7.9999 3.80924V3.09999H3.4999C2.7267 3.09999 2.0999 3.72679 2.0999 4.49999V8.99999H0.899902V4.49999C0.899902 3.06405 2.06396 1.89999 3.4999 1.89999H7.9999V1.19075C7.9999 1.01891 8.20229 0.927078 8.3316 1.04023ZM3.8999 6.49999C3.8999 5.61634 4.61625 4.89999 5.4999 4.89999H13.4999C14.3836 4.89999 15.0999 5.61634 15.0999 6.49999V12.5C15.0999 13.3836 14.3836 14.1 13.4999 14.1H5.4999C4.61625 14.1 3.8999 13.3836 3.8999 12.5V6.49999ZM5.4999 6.09999C5.27899 6.09999 5.0999 6.27908 5.0999 6.49999V12.5C5.0999 12.7209 5.27899 12.9 5.4999 12.9H13.4999C13.7208 12.9 13.8999 12.7209 13.8999 12.5V6.49999C13.8999 6.27908 13.7208 6.09999 13.4999 6.09999H5.4999Z" fill="#1E2226"/>
</svg>
