<svg width="16" height="16" viewBox="0 0 16 16" fill="none" xmlns="http://www.w3.org/2000/svg">
<path d="M7.6682 1.04023L6.17192 2.34948C6.08085 2.42916 6.08085 2.57083 6.17192 2.65051L7.6682 3.95975C7.79752 4.07291 7.9999 3.98107 7.9999 3.80924V3.09999H12.4999C13.2731 3.09999 13.8999 3.72679 13.8999 4.49999V8.99999H15.0999V4.49999C15.0999 3.06405 13.9358 1.89999 12.4999 1.89999H7.9999V1.19075C7.9999 1.01891 7.79752 0.927078 7.6682 1.04023ZM0.899902 6.49999C0.899902 5.61634 1.61625 4.89999 2.4999 4.89999H10.4999C11.3836 4.89999 12.0999 5.61634 12.0999 6.49999V12.5C12.0999 13.3836 11.3836 14.1 10.4999 14.1H2.4999C1.61625 14.1 0.899902 13.3836 0.899902 12.5V6.49999ZM2.4999 6.09999C2.27899 6.09999 2.0999 6.27908 2.0999 6.49999V12.5C2.0999 12.7209 2.27899 12.9 2.4999 12.9H10.4999C10.7208 12.9 10.8999 12.7209 10.8999 12.5V6.49999C10.8999 6.27908 10.7208 6.09999 10.4999 6.09999H2.4999Z" fill="#1E2226"/>
</svg>
