<svg width="16" height="16" viewBox="0 0 16 16" fill="none" xmlns="http://www.w3.org/2000/svg">
<path d="M0.899994 2.99999C0.899994 2.39248 1.39248 1.89999 1.99999 1.89999H14C14.6075 1.89999 15.1 2.39248 15.1 2.99999V5.49999C15.1 6.0738 14.6606 6.54499 14.1 6.59551V12.9H15V14.1H0.999994V12.9H1.89999V6.59551C1.33934 6.54499 0.899994 6.0738 0.899994 5.49999V2.99999ZM6.09999 12.9H7.39999V10.1H6.09999V12.9ZM8.59999 10.1L8.59999 12.9H9.89999V10.1H8.59999ZM11.1 12.9H12.9V6.59999H3.09999V12.9H4.89999V9.49999C4.89999 9.16862 5.16862 8.89999 5.49999 8.89999H10.5C10.8314 8.89999 11.1 9.16862 11.1 9.49999V12.9ZM13.9 5.39999V3.09999H2.09999V5.39999H13.9Z" fill="#1E2226"/>
</svg>
