<svg width="16" height="16" viewBox="0 0 16 16" fill="none" xmlns="http://www.w3.org/2000/svg">
<path d="M2.4999 1.39999C1.89239 1.39999 1.3999 1.89248 1.3999 2.49999V13.5C1.3999 14.1075 1.89239 14.6 2.4999 14.6H13.4999C14.1074 14.6 14.5999 14.1075 14.5999 13.5V5.2071C14.5999 4.91536 14.484 4.63557 14.2777 4.42928L11.5706 1.72218C11.3643 1.51589 11.0845 1.39999 10.7928 1.39999H2.4999ZM2.5999 13.4V2.59999H3.8999V4.49999C3.8999 5.10751 4.39239 5.59999 4.9999 5.59999H9.9999V4.39999H5.0999V2.59999H10.7514L13.3999 5.24852V13.4H12.0999V8.49999C12.0999 7.89248 11.6074 7.39999 10.9999 7.39999H4.9999C4.39239 7.39999 3.8999 7.89248 3.8999 8.49999V13.4H2.5999ZM5.0999 13.4V8.59999H10.8999V13.4H5.0999Z" fill="#1E2226"/>
</svg>
