<svg width="16" height="16" viewBox="0 0 16 16" fill="none" xmlns="http://www.w3.org/2000/svg">
<path d="M1.8999 3.49999C1.8999 2.61634 2.61625 1.89999 3.4999 1.89999H5.4999V3.09999H3.4999C3.27899 3.09999 3.0999 3.27908 3.0999 3.49999V5.49999H1.8999V3.49999ZM12.4999 3.09999H10.4999V1.89999H12.4999C13.3836 1.89999 14.0999 2.61634 14.0999 3.49999V5.49999H12.8999V3.49999C12.8999 3.27908 12.7208 3.09999 12.4999 3.09999ZM1.8999 7.39999H14.0999V8.59999H1.8999V7.39999ZM3.0999 10.5V12.5C3.0999 12.7209 3.27899 12.9 3.4999 12.9H5.4999V14.1H3.4999C2.61625 14.1 1.8999 13.3836 1.8999 12.5V10.5H3.0999ZM12.8999 12.5V10.5H14.0999V12.5C14.0999 13.3836 13.3836 14.1 12.4999 14.1H10.4999V12.9H12.4999C12.7208 12.9 12.8999 12.7209 12.8999 12.5Z" fill="#1E2226"/>
</svg>
