<svg width="16" height="16" viewBox="0 0 16 16" fill="none" xmlns="http://www.w3.org/2000/svg">
<path d="M7.2499 2.59999C4.68178 2.59999 2.5999 4.68187 2.5999 7.24999C2.5999 9.81812 4.68178 11.9 7.2499 11.9C9.81803 11.9 11.8999 9.81812 11.8999 7.24999C11.8999 4.68187 9.81803 2.59999 7.2499 2.59999ZM1.3999 7.24999C1.3999 4.01913 4.01904 1.39999 7.2499 1.39999C10.4808 1.39999 13.0999 4.01913 13.0999 7.24999C13.0999 8.64932 12.6086 9.93389 11.7891 10.9406L14.4242 13.5757L13.5756 14.4243L10.9405 11.7892C9.9338 12.6087 8.64923 13.1 7.2499 13.1C4.01904 13.1 1.3999 10.4809 1.3999 7.24999Z" fill="#1E2226"/>
</svg>
