<svg width="16" height="16" viewBox="0 0 16 16" fill="none" xmlns="http://www.w3.org/2000/svg">
<path d="M6.79634 1.47741C6.66682 1.22344 6.37646 1.09568 6.10171 1.17176C4.98492 1.48102 3.77726 2.18477 2.95997 2.94498C2.76594 3.12546 2.71328 3.41185 2.83042 3.64955C2.96972 3.9322 3.15434 4.28314 3.17487 4.60383C3.17487 4.96647 3.03243 5.22608 2.81285 5.40515C2.5819 5.5935 2.23236 5.71648 1.8061 5.71039C1.54083 5.7066 1.30457 5.87747 1.22509 6.13058C1.02301 6.77415 0.899902 7.25122 0.899902 8.0172C0.899902 8.4985 0.900577 9.14914 1.38156 10.0153C1.49766 10.2244 1.72682 10.3445 1.96481 10.3211C2.43628 10.2748 2.72858 10.3698 2.89159 10.4985C3.03899 10.6149 3.1749 10.8332 3.1749 11.2683C3.1749 11.6005 3.0558 11.9033 2.85732 12.1387C2.65923 12.3735 2.67056 12.7201 2.88357 12.9415C3.72142 13.8124 4.78023 14.4704 5.97088 14.825C6.28401 14.9183 6.61421 14.7439 6.71366 14.4326C6.88792 13.8874 7.39886 13.4939 7.9999 13.4939C8.60095 13.4939 9.11189 13.8874 9.28614 14.4326C9.3856 14.7439 9.71579 14.9183 10.0289 14.825C11.2196 14.4704 12.2784 13.8124 13.1162 12.9415C13.3292 12.7201 13.3406 12.3735 13.1425 12.1387C12.944 11.9034 12.8249 11.6005 12.8249 11.2683C12.8249 10.8332 12.9608 10.6148 13.1082 10.4985C13.2712 10.3698 13.5634 10.2748 14.0349 10.3211C14.2729 10.3445 14.502 10.2244 14.6181 10.0153C15.0992 9.14917 15.0999 8.49851 15.0999 8.0172C15.0999 7.25122 14.9768 6.77414 14.7747 6.13059C14.6952 5.87747 14.459 5.7066 14.1937 5.71039C13.7675 5.71648 13.4179 5.59351 13.187 5.40516C12.9674 5.22607 12.8249 4.96612 12.8249 4.60348C12.8911 4.27217 13.0204 3.95176 13.1693 3.64955C13.2864 3.41185 13.2338 3.12546 13.0398 2.94498C12.2225 2.18478 11.0149 1.48102 9.89809 1.17176C9.62334 1.09568 9.33299 1.22344 9.20347 1.47741C8.9794 1.91678 8.52392 2.2154 7.9999 2.2154C7.47588 2.2154 7.02041 1.91678 6.79634 1.47741ZM4.09776 3.54827C4.64919 3.1085 5.34325 2.70928 6.01152 2.46163C6.47839 3.04251 7.19525 3.4154 7.9999 3.4154C8.80456 3.4154 9.52141 3.04251 9.98828 2.46163C10.6565 2.70928 11.3506 3.10851 11.902 3.54828C11.7667 3.88115 11.6249 4.24037 11.6249 4.60348C11.6249 5.32731 11.93 5.92851 12.4285 6.3351C12.7998 6.63787 13.2593 6.81863 13.7472 6.88338C13.851 7.26107 13.8999 7.56819 13.8999 8.0172V8.01973C13.8999 8.35546 13.8999 8.68262 13.725 9.11041C13.2224 9.1229 12.7469 9.25475 12.3645 9.55667C11.8595 9.95546 11.6249 10.5647 11.6249 11.2683C11.6249 11.6897 11.7274 12.0879 11.9086 12.4385C11.3998 12.889 10.813 13.2528 10.1714 13.507C9.72259 12.7795 8.91851 12.2939 7.9999 12.2939C7.08129 12.2939 6.27721 12.7795 5.82841 13.507C5.1868 13.2528 4.6 12.889 4.09117 12.4385C4.2724 12.0879 4.3749 11.6897 4.3749 11.2683C4.3749 10.5646 4.14028 9.95544 3.63523 9.55666C3.25287 9.25476 2.77736 9.12291 2.27472 9.11041C2.0999 8.68262 2.0999 8.35546 2.0999 8.01973V8.0172C2.0999 7.56818 2.1488 7.26107 2.25261 6.88337C2.74054 6.81863 3.20002 6.63787 3.57126 6.3351C4.06981 5.92851 4.3749 5.32731 4.3749 4.60348C4.3749 4.24036 4.23309 3.88113 4.09776 3.54827ZM7.9999 5.14999C6.42589 5.14999 5.1499 6.42598 5.1499 7.99999C5.1499 9.57401 6.42589 10.85 7.9999 10.85C9.57392 10.85 10.8499 9.57401 10.8499 7.99999C10.8499 6.42598 9.57392 5.14999 7.9999 5.14999ZM6.3499 7.99999C6.3499 7.08872 7.08863 6.34999 7.9999 6.34999C8.91117 6.34999 9.6499 7.08872 9.6499 7.99999C9.6499 8.91127 8.91117 9.64999 7.9999 9.64999C7.08863 9.64999 6.3499 8.91127 6.3499 7.99999Z" fill="#1E2226"/>
</svg>
