<svg width="16" height="16" viewBox="0 0 16 16" fill="none" xmlns="http://www.w3.org/2000/svg">
<path d="M15.2244 7.1938C15.515 7.69198 15.515 8.30801 15.2244 8.80619L12.3078 13.8062C12.021 14.2977 11.4948 14.6 10.9257 14.6H5.07446C4.50539 14.6 3.97915 14.2977 3.69241 13.8062L0.775744 8.80619C0.485139 8.30801 0.485139 7.69198 0.775744 7.1938L3.69241 2.1938C3.97915 1.70225 4.50539 1.39999 5.07446 1.39999L10.9257 1.39999C11.4948 1.39999 12.021 1.70225 12.3078 2.1938L15.2244 7.1938ZM14.1879 8.20154C14.2605 8.077 14.2605 7.92299 14.1879 7.79845L11.2712 2.79845C11.1995 2.67556 11.068 2.59999 10.9257 2.59999L5.07446 2.59999C4.93219 2.59999 4.80063 2.67556 4.72895 2.79845L1.81228 7.79845C1.73963 7.92299 1.73963 8.077 1.81228 8.20154L4.72895 13.2015C4.80063 13.3244 4.93219 13.4 5.07446 13.4H10.9257C11.068 13.4 11.1995 13.3244 11.2712 13.2015L14.1879 8.20154ZM9.65009 7.99999C9.65009 7.08872 8.91136 6.34999 8.00009 6.34999C7.08882 6.34999 6.35009 7.08872 6.35009 7.99999C6.35009 8.91126 7.08882 9.64999 8.00009 9.64999C8.91136 9.64999 9.65009 8.91126 9.65009 7.99999ZM8.00009 5.14999C9.5741 5.14999 10.8501 6.42598 10.8501 7.99999C10.8501 9.57401 9.5741 10.85 8.00009 10.85C6.42607 10.85 5.15009 9.57401 5.15009 7.99999C5.15009 6.42598 6.42607 5.14999 8.00009 5.14999Z" fill="#1E2226"/>
</svg>
