<svg width="16" height="16" viewBox="0 0 16 16" fill="none" xmlns="http://www.w3.org/2000/svg">
<path d="M1.3999 2.99999C1.3999 2.11634 2.11625 1.39999 2.9999 1.39999H6.9999V2.59999H2.9999C2.77899 2.59999 2.5999 2.77908 2.5999 2.99999L2.5999 13C2.5999 13.2209 2.77899 13.4 2.9999 13.4H12.9999C13.2208 13.4 13.3999 13.2209 13.3999 13V8.99999H14.5999V13C14.5999 13.8836 13.8836 14.6 12.9999 14.6H2.9999C2.11625 14.6 1.39991 13.8836 1.3999 13L1.3999 2.99999ZM12.0514 3.09999H8.9999V1.89999H13.4999C13.8313 1.89999 14.0999 2.16862 14.0999 2.49999V6.99999H12.8999V3.94852L7.42417 9.42426L6.57564 8.57573L12.0514 3.09999Z" fill="#1E2226"/>
</svg>
