<?xml version="1.0" encoding="UTF-8"?>
<svg width="16px" height="16px" viewBox="0 0 16 16" version="1.1" xmlns="http://www.w3.org/2000/svg" xmlns:xlink="http://www.w3.org/1999/xlink">
    <title>画板备份 4</title>
    <g id="画板备份-4" stroke="none" stroke-width="1" fill="none" fill-rule="evenodd">
        <path d="M12.6806,1.4 C13.4434,1.4 14.0994,1.93807 14.2489,2.68586 L14.849,5.68632 C14.9878,6.38017 14.6574,7.04127 14.0999,7.37483 L14.0999,13 C14.0999,13.8835 13.384,14.6 12.5001,14.6 L3.49963,14.6 C2.61582,14.6 1.89989,13.8835 1.89988,13 L1.89988,7.37481 C1.34233,7.0412 1.012,6.38 1.15075,5.68622 L1.75076,2.68617 C1.90027,1.93866 2.55613,1.4 3.31917,1.4 L12.6806,1.4 Z M12.8999,7.6 L3.09988,7.6 L3.09988,13 C3.09988,13.2211 3.27891,13.4 3.49964,13.4 L12.5001,13.4 C12.7209,13.4 12.8999,13.2211 12.8999,13 L12.8999,7.6 Z M11.9999,10.9 L11.9999,12.1 L8.99988,12.1 L8.99988,10.9 L11.9999,10.9 Z M12.6806,2.6 L3.31917,2.6 C3.12887,2.6 2.96492,2.73421 2.92745,2.92153 L2.32745,5.92155 C2.27795,6.16907 2.46727,6.4 2.71969,6.4 L13.2801,6.4 C13.5326,6.4 13.7218,6.16908 13.6723,5.92167 L13.0722,2.9212 C13.0348,2.73413 12.8712,2.6 12.6806,2.6 Z" id="形状" fill="#1E2226" fill-rule="nonzero"></path>
    </g>
</svg>