<svg width="16" height="16" viewBox="0 0 16 16" fill="none" xmlns="http://www.w3.org/2000/svg">
<path d="M1.25 2.84999H1.92572C2.11719 2.84999 2.28181 2.98569 2.31836 3.17365L3.7537 10.5554C3.89989 11.3072 4.55838 11.85 5.32428 11.85H11.7533C12.4619 11.85 13.0861 11.3839 13.2874 10.7045L14.6948 5.95453C14.9986 4.92909 14.2302 3.89999 13.1607 3.89999H3.68207L3.4963 2.9446C3.35011 2.19278 2.69162 1.64999 1.92572 1.64999H1.25V2.84999ZM4.93164 10.3263L3.9154 5.09999H13.1607C13.4281 5.09999 13.6202 5.35727 13.5443 5.61363L12.1368 10.3636C12.0865 10.5335 11.9305 10.65 11.7533 10.65H5.32428C5.13281 10.65 4.96819 10.5143 4.93164 10.3263ZM4 14.25C4.55228 14.25 5 13.8023 5 13.25C5 12.6977 4.55228 12.25 4 12.25C3.44772 12.25 3 12.6977 3 13.25C3 13.8023 3.44772 14.25 4 14.25ZM12.5 14.25C13.0523 14.25 13.5 13.8023 13.5 13.25C13.5 12.6977 13.0523 12.25 12.5 12.25C11.9477 12.25 11.5 12.6977 11.5 13.25C11.5 13.8023 11.9477 14.25 12.5 14.25Z" fill="#1E2226"/>
</svg>
