<svg width="16" height="16" viewBox="0 0 16 16" fill="none" xmlns="http://www.w3.org/2000/svg">
<path d="M1.59991 7.99999C1.59994 8.00098 1.60019 8.0082 1.60215 8.02259C1.60438 8.0389 1.60837 8.06123 1.61509 8.08997C1.62866 8.14803 1.65121 8.22308 1.68518 8.31457C1.75321 8.49779 1.85953 8.7267 2.00605 8.9865C2.29898 9.50589 2.73685 10.1209 3.30419 10.7081C4.44404 11.888 6.04834 12.9 7.9999 12.9C9.95146 12.9 11.5558 11.888 12.6956 10.7081C13.263 10.1209 13.7008 9.50589 13.9938 8.9865C14.1403 8.7267 14.2466 8.49779 14.3146 8.31457C14.3486 8.22308 14.3711 8.14803 14.3847 8.08997C14.3914 8.06123 14.3954 8.0389 14.3977 8.02259C14.3999 8.0059 14.3999 7.99886 14.3999 7.99999C14.3999 7.999 14.3996 7.99178 14.3977 7.9774C14.3954 7.96109 14.3914 7.93876 14.3847 7.91002C14.3711 7.85195 14.3486 7.77691 14.3146 7.68542C14.2466 7.5022 14.1403 7.27329 13.9938 7.01349C13.7008 6.4941 13.263 5.87914 12.6956 5.29187C11.5558 4.11199 9.95146 3.09999 7.9999 3.09999C6.04834 3.09999 4.44404 4.11199 3.30419 5.29187C2.73685 5.87914 2.29898 6.4941 2.00605 7.01349C1.85953 7.27329 1.75321 7.5022 1.68518 7.68542C1.65121 7.77691 1.62866 7.85195 1.61509 7.91002C1.60837 7.93876 1.60438 7.96109 1.60215 7.9774C1.60019 7.99178 1.59994 7.999 1.59991 7.99999ZM14.3999 8.00011V7.99999C14.3999 8.00007 14.3999 8.00011 14.3999 8.00011ZM2.44115 4.45811C3.71647 3.138 5.61218 1.89999 7.9999 1.89999C10.3876 1.89999 12.2833 3.138 13.5587 4.45811C14.1989 5.12085 14.6974 5.81839 15.039 6.424C15.2097 6.7267 15.3452 7.01341 15.4396 7.26769C15.5288 7.50806 15.5999 7.76763 15.5999 7.99999C15.5999 8.23235 15.5288 8.49193 15.4396 8.7323C15.3452 8.98657 15.2097 9.27329 15.039 9.57599C14.6974 10.1816 14.1989 10.8791 13.5587 11.5419C12.2833 12.862 10.3876 14.1 7.9999 14.1C5.61218 14.1 3.71647 12.862 2.44115 11.5419C1.8009 10.8791 1.30238 10.1816 0.960828 9.57599C0.790107 9.27329 0.654654 8.98657 0.560232 8.7323C0.470975 8.49193 0.399902 8.23235 0.399902 7.99999C0.399902 7.76763 0.470975 7.50806 0.560232 7.26769C0.654654 7.01341 0.790107 6.7267 0.960828 6.424C1.30238 5.81839 1.8009 5.12085 2.44115 4.45811ZM7.9999 6.09999C6.95056 6.09999 6.0999 6.95065 6.0999 7.99999C6.0999 9.04934 6.95056 9.89999 7.9999 9.89999C9.04924 9.89999 9.8999 9.04934 9.8999 7.99999C9.8999 6.95065 9.04924 6.09999 7.9999 6.09999ZM4.8999 7.99999C4.8999 6.28791 6.28782 4.89999 7.9999 4.89999C9.71199 4.89999 11.0999 6.28791 11.0999 7.99999C11.0999 9.71208 9.71199 11.1 7.9999 11.1C6.28782 11.1 4.8999 9.71208 4.8999 7.99999Z" fill="#1E2226"/>
</svg>
