<svg width="16" height="16" viewBox="0 0 16 16" fill="none" xmlns="http://www.w3.org/2000/svg">
<path d="M7.169 1.43556C7.47643 0.696398 8.52354 0.696396 8.83097 1.43556L10.397 5.20077L14.4619 5.52665C15.2599 5.59062 15.5834 6.58648 14.9755 7.10728L11.8785 9.76019L12.8246 13.7268C13.0104 14.5055 12.1633 15.121 11.4801 14.7037L7.99998 12.5781L4.51989 14.7037C3.83671 15.121 2.98958 14.5055 3.17533 13.7268L4.12151 9.76019L1.02451 7.10728C0.416531 6.58648 0.740101 5.59063 1.53809 5.52665L5.60296 5.20077L7.169 1.43556ZM7.99998 2.56238L6.64057 5.8308C6.51096 6.14241 6.21791 6.35532 5.8815 6.38229L2.35297 6.66517L5.04134 8.96805C5.29765 9.18761 5.40958 9.53211 5.33128 9.86039L4.50994 13.3036L7.53086 11.4585C7.81887 11.2826 8.1811 11.2826 8.46911 11.4585L11.49 13.3036L10.6687 9.86039C10.5904 9.53211 10.7023 9.18761 10.9586 8.96805L13.647 6.66517L10.1185 6.38229C9.78205 6.35532 9.489 6.14241 9.3594 5.8308L7.99998 2.56238Z" fill="#1E2226"/>
</svg>
