<svg width="16" height="16" viewBox="0 0 16 16" fill="none" xmlns="http://www.w3.org/2000/svg">
<path d="M0.899994 2.99999C0.899994 2.39248 1.39248 1.89999 1.99999 1.89999H14C14.6075 1.89999 15.1 2.39248 15.1 2.99999V5.49999C15.1 5.98515 14.7859 6.39694 14.35 6.54314V13C14.35 13.6075 13.8575 14.1 13.25 14.1H2.74999C2.14248 14.1 1.64999 13.6075 1.64999 13V6.54314C1.21407 6.39694 0.899994 5.98515 0.899994 5.49999V2.99999ZM2.84999 6.59999V12.9H13.15V6.59999H2.84999ZM13.9 5.39999V3.09999H2.09999V5.39999H13.9ZM6.49999 9.09999H9.49999V7.89999H6.49999V9.09999Z" fill="#1E2226"/>
</svg>
