<svg width="16" height="16" viewBox="0 0 16 16" fill="none" xmlns="http://www.w3.org/2000/svg">
<path d="M2.7499 1.65002C1.86625 1.65002 1.1499 2.36637 1.1499 3.25002V12.75C1.1499 13.6337 1.86625 14.35 2.7499 14.35H13.2499C14.1336 14.35 14.8499 13.6337 14.8499 12.75V3.25002C14.8499 2.36637 14.1336 1.65002 13.2499 1.65002H2.7499ZM2.3499 3.25002C2.3499 3.02911 2.52899 2.85002 2.7499 2.85002H13.2499C13.4708 2.85002 13.6499 3.02911 13.6499 3.25002V5.15002L2.3499 5.15002V3.25002ZM2.3499 6.35002L7.39993 6.35002V9.15004L2.3499 9.15004V6.35002ZM2.3499 10.35H7.39993V13.15H2.7499C2.52899 13.15 2.3499 12.9709 2.3499 12.75V10.35ZM8.59993 13.15V10.35H13.6499V12.75C13.6499 12.9709 13.4708 13.15 13.2499 13.15H8.59993ZM13.6499 9.15004L8.59993 9.15004V6.35002L13.6499 6.35002V9.15004Z" fill="#1E2226"/>
</svg>
