<svg width="16" height="16" viewBox="0 0 16 16" fill="none" xmlns="http://www.w3.org/2000/svg">
<path d="M1.8999 2.49999C1.8999 1.61634 2.61625 0.899994 3.4999 0.899994H9.9999C10.159 0.899994 10.3116 0.963208 10.4242 1.07573L13.9242 4.57573C14.0367 4.68825 14.0999 4.84086 14.0999 4.99999V13.5C14.0999 14.3836 13.3836 15.1 12.4999 15.1H3.4999C2.61625 15.1 1.8999 14.3836 1.8999 13.5V2.49999ZM3.4999 2.09999C3.27899 2.09999 3.0999 2.27908 3.0999 2.49999V13.5C3.0999 13.7209 3.27899 13.9 3.4999 13.9H12.4999C12.7208 13.9 12.8999 13.7209 12.8999 13.5V5.59999H10.4999C9.89239 5.59999 9.3999 5.10751 9.3999 4.49999V2.09999H3.4999ZM10.5999 2.94852V4.39999H12.0514L10.5999 2.94852ZM10.9999 8.59999H4.99991V7.39999H10.9999V8.59999ZM4.99991 11.6H8.99991V10.4H4.99991V11.6Z" fill="#1E2226"/>
</svg>
