<svg width="16" height="16" viewBox="0 0 16 16" fill="none" xmlns="http://www.w3.org/2000/svg">
<path d="M3.4999 2.10002C3.27899 2.10002 3.0999 2.27911 3.0999 2.50002V13.5C3.0999 13.7209 3.27899 13.9 3.4999 13.9H4.9999V15.1H3.4999C2.61625 15.1 1.8999 14.3837 1.8999 13.5V2.50002C1.8999 1.61637 2.61625 0.900024 3.4999 0.900024H10.1073C10.5339 0.900024 10.9428 1.07036 11.2432 1.37321L13.6358 3.78507C13.9331 4.08475 14.0999 4.48977 14.0999 4.91189V7.00002H12.8999V4.91189C12.8999 4.80636 12.8582 4.7051 12.7839 4.63018L10.3913 2.21832C10.3162 2.14261 10.214 2.10002 10.1073 2.10002H3.4999ZM9.90005 8.65002H6.50005V9.85003H10.5001H14.5001V8.65002H11.1001V6.25002H9.90005V8.65002ZM6.17153 14.5787C6.09375 14.7794 6.23913 15 6.45437 15H11.8148C11.9283 15 12.033 14.9364 12.0783 14.8324C12.3397 14.2317 12.4399 13.552 12.4779 13.082C12.4828 13.021 12.6022 13.0114 12.6142 13.0714L12.9517 14.7589C12.9797 14.8991 13.1029 15 13.2459 15H14.1648C14.3436 15 14.4827 14.8446 14.4629 14.6669L14.0296 10.7669C14.0127 10.615 13.8843 10.5 13.7314 10.5H7.31266C7.14209 10.5 7.00338 10.641 6.99719 10.8115C6.97531 11.4143 6.84704 12.8358 6.17153 14.5787Z" fill="#1E2226"/>
</svg>
