<svg width="16" height="16" viewBox="0 0 16 16" fill="none" xmlns="http://www.w3.org/2000/svg">
<path d="M7.74538 2.60002C6.27938 2.60002 4.60009 3.47791 4.60009 5.13137C4.59635 5.48419 4.73142 5.82491 4.82832 6.15934L3.67573 6.4933C3.54484 6.04158 3.3956 5.59814 3.40009 5.1219C3.40195 2.97963 5.32049 1.40002 7.74538 1.40002C9.62005 1.40002 11.1761 2.32782 11.7996 3.75153L12.0403 4.30114L10.941 4.7825L10.7004 4.23289C10.3043 3.32848 9.24078 2.60002 7.74538 2.60002ZM1.8999 7.40002H14.0999V8.60002H11.4413C12.1341 9.15532 12.5999 9.9274 12.5999 11C12.5999 12.0602 12.0252 12.9737 11.1875 13.6017C10.35 14.2295 9.22076 14.6 7.9999 14.6C6.77904 14.6 5.64985 14.2295 4.81234 13.6017C3.7215 12.7839 3.3999 11.6907 3.3999 10.4H4.5999C4.5999 11.3123 4.74143 12.0488 5.53211 12.6415C6.14282 13.0993 7.01362 13.4 7.9999 13.4C8.98618 13.4 9.85699 13.0993 10.4677 12.6415C11.0782 12.1838 11.3999 11.5974 11.3999 11C11.3999 10.319 11.1219 9.86716 10.6485 9.50321C10.1584 9.12645 9.46747 8.85353 8.6523 8.60002H1.8999V7.40002Z" fill="#1E2226"/>
</svg>
