<svg width="16" height="16" viewBox="0 0 16 16" fill="none" xmlns="http://www.w3.org/2000/svg">
<path d="M8.34042 1.14999C7.93193 1.14999 7.54892 1.34846 7.31335 1.68217L4.68901 5.39999H2.4999C1.89239 5.39999 1.3999 5.89248 1.3999 6.49999V13.5C1.3999 14.1075 1.89239 14.6 2.4999 14.6H4.9999H11.34C12.5912 14.6 13.6649 13.7089 13.8955 12.4791L14.6455 8.47915C14.9455 6.87907 13.718 5.39999 12.09 5.39999H9.75746L10.2039 3.50279C10.4866 2.30114 9.57488 1.14999 8.34042 1.14999ZM4.3999 13.4H2.5999V6.59999H4.3999V13.4ZM5.5999 13.4V6.19043L8.29371 2.37419C8.30443 2.35902 8.32184 2.34999 8.34042 2.34999C8.80106 2.34999 9.14127 2.77955 9.03576 3.22794L8.41585 5.86257C8.37387 6.041 8.41575 6.22883 8.52955 6.37252C8.64336 6.51621 8.8166 6.59999 8.9999 6.59999H12.09C12.9666 6.59999 13.6276 7.39642 13.4661 8.258L12.7161 12.258C12.5919 12.9202 12.0138 13.4 11.34 13.4H5.5999Z" fill="#1E2226"/>
</svg>
