<svg width="16" height="16" viewBox="0 0 16 16" fill="none" xmlns="http://www.w3.org/2000/svg">
<path d="M2.4 3.89998C2.89706 3.89998 3.3 3.49703 3.3 2.99998C3.3 2.50292 2.89706 2.09998 2.4 2.09998C1.90294 2.09998 1.5 2.50292 1.5 2.99998C1.5 3.49703 1.90294 3.89998 2.4 3.89998ZM5 3.59997H14V2.39997H5V3.59997ZM5 8.59997H14V7.39997H5V8.59997ZM5 13.6H14V12.4H5V13.6ZM2.4 13.8999C2.89706 13.8999 3.3 13.497 3.3 12.9999C3.3 12.5029 2.89706 12.0999 2.4 12.0999C1.90294 12.0999 1.5 12.5029 1.5 12.9999C1.5 13.497 1.90294 13.8999 2.4 13.8999ZM3.3 7.99998C3.3 8.49703 2.89706 8.89998 2.4 8.89998C1.90294 8.89998 1.5 8.49703 1.5 7.99998C1.5 7.50292 1.90294 7.09998 2.4 7.09998C2.89706 7.09998 3.3 7.50292 3.3 7.99998Z" fill="#1E2226"/>
</svg>
