<svg width="16" height="16" viewBox="0 0 16 16" fill="none" xmlns="http://www.w3.org/2000/svg">
<path d="M2.4999 1.89999C1.61625 1.89999 0.899902 2.61634 0.899902 3.49999V12.5C0.899902 13.3836 1.61625 14.1 2.4999 14.1H13.4999C14.3836 14.1 15.0999 13.3837 15.0999 12.5V3.49999C15.0999 2.61634 14.3836 1.89999 13.4999 1.89999H2.4999ZM2.0999 3.49999C2.0999 3.27908 2.27899 3.09999 2.4999 3.09999H13.4999C13.7208 3.09999 13.8999 3.27908 13.8999 3.49999V12.5C13.8999 12.7209 13.7208 12.9 13.4999 12.9H2.4999C2.27899 12.9 2.0999 12.7209 2.0999 12.5V3.49999ZM9.4999 7.09999H12.4999V5.89999H9.4999V7.09999ZM9.4999 10.1H12.4999V8.89999H9.4999V10.1ZM5.74989 4.99999L5.79269 5.00062C6.58177 5.02388 7.23929 5.68271 7.26281 6.49513L7.26338 6.53658V7.12194C7.26338 7.66178 6.99094 8.19195 6.57058 8.47653L6.54928 8.49192C6.33636 8.65607 6.34477 8.97456 6.56948 9.07948L8.11425 9.80811C8.37414 9.93712 8.52656 10.171 8.49604 10.456C8.46557 10.7405 8.24354 10.9775 7.96264 10.9989L7.93129 11H3.56851C3.27905 11 3.03582 10.7554 3.00376 10.456C2.97325 10.171 3.12566 9.93712 3.3893 9.80629L4.93106 9.07914C5.16227 8.97118 5.16374 8.63531 4.92919 8.47653C4.50472 8.18917 4.23642 7.67188 4.23642 7.12194V6.53658C4.23642 5.69245 4.92748 4.99999 5.74989 4.99999Z" fill="#1E2226"/>
</svg>
