<?xml version="1.0" encoding="UTF-8"?>
<svg width="16px" height="16px" viewBox="0 0 16 16" version="1.1" xmlns="http://www.w3.org/2000/svg" xmlns:xlink="http://www.w3.org/1999/xlink">
    <title>画板备份 5</title>
    <g id="画板备份-5" stroke="none" stroke-width="1" fill="none" fill-rule="evenodd">
        <path d="M7.999998,0.9 C11.921198,0.9 15.099998,4.078776 15.099998,7.999996 C15.099998,11.921206 11.921198,15.100006 7.999998,15.100006 C4.078778,15.100006 0.9,11.921206 0.9,7.999996 C0.9,4.078776 4.078778,0.9 7.999998,0.9 Z M7.999998,2.099996 C4.741518,2.099996 2.099998,4.741516 2.099998,7.999996 C2.099998,11.258506 4.741518,13.900006 7.999998,13.900006 C11.258498,13.900006 13.899998,11.258506 13.899998,7.999996 C13.899998,4.741516 11.258498,2.099996 7.999998,2.099996 Z M7.03427271,4.49840742 L7.130808,4.559176 L10.758898,7.098846 C11.347698,7.511006 11.3823333,8.35593887 10.8628039,8.81901333 L10.758898,8.901166 L7.130808,11.440806 C6.43345583,11.9290147 5.48659205,11.4730117 5.40557431,10.6536367 L5.399998,10.539706 L5.399998,5.460336 C5.399998,4.64963372 6.23133054,4.14462308 6.93050773,4.44694192 L7.03427271,4.49840742 Z M6.599998,5.652396 L6.599998,10.347606 L9.953728,8.000006 L6.599998,5.652396 Z" id="形状" fill="#1E2226" fill-rule="nonzero"></path>
    </g>
</svg>