<svg width="16" height="16" viewBox="0 0 16 16" fill="none" xmlns="http://www.w3.org/2000/svg">
<path d="M1.1499 3.24999C1.1499 2.36634 1.86625 1.64999 2.7499 1.64999H13.2499C14.1336 1.64999 14.8499 2.36634 14.8499 3.24999V12.75C14.8499 13.6336 14.1336 14.35 13.2499 14.35H2.7499C1.86625 14.35 1.1499 13.6336 1.1499 12.75V3.24999ZM2.7499 2.84999C2.52899 2.84999 2.3499 3.02908 2.3499 3.24999V12.75C2.3499 12.9709 2.52899 13.15 2.7499 13.15H13.2499C13.4708 13.15 13.6499 12.9709 13.6499 12.75V3.24999C13.6499 3.02908 13.4708 2.84999 13.2499 2.84999H2.7499ZM6.5999 5.65239V10.3476L9.95363 7.99999L6.5999 5.65239ZM5.3999 5.46032C5.3999 4.57039 6.40166 4.04883 7.13071 4.55917L10.7588 7.09884C11.3844 7.53675 11.3844 8.46324 10.7588 8.90115L7.13071 11.4408C6.40166 11.9512 5.3999 11.4296 5.3999 10.5397V5.46032Z" fill="#1E2226"/>
</svg>
