<svg width="16" height="16" viewBox="0 0 16 16" fill="none" xmlns="http://www.w3.org/2000/svg">
<path d="M3.65001 5.24999C3.65001 2.84756 5.59757 0.899994 8.00001 0.899994C10.4025 0.899994 12.35 2.84756 12.35 5.24999V7.24999C12.35 9.65243 10.4025 11.6 8.00001 11.6C5.59757 11.6 3.65001 9.65243 3.65001 7.24999V5.24999ZM8.00001 2.09999C6.26032 2.09999 4.85001 3.5103 4.85001 5.24999V7.24999C4.85001 8.98969 6.26032 10.4 8.00001 10.4C9.73971 10.4 11.15 8.98969 11.15 7.24999V5.24999C11.15 3.5103 9.73971 2.09999 8.00001 2.09999ZM2.00079 10.2546C1.94783 10.1394 1.89808 10.0224 1.85165 9.90378L2.96917 9.46657C3.0071 9.56351 3.04776 9.6591 3.09105 9.75324C3.94563 11.6117 5.82302 12.9 8.00006 12.9C10.1786 12.9 12.057 11.6099 12.9108 9.74952C12.9532 9.65719 12.993 9.56348 13.0302 9.46846L14.1476 9.9061C14.102 10.0224 14.0533 10.1371 14.0014 10.25C13.0384 12.3485 11.0058 13.8563 8.60004 14.0731L8.60001 15L7.40001 15L7.40004 14.0731C4.99602 13.8564 2.96468 12.3507 2.00079 10.2546Z" fill="#1E2226"/>
</svg>
