<svg width="16" height="16" viewBox="0 0 16 16" fill="none" xmlns="http://www.w3.org/2000/svg">
<path d="M6.72208 1.92928C7.41505 1.23632 8.5999 1.7271 8.5999 2.70709V13.2929C8.5999 14.2729 7.41505 14.7637 6.72209 14.0707L3.75137 11.1H2.4999C1.61625 11.1 0.899902 10.3836 0.899902 9.49999V6.49999C0.899902 5.61633 1.61625 4.89999 2.4999 4.89999H3.75137L6.72208 1.92928ZM7.3999 2.94852L4.42417 5.92425C4.31164 6.03677 4.15903 6.09999 3.9999 6.09999H2.4999C2.27899 6.09999 2.0999 6.27907 2.0999 6.49999V9.49999C2.0999 9.7209 2.27899 9.89999 2.4999 9.89999H3.9999C4.15903 9.89999 4.31164 9.9632 4.42417 10.0757L7.3999 13.0515V2.94852ZM11.1514 7.99999L9.07564 5.92425L9.92417 5.07572L11.9999 7.15146L14.0756 5.07572L14.9242 5.92425L12.8484 7.99999L14.9242 10.0757L14.0756 10.9243L11.9999 8.84852L9.92417 10.9243L9.07564 10.0757L11.1514 7.99999Z" fill="#1E2226"/>
</svg>
