<svg width="16" height="16" viewBox="0 0 16 16" fill="none" xmlns="http://www.w3.org/2000/svg">
<path d="M6.72208 1.92928C7.41505 1.23632 8.5999 1.7271 8.5999 2.70709V13.2929C8.5999 14.2729 7.41505 14.7637 6.72209 14.0707L3.75137 11.1H2.4999C1.61625 11.1 0.899902 10.3836 0.899902 9.49999V6.49999C0.899902 5.61633 1.61625 4.89999 2.4999 4.89999H3.75137L6.72208 1.92928ZM7.3999 2.94852L4.42417 5.92425C4.31164 6.03677 4.15903 6.09999 3.9999 6.09999H2.4999C2.27899 6.09999 2.0999 6.27907 2.0999 6.49999V9.49999C2.0999 9.7209 2.27899 9.89999 2.4999 9.89999H3.9999C4.15903 9.89999 4.31164 9.9632 4.42417 10.0757L7.3999 13.0515V2.94852ZM13.0299 2.99689C14.3059 4.27998 15.0956 6.05007 15.0956 8.00343C15.0956 9.96489 14.2994 11.7415 13.014 13.0259L12.1658 12.177C13.2352 11.1085 13.8956 9.63367 13.8956 8.00343C13.8956 6.37989 13.2406 4.91049 12.179 3.84308L13.0299 2.99689ZM10.8936 5.0952C11.637 5.83678 12.0981 6.86407 12.0981 7.99792C12.0981 9.12589 11.6418 10.1484 10.9051 10.8891L10.0543 10.0429C10.5764 9.51791 10.8981 8.79605 10.8981 7.99792C10.8981 7.19566 10.5731 6.47043 10.0461 5.94477L10.8936 5.0952Z" fill="#1E2226"/>
</svg>
