<svg width="16" height="16" viewBox="0 0 16 16" fill="none" xmlns="http://www.w3.org/2000/svg">
<path d="M0.899902 3.49983C0.899902 2.61604 1.61638 1.9 2.4999 1.9H13.4999C14.3834 1.9 15.0999 2.61604 15.0999 3.49983V6.61364L14.8003 6.78693C14.3803 7.0299 14.0999 7.48256 14.0999 8C14.0999 8.51744 14.3803 8.9701 14.8003 9.21307L15.0999 9.38636V12.5007C15.0999 13.3849 14.383 14.1 13.4999 14.1H2.4999C1.61679 14.1 0.899904 13.3849 0.899903 12.5007L0.899903 9.38636L1.19947 9.21307C1.61949 8.9701 1.8999 8.51744 1.8999 8C1.8999 7.48256 1.61949 7.0299 1.19947 6.78693L0.899903 6.61364L0.899902 3.49983ZM2.4999 3.1C2.27886 3.1 2.0999 3.27905 2.0999 3.49983L2.0999 5.95055C2.70779 6.4258 3.0999 7.16685 3.0999 8C3.0999 8.83316 2.70779 9.5742 2.0999 10.0495L2.0999 12.5007C2.0999 12.7211 2.27845 12.9 2.4999 12.9H13.4999C13.7214 12.9 13.8999 12.7211 13.8999 12.5007V10.05C13.292 9.57479 12.8999 8.83316 12.8999 8C12.8999 7.16685 13.292 6.42581 13.8999 5.95055V3.49983C13.8999 3.27905 13.7209 3.1 13.4999 3.1H2.4999ZM10.9999 7.1H4.9999V5.9H10.9999V7.1ZM8.9999 10.1H4.9999V8.9H8.9999V10.1Z" fill="#1E2226"/>
</svg>
