<svg width="16" height="16" viewBox="0 0 16 16" fill="none" xmlns="http://www.w3.org/2000/svg">
<path d="M6.19937 2.83503C7.01501 1.47562 8.98519 1.47562 9.80084 2.83504L14.6516 10.9196C15.4914 12.3193 14.4831 14.1 12.8508 14.1H3.14939C1.51707 14.1 0.50883 12.3193 1.34865 10.9196L6.19937 2.83503ZM8.77184 3.45243C8.42228 2.86982 7.57792 2.86982 7.22836 3.45243L2.37764 11.537C2.01772 12.1368 2.44982 12.9 3.14939 12.9H12.8508C13.5504 12.9 13.9825 12.1368 13.6226 11.537L8.77184 3.45243ZM7.4001 9.5V5.5H8.6001V9.5H7.4001ZM8.6001 10.5V11.5H7.4001V10.5H8.6001Z" fill="#1E2226"/>
</svg>
