<svg width="16" height="16" viewBox="0 0 16 16" fill="none" xmlns="http://www.w3.org/2000/svg">
<path d="M1.8999 2.5C1.8999 1.61634 2.61625 0.9 3.4999 0.9H12.4999C13.3836 0.9 14.0999 1.61634 14.0999 2.5V5H12.8999V2.5C12.8999 2.27909 12.7208 2.1 12.4999 2.1H3.4999C3.27899 2.1 3.0999 2.27909 3.0999 2.5V13.5C3.0999 13.7209 3.27899 13.9 3.4999 13.9H4.9999V15.1H3.4999C2.61625 15.1 1.8999 14.3837 1.8999 13.5V2.5ZM12.3534 6.57574C12.5877 6.34142 12.9676 6.34142 13.2019 6.57574L15.4242 8.79796C15.6585 9.03227 15.6585 9.41217 15.4242 9.64649L9.64639 15.4243C9.53387 15.5368 9.38125 15.6 9.22212 15.6H6.9999C6.66853 15.6 6.3999 15.3314 6.3999 15V12.7778C6.3999 12.6186 6.46312 12.466 6.57564 12.3535L12.3534 6.57574ZM7.5999 13.0263V14.4H8.9736L14.1514 9.22222L12.7777 7.84853L7.5999 13.0263ZM4.9999 5.6H10.9999V4.4H4.9999V5.6Z" fill="#1E2226"/>
</svg>
