<svg width="16" height="16" viewBox="0 0 16 16" fill="none" xmlns="http://www.w3.org/2000/svg">
<path fill-rule="evenodd" clip-rule="evenodd" d="M1.75 11V3.5C1.75 2.11929 2.86929 1 4.25 1H9V2H4.25C3.42157 2 2.75 2.67157 2.75 3.5V11H1.75ZM5.75 3.50001C4.92157 3.50001 4.25 4.17158 4.25 5.00001V13C4.25 13.8284 4.92157 14.5 5.75 14.5H12C12.8284 14.5 13.5 13.8284 13.5 13V5.00001C13.5 4.17158 12.8284 3.50001 12 3.50001H5.75ZM5.25 5.00001C5.25 4.72386 5.47386 4.50001 5.75 4.50001H12C12.2761 4.50001 12.5 4.72386 12.5 5.00001V13C12.5 13.2761 12.2761 13.5 12 13.5H5.75C5.47386 13.5 5.25 13.2761 5.25 13V5.00001Z" fill="#8A9099"/>
</svg>
