<svg width="154" height="24" viewBox="0 0 154 24" fill="none" xmlns="http://www.w3.org/2000/svg">
<path d="M58.771 8.35176C61.8047 8.35176 64.4333 10.4878 63.9653 14.9758L56.4297 14.9758C56.759 16.0347 57.8454 16.7038 59.0115 16.7038C59.8777 16.7038 60.693 16.3991 61.2198 15.621L63.4262 17.3245C62.3771 18.6779 60.76 19.4878 59.0115 19.4878C55.9303 19.4878 53.4325 16.9949 53.4325 13.9198C53.4325 10.8194 55.7374 8.35176 58.771 8.35176ZM47.0841 4.79976L41.8427 11.9997L47.0842 19.1997H43.1606L39.2446 13.8204V19.1998H36.0703V4.79981H39.2446V10.1789L43.1605 4.79976H47.0841ZM51.6771 4.79976V19.1998H48.5028V4.79976H51.6771ZM69.2557 8.63976V19.1998H66.0814V8.63976H69.2557ZM77.6242 8.35176C79.7542 8.35176 81.4849 10.0578 81.5193 12.1755L81.5198 12.2398V19.1998H78.3456V13.1038C78.3456 12.2289 77.635 11.5198 76.7585 11.5198C75.8907 11.5198 75.1856 12.2148 75.1715 13.0776L75.1713 13.1038V19.1998H71.9971V8.63976H75.1713L75.1713 9.21906C75.841 8.67673 76.6945 8.35176 77.6242 8.35176ZM58.771 11.1358C57.6489 11.1358 56.7527 11.8209 56.3928 12.8637H61.1492C60.7894 11.8209 59.8931 11.1358 58.771 11.1358ZM67.6686 3.55176C68.6779 3.55176 69.4962 4.36839 69.4962 5.37576C69.4962 6.38313 68.6779 7.19976 67.6686 7.19976C66.6592 7.19976 65.841 6.38313 65.841 5.37576C65.841 4.36839 66.6592 3.55176 67.6686 3.55176Z" fill="#1E2226"/>
<g clip-path="url(#clip0_4344_5376)">
<path d="M20.1978 0H3.84563C1.72067 0 -0.00195312 1.71923 -0.00195312 3.84V20.16C-0.00195312 22.2808 1.72067 24 3.84563 24H20.1978C22.3228 24 24.0454 22.2808 24.0454 20.16V3.84C24.0454 1.71923 22.3228 0 20.1978 0Z" fill="#0055FF"/>
<path fill-rule="evenodd" clip-rule="evenodd" d="M20.9475 4.03873L11.6102 13.3575L10.5831 14.4044C9.66085 15.3443 9.6687 16.8501 10.6007 17.7804L11.6102 18.7881L6.50902 13.697C5.56991 12.7597 5.56991 11.2401 6.50902 10.3028L13.3006 3.52461C14.0222 2.80447 15.0008 2.3999 16.0213 2.3999H20.2673C20.7985 2.3999 21.2292 2.82971 21.2292 3.3599C21.2292 3.61451 21.1279 3.85869 20.9475 4.03873Z" fill="white"/>
<path opacity="0.9" fill-rule="evenodd" clip-rule="evenodd" d="M13.3002 20.4752L12.6301 19.8064C11.691 18.8692 11.691 17.3496 12.6301 16.4123L14.3305 14.7153C14.7062 14.3404 15.3152 14.3404 15.6909 14.7153L20.947 19.9611C21.3227 20.336 21.3227 20.9439 20.947 21.3188C20.7667 21.4988 20.522 21.5999 20.2669 21.5999H16.0209C15.0005 21.5999 14.0218 21.1954 13.3002 20.4752Z" fill="white"/>
</g>
<path fill-rule="evenodd" clip-rule="evenodd" d="M142.505 8.64025L142.505 13.9144L142.505 13.9202V13.9232V17.8082C142.505 20.7955 141.033 23.0402 137.551 23.0402C135.054 23.0402 133.324 21.6919 132.624 21.1231L134.341 19.0804C134.881 19.6612 135.676 20.3746 137.457 20.3127C138.59 20.2733 139.392 19.7421 139.637 18.6153C138.911 18.9892 138.087 19.2002 137.214 19.2002C134.293 19.2002 131.924 16.8363 131.924 13.9202C131.924 11.0042 134.293 8.64025 137.214 8.64025C138.119 8.64025 138.971 8.86686 139.715 9.2663L139.715 8.64025H142.505ZM95.2758 5.28025C99.2601 5.28025 102.49 8.5038 102.49 12.4802C102.49 16.4567 99.2601 19.6802 95.2758 19.6802H90.1777V5.28025H95.2758ZM120.551 8.3629C122.176 8.44839 123.411 8.9044 124.82 10.0728L124.863 10.1084L123.132 12.1678C123.043 12.0935 122.957 12.0239 122.872 11.9587L122.816 11.9158C122.23 11.4728 121.73 11.2422 121.137 11.1296L121.081 11.1193C120.957 11.0976 120.829 11.0808 120.696 11.068L120.633 11.0624C120.602 11.0598 120.571 11.0573 120.539 11.0551L120.474 11.0509C120.453 11.0496 120.431 11.0483 120.409 11.0472C119.716 11.0107 119.24 11.1181 118.989 11.2958C118.85 11.3945 118.792 11.5111 118.792 11.7249C118.792 11.8704 118.828 11.9336 118.983 12.0335C119.194 12.17 119.532 12.2806 119.975 12.346L120.036 12.3547C120.046 12.356 120.057 12.3574 120.067 12.3588L120.13 12.3665L120.194 12.3737C120.238 12.3783 120.282 12.3825 120.327 12.3863L120.395 12.3917L120.429 12.3941C121.533 12.4697 122.523 12.7192 123.302 13.1716C124.345 13.7777 124.976 14.7385 124.976 15.9428C124.976 17.1316 124.355 18.1108 123.343 18.7359C122.54 19.2325 121.516 19.4882 120.48 19.4882C118.507 19.4882 116.837 18.5276 115.613 16.7724L115.576 16.719L117.798 15.2001C118.546 16.2899 119.422 16.8002 120.48 16.8002C121.041 16.8002 121.575 16.6667 121.925 16.4505C122.187 16.2887 122.283 16.1382 122.283 15.9428C122.283 15.7611 122.207 15.646 121.946 15.4946C121.65 15.3224 121.209 15.1912 120.678 15.1195L120.608 15.1105C120.503 15.0974 120.394 15.0867 120.282 15.0785L120.245 15.0758C119.157 15.0014 118.232 14.7514 117.518 14.2891C116.617 13.7063 116.099 12.8069 116.099 11.7249C116.099 10.6568 116.565 9.71733 117.429 9.10443C118.229 8.53759 119.296 8.29688 120.551 8.3629ZM109.223 8.35225C112.257 8.35225 114.886 10.4883 114.417 14.9762L106.882 14.9763C107.211 16.0352 108.298 16.7042 109.464 16.7042C110.33 16.7042 111.145 16.3996 111.672 15.6215L113.878 17.325C112.829 18.6784 111.212 19.4882 109.464 19.4882C106.383 19.4882 103.885 16.9954 103.885 13.9202C103.885 10.8199 106.19 8.35225 109.223 8.35225ZM129.856 8.64025V19.2002H126.682V8.64025H129.856ZM150.104 8.35225C152.234 8.35225 153.965 10.0583 153.999 12.176L153.999 12.2402V19.2002H150.825V13.1042C150.825 12.2294 150.115 11.5202 149.238 11.5202C148.37 11.5202 147.665 12.2153 147.651 13.0781L147.651 13.1042V19.2002H144.477V8.64025H147.651L147.651 9.21954C148.321 8.67722 149.174 8.35225 150.104 8.35225ZM95.2758 8.44825H93.352V16.5122H95.2758C97.507 16.5122 99.3157 14.7071 99.3157 12.4802C99.3157 10.2534 97.507 8.44825 95.2758 8.44825ZM137.214 11.4242C135.833 11.4242 134.713 12.5417 134.713 13.9202C134.713 15.2987 135.833 16.4162 137.214 16.4162C138.596 16.4162 139.715 15.2987 139.715 13.9202C139.715 12.5417 138.596 11.4242 137.214 11.4242ZM109.223 11.1362C108.101 11.1362 107.205 11.8213 106.845 12.8642H111.601C111.242 11.8213 110.345 11.1362 109.223 11.1362ZM128.269 3.55225C129.278 3.55225 130.096 4.36888 130.096 5.37625C130.096 6.38361 129.278 7.20025 128.269 7.20025C127.259 7.20025 126.441 6.38361 126.441 5.37625C126.441 4.36888 127.259 3.55225 128.269 3.55225Z" fill="#1E2226"/>
<defs>
<clipPath id="clip0_4344_5376">
<rect width="24.0474" height="24" fill="white"/>
</clipPath>
</defs>
</svg>
