<svg width="408" height="98" viewBox="0 0 408 98" fill="none" xmlns="http://www.w3.org/2000/svg">
<path d="M4.03965 28H14.0497V49.56L29.6597 28H42.1197L23.9197 53.06L42.1197 78.12H29.6597L14.0497 56.56V78.12H4.03965V28ZM56.934 25.62V78.12H46.8539V25.62H56.934ZM75.9904 67.83C77.8104 69.1367 79.817 69.79 82.0104 69.79C84.1104 69.79 85.8837 69.4867 87.3304 68.88C88.777 68.2267 90.2937 67.1067 91.8804 65.52L91.9504 65.45L97.9704 71.33C95.5437 73.8033 93.0937 75.5533 90.6204 76.58C88.147 77.6067 85.277 78.12 82.0104 78.12C78.6037 78.12 75.477 77.3033 72.6304 75.67C69.7837 73.99 67.5204 71.7267 65.8404 68.88C64.207 66.0333 63.3904 62.9067 63.3904 59.5C63.3904 56.14 64.207 53.0367 65.8404 50.19C67.5204 47.2967 69.7837 45.0333 72.6304 43.4C75.477 41.72 78.6037 40.88 82.0104 40.88C85.3704 40.88 88.4737 41.72 91.3204 43.4C94.167 45.08 96.4304 47.3433 98.1104 50.19C99.7904 53.0367 100.63 56.14 100.63 59.5C100.63 60.2467 100.537 61.3667 100.35 62.86H72.2804C72.9804 64.8667 74.217 66.5233 75.9904 67.83ZM75.9904 51.24C74.217 52.5 72.9804 54.1333 72.2804 56.14H91.6704C90.9237 54.0867 89.6637 52.43 87.8904 51.17C86.1637 49.91 84.2037 49.28 82.0104 49.28C79.817 49.28 77.8104 49.9333 75.9904 51.24ZM107.007 42H117.087V78.12H107.007V42ZM107.847 27.23C106.681 28.3967 106.097 29.7967 106.097 31.43C106.097 33.0633 106.681 34.44 107.847 35.56C109.014 36.68 110.437 37.24 112.117 37.24C113.704 37.24 115.057 36.68 116.177 35.56C117.297 34.3933 117.857 33.0167 117.857 31.43C117.857 29.7967 117.297 28.3967 116.177 27.23C115.057 26.0633 113.704 25.48 112.117 25.48C110.437 25.48 109.014 26.0633 107.847 27.23ZM148.257 78.12V58.1C148.257 56.3267 147.604 54.81 146.297 53.55C145.037 52.2433 143.52 51.59 141.747 51.59C139.927 51.59 138.364 52.22 137.057 53.48C135.797 54.74 135.167 56.28 135.167 58.1V78.12H125.087V41.86H135.167V45.64C136.38 44.1467 137.874 42.98 139.647 42.14C141.42 41.3 143.287 40.88 145.247 40.88C147.627 40.88 149.82 41.4633 151.827 42.63C153.834 43.7967 155.42 45.3833 156.587 47.39C157.754 49.3967 158.337 51.5667 158.337 53.9V78.12H148.257ZM201.431 28C205.958 28 210.134 29.12 213.961 31.36C217.834 33.6 220.891 36.6567 223.131 40.53C225.418 44.3567 226.561 48.5333 226.561 53.06C226.561 57.6333 225.418 61.8333 223.131 65.66C220.891 69.4867 217.858 72.52 214.031 74.76C210.204 77 206.004 78.12 201.431 78.12H181.971V28H201.431ZM201.431 68.11C204.184 68.11 206.704 67.4333 208.991 66.08C211.278 64.7267 213.098 62.9067 214.451 60.62C215.804 58.3333 216.481 55.8133 216.481 53.06C216.481 50.3533 215.804 47.8567 214.451 45.57C213.098 43.2367 211.254 41.3933 208.921 40.04C206.634 38.6867 204.138 38.01 201.431 38.01H191.981V68.11H201.431ZM244.182 67.83C246.002 69.1367 248.008 69.79 250.202 69.79C252.302 69.79 254.075 69.4867 255.522 68.88C256.968 68.2267 258.485 67.1067 260.072 65.52L260.142 65.45L266.162 71.33C263.735 73.8033 261.285 75.5533 258.812 76.58C256.338 77.6067 253.468 78.12 250.202 78.12C246.795 78.12 243.668 77.3033 240.822 75.67C237.975 73.99 235.712 71.7267 234.032 68.88C232.398 66.0333 231.582 62.9067 231.582 59.5C231.582 56.14 232.398 53.0367 234.032 50.19C235.712 47.2967 237.975 45.0333 240.822 43.4C243.668 41.72 246.795 40.88 250.202 40.88C253.562 40.88 256.665 41.72 259.512 43.4C262.358 45.08 264.622 47.3433 266.302 50.19C267.982 53.0367 268.822 56.14 268.822 59.5C268.822 60.2467 268.728 61.3667 268.542 62.86H240.472C241.172 64.8667 242.408 66.5233 244.182 67.83ZM244.182 51.24C242.408 52.5 241.172 54.1333 240.472 56.14H259.862C259.115 54.0867 257.855 52.43 256.082 51.17C254.355 49.91 252.395 49.28 250.202 49.28C248.008 49.28 246.002 49.9333 244.182 51.24ZM283.669 51.87C283.669 52.8033 284.159 53.5267 285.139 54.04C286.119 54.5533 287.682 55.09 289.829 55.65C292.302 56.35 294.332 57.05 295.919 57.75C297.506 58.45 298.882 59.5467 300.049 61.04C301.262 62.5333 301.869 64.4933 301.869 66.92C301.869 70.5133 300.516 73.29 297.809 75.25C295.102 77.1633 291.742 78.12 287.729 78.12C284.182 78.12 281.149 77.42 278.629 76.02C276.109 74.5733 274.196 72.4733 272.889 69.72L280.869 65.31C281.336 66.8033 282.152 67.9467 283.319 68.74C284.532 69.5333 286.002 69.93 287.729 69.93C289.176 69.93 290.342 69.6733 291.229 69.16C292.116 68.6467 292.559 67.9 292.559 66.92C292.559 65.9867 292.069 65.2633 291.089 64.75C290.109 64.2367 288.522 63.6767 286.329 63.07C283.856 62.3233 281.826 61.6 280.239 60.9C278.699 60.2 277.346 59.15 276.179 57.75C275.012 56.3033 274.429 54.4367 274.429 52.15C274.429 49.8167 275.012 47.81 276.179 46.13C277.392 44.4033 279.002 43.0967 281.009 42.21C283.062 41.3233 285.326 40.88 287.799 40.88C290.692 40.88 293.306 41.5333 295.639 42.84C297.972 44.1467 299.839 45.99 301.239 48.37L293.399 52.64C292.886 51.52 292.139 50.6567 291.159 50.05C290.179 49.3967 289.059 49.07 287.799 49.07C286.632 49.07 285.652 49.3267 284.859 49.84C284.066 50.3067 283.669 50.9833 283.669 51.87ZM308.044 42H318.124V78.12H308.044V42ZM308.884 27.23C307.718 28.3967 307.134 29.7967 307.134 31.43C307.134 33.0633 307.718 34.44 308.884 35.56C310.051 36.68 311.474 37.24 313.154 37.24C314.741 37.24 316.094 36.68 317.214 35.56C318.334 34.3933 318.894 33.0167 318.894 31.43C318.894 29.7967 318.334 28.3967 317.214 27.23C316.094 26.0633 314.741 25.48 313.154 25.48C311.474 25.48 310.051 26.0633 308.884 27.23ZM332.774 43.4C335.387 41.72 338.234 40.88 341.314 40.88C343.367 40.88 345.327 41.3 347.194 42.14C349.107 42.9333 350.834 44.0533 352.374 45.5V41.86H362.454V78.19C362.454 81.3167 361.591 84.1867 359.864 86.8C358.184 89.46 355.897 91.5367 353.004 93.03C350.111 94.57 346.961 95.34 343.554 95.34C340.007 95.34 336.717 94.5 333.684 92.82C330.697 91.1867 328.387 88.97 326.754 86.17L326.614 85.96L335.504 81.06C336.204 82.2733 337.277 83.2533 338.724 84C340.217 84.7933 341.827 85.19 343.554 85.19C345.981 85.19 348.034 84.49 349.714 83.09C351.441 81.7367 352.327 80.1267 352.374 78.26V73.57C350.834 75.0167 349.107 76.16 347.194 77C345.327 77.7933 343.367 78.19 341.314 78.19C338.234 78.19 335.387 77.35 332.774 75.67C330.207 73.99 328.177 71.7267 326.684 68.88C325.191 66.0333 324.444 62.9067 324.444 59.5C324.444 56.0933 325.191 52.9667 326.684 50.12C328.177 47.2733 330.207 45.0333 332.774 43.4ZM335.364 54.74C334.571 56.1867 334.174 57.7733 334.174 59.5C334.174 61.2267 334.571 62.8367 335.364 64.33C336.157 65.7767 337.231 66.9433 338.584 67.83C339.937 68.7167 341.407 69.16 342.994 69.16C344.534 69.16 345.957 68.7167 347.264 67.83C348.617 66.9433 349.691 65.7767 350.484 64.33C351.277 62.8367 351.674 61.2267 351.674 59.5C351.674 57.7733 351.277 56.1867 350.484 54.74C349.691 53.2467 348.617 52.08 347.264 51.24C345.957 50.3533 344.534 49.91 342.994 49.91C341.407 49.91 339.937 50.3533 338.584 51.24C337.231 52.08 336.157 53.2467 335.364 54.74ZM393.76 78.12V58.1C393.76 56.3267 393.107 54.81 391.8 53.55C390.54 52.2433 389.024 51.59 387.25 51.59C385.43 51.59 383.867 52.22 382.56 53.48C381.3 54.74 380.67 56.28 380.67 58.1V78.12H370.59V41.86H380.67V45.64C381.884 44.1467 383.377 42.98 385.15 42.14C386.924 41.3 388.79 40.88 390.75 40.88C393.13 40.88 395.324 41.4633 397.33 42.63C399.337 43.7967 400.924 45.3833 402.09 47.39C403.257 49.3967 403.84 51.5667 403.84 53.9V78.12H393.76Z" fill="#1E2226"/>
</svg>
