<svg width="303" height="50" viewBox="0 0 303 50" fill="none" xmlns="http://www.w3.org/2000/svg">
<path d="M58.6429 12.3153C66.4109 12.3153 73.1419 17.7956 71.9434 29.3103L52.6475 29.3105C53.4909 32.0273 56.2728 33.7438 59.2586 33.7438C61.4766 33.7438 63.5643 32.9621 64.9133 30.9659L70.5629 35.3365C67.8766 38.809 63.7359 40.8867 59.2586 40.8867C51.3688 40.8867 44.9729 34.4908 44.9729 26.601C44.9729 18.6466 50.8748 12.3153 58.6429 12.3153ZM28.7169 3.20197L15.2957 21.6747L28.7172 40.1477H18.6702L8.64275 26.3462V40.1479H0.514648V3.20209H8.64275V17.0031L18.67 3.20197H28.7169ZM40.4778 3.20197V40.1478H32.3497V3.20197H40.4778ZM85.4902 13.0542V40.1478H77.3621V13.0542H85.4902ZM106.919 12.3153C112.373 12.3153 116.805 16.6925 116.893 22.1257L116.894 22.2906V40.1478H108.766V24.5074C108.766 22.2629 106.947 20.4433 104.702 20.4433C102.48 20.4433 100.674 22.2267 100.639 24.4402L100.638 24.5074V40.1478H92.5099V13.0542H100.638L100.638 14.5405C102.353 13.149 104.538 12.3153 106.919 12.3153ZM58.6429 19.4581C55.7695 19.4581 53.4747 21.2159 52.5532 23.8915H64.7326C63.811 21.2159 61.5162 19.4581 58.6429 19.4581ZM81.4262 0C84.0107 0 86.106 2.09522 86.106 4.6798C86.106 7.26439 84.0107 9.3596 81.4262 9.3596C78.8416 9.3596 76.7463 7.26439 76.7463 4.6798C76.7463 2.09522 78.8416 0 81.4262 0Z" fill="#1E2226"/>
<path fill-rule="evenodd" clip-rule="evenodd" d="M273.052 13.0542L273.052 26.5861L273.052 26.601V26.6084V36.5764C273.052 44.2406 269.283 50 260.367 50C253.973 50 249.544 46.5406 247.75 45.0813L252.148 39.8404C253.531 41.3305 255.566 43.1607 260.128 43.0019C263.028 42.9009 265.081 41.5379 265.708 38.6471C263.85 39.6063 261.741 40.1478 259.505 40.1478C252.023 40.1478 245.958 34.0827 245.958 26.601C245.958 19.1193 252.023 13.0542 259.505 13.0542C261.822 13.0542 264.002 13.6356 265.909 14.6604L265.909 13.0542H273.052ZM152.116 4.4335C162.318 4.4335 170.589 12.7041 170.589 22.9064C170.589 33.1087 162.318 41.3793 152.116 41.3793H139.062V4.4335H152.116ZM216.836 12.3426C220.998 12.5619 224.158 13.7319 227.767 16.7296L227.877 16.821L223.445 22.1048C223.217 21.9142 222.996 21.7355 222.78 21.5682L222.636 21.4583C221.136 20.3216 219.856 19.7299 218.338 19.4411L218.192 19.4145C217.876 19.3589 217.549 19.3158 217.206 19.2831L217.048 19.2688C216.968 19.262 216.887 19.2557 216.805 19.2499L216.64 19.2391C216.585 19.2357 216.529 19.2325 216.473 19.2296C214.698 19.136 213.479 19.4115 212.837 19.8675C212.48 20.1207 212.332 20.4198 212.332 20.9685C212.332 21.3418 212.426 21.504 212.821 21.7602C213.361 22.1105 214.227 22.3941 215.361 22.562L215.518 22.5842C215.544 22.5878 215.571 22.5913 215.597 22.5947L215.759 22.6147L215.923 22.6331C216.034 22.6449 216.147 22.6557 216.262 22.6654L216.436 22.6792L216.525 22.6855C219.351 22.8794 221.886 23.5195 223.88 24.6803C226.55 26.2353 228.167 28.7004 228.167 31.7903C228.167 34.8402 226.576 37.3526 223.986 38.9565C221.928 40.2305 219.307 40.8867 216.655 40.8867C211.603 40.8867 207.326 38.422 204.191 33.9187L204.096 33.7817L209.786 29.8848C211.701 32.6808 213.946 33.9901 216.655 33.9901C218.091 33.9901 219.46 33.6475 220.355 33.0929C221.026 32.6778 221.27 32.2916 221.27 31.7903C221.27 31.324 221.077 31.0287 220.41 30.6403C219.651 30.1985 218.522 29.8617 217.162 29.6778L216.983 29.6547C216.713 29.6213 216.434 29.5939 216.148 29.5727L216.052 29.5659C213.267 29.3748 210.899 28.7335 209.069 27.5472C206.763 26.0521 205.436 23.7446 205.436 20.9685C205.436 18.228 206.629 15.8176 208.843 14.2451C210.89 12.7908 213.623 12.1732 216.836 12.3426ZM187.83 12.3153C195.598 12.3153 202.329 17.7956 201.131 29.3103L181.835 29.3105C182.678 32.0273 185.46 33.7438 188.446 33.7438C190.664 33.7438 192.752 32.9621 194.101 30.9659L199.75 35.3365C197.064 38.809 192.923 40.8867 188.446 40.8867C180.556 40.8867 174.16 34.4908 174.16 26.601C174.16 18.6466 180.062 12.3153 187.83 12.3153ZM240.663 13.0542V40.1478H232.535V13.0542H240.663ZM292.51 12.3153C297.964 12.3153 302.396 16.6925 302.484 22.1257L302.486 22.2906V40.1478H294.357V24.5074C294.357 22.2629 292.538 20.4433 290.293 20.4433C288.071 20.4433 286.266 22.2267 286.23 24.4402L286.229 24.5074V40.1478H278.101V13.0542H286.229L286.229 14.5405C287.944 13.149 290.13 12.3153 292.51 12.3153ZM152.116 12.5616H147.19V33.2512H152.116C157.829 33.2512 162.461 28.6197 162.461 22.9064C162.461 17.1931 157.829 12.5616 152.116 12.5616ZM259.505 20.197C255.968 20.197 253.101 23.0642 253.101 26.601C253.101 30.1378 255.968 33.0049 259.505 33.0049C263.042 33.0049 265.909 30.1378 265.909 26.601C265.909 23.0642 263.042 20.197 259.505 20.197ZM187.83 19.4581C184.957 19.4581 182.662 21.2159 181.74 23.8916H193.92C192.998 21.2159 190.703 19.4581 187.83 19.4581ZM236.599 0C239.183 0 241.278 2.09522 241.278 4.6798C241.278 7.26439 239.183 9.35961 236.599 9.35961C234.014 9.35961 231.919 7.26439 231.919 4.6798C231.919 2.09522 234.014 0 236.599 0Z" fill="#1E2226"/>
</svg>
